<?xml version="1.0" encoding="UTF-8" standalone="no"?>
<!-- Created with Inkscape (http://www.inkscape.org/) -->

<svg
   width="205.32861mm"
   height="267.51846mm"
   viewBox="0 0 205.32861 267.51846"
   version="1.1"
   id="svg7513"
   inkscape:version="1.2.2 (732a01da63, 2022-12-09, custom)"
   sodipodi:docname="main.svg"
   xml:space="preserve"
   xmlns:inkscape="http://www.inkscape.org/namespaces/inkscape"
   xmlns:sodipodi="http://sodipodi.sourceforge.net/DTD/sodipodi-0.dtd"
   xmlns="http://www.w3.org/2000/svg"
   xmlns:svg="http://www.w3.org/2000/svg"><sodipodi:namedview
     id="namedview7515"
     pagecolor="#505050"
     bordercolor="#eeeeee"
     borderopacity="1"
     inkscape:showpageshadow="0"
     inkscape:pageopacity="0"
     inkscape:pagecheckerboard="0"
     inkscape:deskcolor="#505050"
     inkscape:document-units="mm"
     showgrid="false"
     inkscape:zoom="0.37386409"
     inkscape:cx="97.62906"
     inkscape:cy="76.23091"
     inkscape:window-width="1920"
     inkscape:window-height="1007"
     inkscape:window-x="0"
     inkscape:window-y="0"
     inkscape:window-maximized="1"
     inkscape:current-layer="layer1" /><defs
     id="defs7510"><style
       id="style7892">.cls-1{fill:#ff8475;}.cls-13,.cls-2{fill:#f85565;}.cls-2{opacity:0.4;}.cls-3{fill:#ffffff;}.cls-4,.cls-7{fill:#356cb6;}.cls-17,.cls-4{opacity:0.1;}.cls-5{fill:#fbc0aa;}.cls-15,.cls-6{fill:#00adfe;}.cls-10,.cls-11,.cls-12,.cls-14,.cls-16,.cls-17,.cls-8{fill:none;stroke-linecap:round;}.cls-11,.cls-8{stroke:#fbc0aa;}.cls-11,.cls-12,.cls-14,.cls-16,.cls-17,.cls-8{stroke-linejoin:round;}.cls-8{stroke-width:14px;}.cls-9{fill:#ffd8c9;}.cls-10{stroke:#ffffff;stroke-miterlimit:10;}.cls-10,.cls-12,.cls-17{stroke-width:2px;}.cls-11{stroke-width:5px;}.cls-12,.cls-14,.cls-16,.cls-17{stroke:#515570;}.cls-12,.cls-15{opacity:0.2;}.cls-14,.cls-16{stroke-width:2.33px;}.cls-14{opacity:0.7;}</style></defs><g
     inkscape:label="Layer 1"
     inkscape:groupmode="layer"
     id="layer1"
     transform="translate(-2.7830288,-2.9847863)"><rect
       style="fill:#b3b3b3;fill-opacity:1;stroke:none;stroke-width:3.90954;stroke-linecap:square;stroke-linejoin:bevel;stroke-miterlimit:4;stroke-dasharray:none;stroke-dashoffset:0;stroke-opacity:1;paint-order:normal"
       id="rect1301"
       width="205.32861"
       height="267.51846"
       x="2.7830288"
       y="2.9847863"
       rx="0"
       ry="0"
       inkscape:export-xdpi="500.06805"
       inkscape:export-ydpi="500.06805" /><path
       style="fill:#808080;fill-opacity:1;stroke:none;stroke-width:3.90954;stroke-linecap:square;stroke-linejoin:bevel;stroke-miterlimit:4;stroke-dasharray:none;stroke-dashoffset:0;stroke-opacity:1;paint-order:normal"
       d="M 208.01218,32.376945 2.9813655,46.954467 V 145.74251 L 208.01218,131.165 Z"
       id="rect1280"
       sodipodi:nodetypes="ccccc" /><path
       style="fill:#333333;fill-opacity:1;stroke:none;stroke-width:3.90954;stroke-linecap:square;stroke-linejoin:bevel;stroke-miterlimit:4;stroke-dasharray:none;stroke-dashoffset:0;stroke-opacity:1;paint-order:normal"
       d="M 2.9814563,35.004693 208.01256,20.426853 V 32.514062 L 2.9814563,47.091904 Z"
       id="rect1282"
       inkscape:connector-curvature="0"
       sodipodi:nodetypes="ccccc"
       inkscape:export-xdpi="500.06805"
       inkscape:export-ydpi="500.06805" /><text
       xml:space="preserve"
       style="font-style:normal;font-variant:normal;font-weight:normal;font-stretch:normal;font-size:16.3618px;line-height:1.25;font-family:'Futura TL';-inkscape-font-specification:'Futura TL';font-variant-ligatures:normal;font-variant-position:normal;font-variant-caps:normal;font-variant-numeric:normal;font-variant-alternates:normal;font-feature-settings:normal;text-indent:0;text-align:center;text-decoration:none;text-decoration-line:none;text-decoration-style:solid;text-decoration-color:#000000;letter-spacing:0px;word-spacing:0px;text-transform:none;writing-mode:lr-tb;direction:ltr;text-orientation:mixed;dominant-baseline:auto;baseline-shift:baseline;text-anchor:middle;white-space:normal;shape-padding:0;vector-effect:none;fill:#000000;fill-opacity:1;stroke:none;stroke-width:0.508151;stroke-linecap:butt;stroke-linejoin:miter;stroke-miterlimit:4;stroke-dasharray:none;stroke-dashoffset:0;stroke-opacity:1"
       x="104.97198"
       y="73.778275"
       id="text1396"
       transform="matrix(0.99775906,-0.09825881,0.02632588,0.99965341,0,0)"
       inkscape:export-xdpi="500.06805"
       inkscape:export-ydpi="500.06805"><tspan
         sodipodi:role="line"
         id="tspan1394"
         x="104.97198"
         y="73.778275"
         style="font-style:normal;font-variant:normal;font-weight:bold;font-stretch:normal;font-family:'JetBrains Mono';-inkscape-font-specification:'JetBrains Mono Bold';fill:#ffffff;stroke-width:0.508151">Network Fundamentals</tspan><tspan
         sodipodi:role="line"
         x="104.97198"
         y="94.442596"
         style="font-style:normal;font-variant:normal;font-weight:bold;font-stretch:normal;font-family:'JetBrains Mono';-inkscape-font-specification:'JetBrains Mono Bold';fill:#ffffff;stroke-width:0.508151"
         id="tspan1398">in Azure</tspan><tspan
         sodipodi:role="line"
         x="104.97198"
         y="115.10693"
         style="font-style:normal;font-variant:normal;font-weight:bold;font-stretch:normal;font-family:'JetBrains Mono';-inkscape-font-specification:'JetBrains Mono Bold';fill:#ffffff;stroke-width:0.508151"
         id="tspan12366">FOR</tspan><tspan
         sodipodi:role="line"
         x="104.97198"
         y="135.77126"
         style="font-style:normal;font-variant:normal;font-weight:bold;font-stretch:normal;font-family:'JetBrains Mono';-inkscape-font-specification:'JetBrains Mono Bold';fill:#ffffff;stroke-width:0.508151"
         id="tspan12368">ELDERY PEOPLE</tspan></text><text
       transform="skewY(-4.1157883)"
       id="text1312"
       y="45.205116"
       x="173.39868"
       style="font-style:normal;font-variant:normal;font-weight:normal;font-stretch:normal;font-size:16.6531px;line-height:1.25;font-family:'Futura TL';-inkscape-font-specification:'Futura TL';font-variant-ligatures:normal;font-variant-position:normal;font-variant-caps:normal;font-variant-numeric:normal;font-variant-alternates:normal;font-feature-settings:normal;text-indent:0;text-align:center;text-decoration:none;text-decoration-line:none;text-decoration-style:solid;text-decoration-color:#000000;letter-spacing:0px;word-spacing:0px;text-transform:none;writing-mode:lr-tb;direction:ltr;text-orientation:mixed;dominant-baseline:auto;baseline-shift:baseline;text-anchor:middle;white-space:normal;shape-padding:0;vector-effect:none;fill:#000000;fill-opacity:1;stroke:none;stroke-width:0.517198;stroke-linecap:butt;stroke-linejoin:miter;stroke-miterlimit:4;stroke-dasharray:none;stroke-dashoffset:0;stroke-opacity:1"
       xml:space="preserve"
       inkscape:export-xdpi="500.06805"
       inkscape:export-ydpi="500.06805"><tspan
         id="tspan1310"
         style="font-style:normal;font-variant:normal;font-weight:bold;font-stretch:normal;font-size:9.65437px;font-family:'JetBrains Mono';-inkscape-font-specification:'JetBrains Mono Bold';fill:#ffffff;stroke-width:0.517198"
         y="45.205116"
         x="173.39868"
         sodipodi:role="line">1st Edition</tspan></text><text
       id="text13654-0"
       y="159.409"
       x="8.4686766"
       style="font-style:normal;font-variant:normal;font-weight:normal;font-stretch:normal;font-size:20.6879px;line-height:7.1349px;font-family:'Futura TL';-inkscape-font-specification:'Futura TL';font-variant-ligatures:normal;font-variant-position:normal;font-variant-caps:normal;font-variant-numeric:normal;font-variant-alternates:normal;font-feature-settings:normal;text-indent:0;text-align:start;text-decoration:none;text-decoration-line:none;text-decoration-style:solid;text-decoration-color:#000000;letter-spacing:0px;word-spacing:0px;text-transform:none;writing-mode:lr-tb;direction:ltr;text-orientation:mixed;dominant-baseline:auto;baseline-shift:baseline;text-anchor:start;white-space:normal;shape-padding:0;vector-effect:none;fill:#000000;fill-opacity:1;stroke:none;stroke-width:0.517198;stroke-linecap:butt;stroke-linejoin:miter;stroke-miterlimit:4;stroke-dasharray:none;stroke-dashoffset:0;stroke-opacity:1"
       xml:space="preserve"
       inkscape:export-filename="C:\Users\fadjur\Git\Enterprise infrastructure connectivity and security\Images\bitmap.png"
       inkscape:export-xdpi="500.06805"
       inkscape:export-ydpi="500.06805"
       transform="skewY(-4.4592927)"><tspan
         style="font-style:italic;font-variant:normal;font-weight:bold;font-stretch:normal;font-size:8.27517px;line-height:7.1349px;font-family:'JetBrains Mono';-inkscape-font-specification:'JetBrains Mono Bold Italic';fill:#000000;fill-opacity:1;stroke-width:0.517198"
         sodipodi:role="line"
         x="8.4686766"
         y="159.409"
         id="tspan1292">A simple and clear explanation</tspan><tspan
         style="font-style:italic;font-variant:normal;font-weight:bold;font-stretch:normal;font-size:8.27517px;line-height:7.1349px;font-family:'JetBrains Mono';-inkscape-font-specification:'JetBrains Mono Bold Italic';fill:#000000;fill-opacity:1;stroke-width:0.517198"
         sodipodi:role="line"
         x="8.4686766"
         y="169.66104"
         id="tspan12719">of networking principles, </tspan><tspan
         style="font-style:italic;font-variant:normal;font-weight:bold;font-stretch:normal;font-size:8.27517px;line-height:7.1349px;font-family:'JetBrains Mono';-inkscape-font-specification:'JetBrains Mono Bold Italic';fill:#000000;fill-opacity:1;stroke-width:0.517198"
         sodipodi:role="line"
         x="8.4686766"
         y="179.91307"
         id="tspan12721">with specific focus on Azure</tspan></text><circle
       class="cls-5"
       cx="195.90869"
       cy="219.78058"
       r="7.3405256"
       id="circle7908"
       style="stroke-width:1.04865" /><path
       id="path7910"
       style="stroke-width:1.04865"
       class="cls-6"
       d="m 146.67468,252.28858 a 10.486464,10.486464 0 0 0 -9.87826,6.96301 l -3.49199,10.79058 a 62.604188,62.604188 0 0 0 0.6813,0.46107 h 71.41348 a 62.604188,62.604188 0 0 0 0.68128,-0.46107 l -3.49198,-10.79058 a 10.486464,10.486464 0 0 0 -9.82583,-6.96301 z" /><path
       id="path7912"
       style="stroke-width:1.00956"
       class="cls-7"
       d="m 154.22717,252.59733 c -0.57681,5.96319 -1.15604,11.92615 -1.73135,17.88947 11.46446,0 22.9289,0 34.39338,0 -0.58499,-6.06069 -1.17299,-12.12111 -1.75998,-18.18158 -10.29116,0 -20.58229,0 -30.87343,0 -0.01,0.0974 -0.0196,0.19469 -0.0285,0.29211 z" /><circle
       class="cls-3"
       cx="161.30336"
       cy="254.38593"
       r="3.1459394"
       id="circle7914"
       style="stroke-width:1.04865" /><circle
       class="cls-3"
       cx="162.35204"
       cy="258.58051"
       r="3.1459394"
       id="circle7916"
       style="stroke-width:1.04865" /><circle
       class="cls-3"
       cx="178.08167"
       cy="254.38593"
       r="3.1459394"
       id="circle7918"
       style="stroke-width:1.04865" /><circle
       class="cls-3"
       cx="177.03305"
       cy="258.58051"
       r="3.1459394"
       id="circle7920"
       style="stroke-width:1.04865" /><circle
       class="cls-3"
       cx="165.49796"
       cy="261.72644"
       r="3.1459394"
       id="circle7922"
       style="stroke-width:1.04865" /><circle
       class="cls-3"
       cx="169.6925"
       cy="262.77509"
       r="3.1459394"
       id="circle7924"
       style="stroke-width:1.04865" /><circle
       class="cls-3"
       cx="173.8871"
       cy="261.72644"
       r="3.1459394"
       id="circle7926"
       style="stroke-width:1.04865" /><path
       id="line7928"
       class="cls-8"
       style="fill:none;stroke:#fbc0aa;stroke-width:8.87798px;stroke-linecap:round;stroke-linejoin:round"
       d="m 169.69251,243.89946 v 10.48647" /><circle
       class="cls-5"
       cx="143.47639"
       cy="219.78058"
       r="7.3405256"
       id="circle7930"
       style="stroke-width:1.04865" /><path
       class="cls-9"
       d="m 169.69253,251.23998 a 26.216159,26.216159 0 0 1 -26.21617,-26.21617 v -17.28169 a 26.21617,26.21617 0 1 1 52.43234,0 v 17.28169 a 26.216159,26.216159 0 0 1 -26.21617,26.21617 z"
       id="path7932"
       style="stroke-width:1.04865" /><path
       style="color:#000000;fill:#fbc0aa;stroke-width:0.634142;stroke-linecap:round;stroke-linejoin:round;-inkscape-stroke:none"
       d="m 169.69249,223.27194 a 1.4895655,1.4895655 0 0 0 -1.48997,1.48998 v 6.81578 a 1.4895655,1.4895655 0 0 0 1.48997,1.48999 1.4895655,1.4895655 0 0 0 1.49001,-1.48999 v -6.81578 a 1.4895655,1.4895655 0 0 0 -1.49001,-1.48998 z"
       id="line7940" /><path
       style="color:#000000;opacity:0.2;fill:#515570;stroke-width:0.634142;stroke-linecap:round;stroke-linejoin:round;-inkscape-stroke:none"
       d="m 149.11756,210.75752 a 0.63414208,0.63414208 0 0 0 -0.63414,0.63415 0.63414208,0.63414208 0 0 0 0.63414,0.63415 h 9.7004 a 0.63414208,0.63414208 0 0 0 0.63414,-0.63415 0.63414208,0.63414208 0 0 0 -0.63414,-0.63415 z"
       id="line7942" /><path
       style="color:#000000;opacity:0.2;fill:#515570;stroke-width:0.634142;stroke-linecap:round;stroke-linejoin:round;-inkscape-stroke:none"
       d="m 180.57697,210.75752 a 0.63414208,0.63414208 0 0 0 -0.63416,0.63415 0.63414208,0.63414208 0 0 0 0.63416,0.63415 h 9.70038 a 0.63414208,0.63414208 0 0 0 0.63415,-0.63415 0.63414208,0.63414208 0 0 0 -0.63415,-0.63415 z"
       id="line7944" /><path
       class="cls-13"
       d="m 169.69253,241.80216 c 5.24323,0 7.34051,-3.14592 7.34051,-3.14592 h -14.68105 c 0,0 2.09731,3.14592 7.34054,3.14592 z"
       id="path7946"
       style="stroke-width:1.04865" /><path
       style="color:#000000;opacity:0.7;fill:#515570;stroke-width:0.634142;stroke-linecap:round;stroke-linejoin:round;-inkscape-stroke:none"
       d="m 180.17938,222.18819 a 0.73877553,0.73877553 0 0 0 -0.73943,0.73818 0.73877553,0.73877553 0 0 0 0.73943,0.73943 h 4.19375 a 0.73877553,0.73877553 0 0 0 0.73942,-0.73943 0.73877553,0.73877553 0 0 0 -0.73942,-0.73818 z"
       id="line7948" /><path
       style="color:#000000;opacity:0.7;fill:#515570;stroke-width:0.634142;stroke-linecap:round;stroke-linejoin:round;-inkscape-stroke:none"
       d="m 155.01187,222.18819 a 0.73877553,0.73877553 0 0 0 -0.73943,0.73818 0.73877553,0.73877553 0 0 0 0.73943,0.73943 h 4.19375 a 0.73877553,0.73877553 0 0 0 0.73941,-0.73943 0.73877553,0.73877553 0 0 0 -0.73941,-0.73818 z"
       id="line7950" /><circle
       class="cls-15"
       cx="157.10875"
       cy="219.78058"
       r="7.3405256"
       id="circle7952"
       style="stroke-width:1.04865" /><path
       style="color:#000000;fill:#515570;stroke-width:0.634142;stroke-linecap:round;stroke-linejoin:round;-inkscape-stroke:none"
       d="m 157.10875,211.74589 c -4.42921,0 -8.03455,3.60533 -8.03455,8.03454 0,4.42919 3.60534,8.03454 8.03455,8.03454 4.4292,0 8.03454,-3.60535 8.03454,-8.03454 0,-4.42921 -3.60536,-8.03454 -8.03454,-8.03454 z m 0,1.38843 c 3.67891,0 6.6461,2.9672 6.6461,6.64611 0,3.67891 -2.96719,6.64611 -6.6461,6.64611 -3.67893,0 -6.64611,-2.9672 -6.64611,-6.64611 0,-3.67891 2.96718,-6.64611 6.64611,-6.64611 z"
       id="circle7954" /><circle
       class="cls-15"
       cx="182.27628"
       cy="219.78058"
       r="7.3405256"
       id="circle7956"
       style="stroke-width:1.04865" /><path
       style="color:#000000;fill:#515570;stroke-width:0.634142;stroke-linecap:round;stroke-linejoin:round;-inkscape-stroke:none"
       d="m 182.27626,211.74589 c -4.42921,0 -8.03453,3.60533 -8.03453,8.03454 0,4.42919 3.60532,8.03454 8.03453,8.03454 4.42921,0 8.03454,-3.60535 8.03454,-8.03454 0,-4.42921 -3.60533,-8.03454 -8.03454,-8.03454 z m 0,1.38843 c 3.67893,0 6.64611,2.96718 6.64611,6.64611 0,3.67891 -2.96718,6.64611 -6.64611,6.64611 -3.6789,0 -6.64611,-2.9672 -6.64611,-6.64611 0,-3.67893 2.96721,-6.64611 6.64611,-6.64611 z"
       id="circle7958" /><path
       style="color:#000000;fill:#515570;stroke-width:0.634142;stroke-linecap:round;stroke-linejoin:round;-inkscape-stroke:none"
       d="m 164.44968,219.04225 a 0.73877553,0.73877553 0 0 0 -0.73942,0.73818 0.73877553,0.73877553 0 0 0 0.73942,0.73943 h 10.48566 a 0.73877553,0.73877553 0 0 0 0.7394,-0.73943 0.73877553,0.73877553 0 0 0 -0.7394,-0.73818 z"
       id="line7960" /><path
       style="color:#000000;opacity:0.1;fill:#515570;stroke-width:0.634142;stroke-linecap:round;stroke-linejoin:round;-inkscape-stroke:none"
       d="m 162.69837,231.87991 a 0.59582628,0.59582628 0 0 0 -0.83107,0.13878 l -5.24283,7.3397 a 0.59582628,0.59582628 0 0 0 0.13743,0.83107 0.59582628,0.59582628 0 0 0 0.83106,-0.1388 l 5.24406,-7.33969 a 0.59582628,0.59582628 0 0 0 -0.1388,-0.83109 z"
       id="line7962" /><path
       style="color:#000000;opacity:0.1;fill:#515570;stroke-width:0.634142;stroke-linecap:round;stroke-linejoin:round;-inkscape-stroke:none"
       d="m 176.08223,231.7771 a 0.59582628,0.59582628 0 0 0 -0.44465,0.10278 0.59582628,0.59582628 0 0 0 -0.13741,0.83108 l 5.24281,7.3397 a 0.59582628,0.59582628 0 0 0 0.83107,0.13879 0.59582628,0.59582628 0 0 0 0.13878,-0.83107 l -5.24406,-7.33969 a 0.59582628,0.59582628 0 0 0 -0.38642,-0.24153 z"
       id="line7964" /><path
       id="circle7902"
       style="fill:#ffffff;stroke-width:1.04865"
       class="cls-3"
       d="m 169.69269,162.18912 c -7.93707,0.006 -14.61252,5.95322 -15.53009,13.83709 -10.0457,5.62063 -16.27038,16.23062 -16.27559,27.74181 -0.28137,7.22916 1.52413,14.59921 5.73364,19.26465 -1.71713,-17.87299 9.52811,-22.89848 16.5915,-28.50199 11.87261,11.10374 35.74785,11.78886 35.34958,24.80979 0.10677,0.7503 0.16596,1.50009 0.17789,2.24659 4.12384,-7.5173 5.75893,-9.78227 5.75893,-17.81904 -0.001,-11.51203 -6.22273,-22.12491 -16.26751,-27.74889 -0.92121,-7.88412 -7.60042,-13.82906 -15.53817,-13.83001 z"
       sodipodi:nodetypes="ccccccccccc" /></g></svg>
