<?xml version="1.0" encoding="UTF-8" standalone="no"?>
<!-- Created with Inkscape (http://www.inkscape.org/) -->

<svg
   width="210mm"
   height="297mm"
   viewBox="0 0 210 297"
   version="1.1"
   id="svg1643"
   xml:space="preserve"
   sodipodi:docname="main.svg"
   inkscape:version="1.2.2 (732a01da63, 2022-12-09, custom)"
   xmlns:inkscape="http://www.inkscape.org/namespaces/inkscape"
   xmlns:sodipodi="http://sodipodi.sourceforge.net/DTD/sodipodi-0.dtd"
   xmlns="http://www.w3.org/2000/svg"
   xmlns:svg="http://www.w3.org/2000/svg"><sodipodi:namedview
     id="namedview1645"
     pagecolor="#505050"
     bordercolor="#eeeeee"
     borderopacity="1"
     inkscape:showpageshadow="0"
     inkscape:pageopacity="0"
     inkscape:pagecheckerboard="0"
     inkscape:deskcolor="#505050"
     inkscape:document-units="mm"
     showgrid="false"
     inkscape:zoom="0.98664822"
     inkscape:cx="569.60524"
     inkscape:cy="469.7723"
     inkscape:window-width="1920"
     inkscape:window-height="1007"
     inkscape:window-x="0"
     inkscape:window-y="0"
     inkscape:window-maximized="1"
     inkscape:current-layer="layer1" /><defs
     id="defs1640"><style
       id="style2361">.cls-1{fill:#ff8475;}.cls-13,.cls-2{fill:#f85565;}.cls-2{opacity:0.4;}.cls-3{fill:#ffffff;}.cls-4,.cls-7{fill:#356cb6;}.cls-17,.cls-4{opacity:0.1;}.cls-5{fill:#fbc0aa;}.cls-15,.cls-6{fill:#00adfe;}.cls-10,.cls-11,.cls-12,.cls-14,.cls-16,.cls-17,.cls-8{fill:none;stroke-linecap:round;}.cls-11,.cls-8{stroke:#fbc0aa;}.cls-11,.cls-12,.cls-14,.cls-16,.cls-17,.cls-8{stroke-linejoin:round;}.cls-8{stroke-width:14px;}.cls-9{fill:#ffd8c9;}.cls-10{stroke:#ffffff;stroke-miterlimit:10;}.cls-10,.cls-12,.cls-17{stroke-width:2px;}.cls-11{stroke-width:5px;}.cls-12,.cls-14,.cls-16,.cls-17{stroke:#515570;}.cls-12,.cls-15{opacity:0.2;}.cls-14,.cls-16{stroke-width:2.33px;}.cls-14{opacity:0.7;}</style><style
       id="style3726">.cls-1{fill:#ff8475;}.cls-13,.cls-2{fill:#f85565;}.cls-2{opacity:0.4;}.cls-3{fill:#ffffff;}.cls-4,.cls-7{fill:#356cb6;}.cls-17,.cls-4{opacity:0.1;}.cls-5{fill:#fbc0aa;}.cls-15,.cls-6{fill:#00adfe;}.cls-10,.cls-11,.cls-12,.cls-14,.cls-16,.cls-17,.cls-8{fill:none;stroke-linecap:round;}.cls-11,.cls-8{stroke:#fbc0aa;}.cls-11,.cls-12,.cls-14,.cls-16,.cls-17,.cls-8{stroke-linejoin:round;}.cls-8{stroke-width:14px;}.cls-9{fill:#ffd8c9;}.cls-10{stroke:#ffffff;stroke-miterlimit:10;}.cls-10,.cls-12,.cls-17{stroke-width:2px;}.cls-11{stroke-width:5px;}.cls-12,.cls-14,.cls-16,.cls-17{stroke:#515570;}.cls-12,.cls-15{opacity:0.2;}.cls-14,.cls-16{stroke-width:2.33px;}.cls-14{opacity:0.7;}</style></defs><g
     inkscape:label="Layer 1"
     inkscape:groupmode="layer"
     id="layer1"><text
       inkscape:export-filename="/home/adm1n/Git/azure/images/network/az_strg_rest_03.png"
       inkscape:export-ydpi="50"
       inkscape:export-xdpi="50"
       id="text5578-1-3"
       y="145.87927"
       x="23.340082"
       style="font-style:normal;font-variant:normal;font-weight:500;font-stretch:normal;font-size:5.82388px;line-height:1.25;font-family:'JetBrains Mono';-inkscape-font-specification:'JetBrains Mono, Medium';font-variant-ligatures:normal;font-variant-caps:normal;font-variant-numeric:normal;font-feature-settings:normal;text-align:center;letter-spacing:0px;word-spacing:0px;writing-mode:lr-tb;text-anchor:middle;fill:#000000;fill-opacity:1;stroke:none;stroke-width:0.218396"
       xml:space="preserve"><tspan
         y="145.87927"
         x="23.340082"
         sodipodi:role="line"
         style="font-style:normal;font-variant:normal;font-weight:bold;font-stretch:normal;font-size:9.87778px;font-family:'JetBrains Mono';-inkscape-font-specification:'JetBrains Mono Bold';text-align:center;text-anchor:middle;fill:#000000;fill-opacity:1;stroke-width:0.218396"
         id="tspan5576-8-6">Client</tspan></text><path
       sodipodi:type="star"
       style="fill:#666666;fill-opacity:1;stroke-width:0.264583"
       id="path5616-9"
       sodipodi:sides="6"
       sodipodi:cx="1948.4672"
       sodipodi:cy="429.66962"
       sodipodi:r1="112.68826"
       sodipodi:r2="56.344131"
       sodipodi:arg1="0.78539816"
       sodipodi:arg2="1.3089969"
       inkscape:flatsided="true"
       inkscape:rounded="0"
       inkscape:randomized="0"
       d="m 2028.1498,509.35225 -108.8485,29.16587 -79.6826,-79.68263 29.1658,-108.84851 108.8485,-29.16587 79.6827,79.68264 z"
       inkscape:transform-center-x="-2.2851654e-05"
       inkscape:transform-center-y="2.965739e-05"
       transform="matrix(0.20037434,-0.05369013,0.05369013,0.20037434,-386.91854,47.855214)" /><path
       sodipodi:type="star"
       style="fill:#ffffff;stroke-width:0.264583"
       id="path5618-0"
       sodipodi:sides="6"
       sodipodi:cx="1948.4672"
       sodipodi:cy="429.66962"
       sodipodi:r1="112.68826"
       sodipodi:r2="56.344131"
       sodipodi:arg1="0.78539816"
       sodipodi:arg2="1.3089969"
       inkscape:flatsided="true"
       inkscape:rounded="0"
       inkscape:randomized="0"
       d="m 2028.1498,509.35225 -108.8485,29.16587 -79.6826,-79.68263 29.1658,-108.84851 108.8485,-29.16587 79.6827,79.68264 z"
       inkscape:transform-center-x="6.4816261e-06"
       inkscape:transform-center-y="3.4039249e-05"
       transform="matrix(0.17373549,-0.04655227,0.04655227,0.17373549,-331.94674,45.393224)" /><g
       style="fill:#333333;fill-opacity:1"
       id="g7727"
       transform="matrix(2.1762521,0,0,2.1762521,9.1632375,11.926499)"><path
         class="cls-1"
         d="M 14,12 V 6 H 5 v 6 h 4 v 1 H 7 v 1 h 5 V 13 H 10 V 12 Z M 6,11 V 7 h 7 v 4 z M 7,5 H 4 V 4 H 7 Z M 8,5 V 3 H 3 v 7 h 1 v 3 h 2 v 1 H 3 A 1,1 0 0 1 2,13 V 3 A 1,1 0 0 1 3,2 h 5 a 1,1 0 0 1 1,1 v 2 z"
         id="path7719"
         style="fill:#333333;fill-opacity:1" /></g><path
       sodipodi:type="star"
       style="fill:#666666;fill-opacity:1;stroke-width:0.264583"
       id="path8154"
       sodipodi:sides="6"
       sodipodi:cx="1948.4672"
       sodipodi:cy="429.66962"
       sodipodi:r1="112.68826"
       sodipodi:r2="56.344131"
       sodipodi:arg1="0.78539816"
       sodipodi:arg2="1.3089969"
       inkscape:flatsided="true"
       inkscape:rounded="0"
       inkscape:randomized="0"
       d="m 2028.1498,509.35225 -108.8485,29.16587 -79.6826,-79.68263 29.1658,-108.84851 108.8485,-29.16587 79.6827,79.68264 z"
       inkscape:transform-center-x="-2.2851654e-05"
       inkscape:transform-center-y="2.965739e-05"
       transform="matrix(0.20037434,-0.05369013,0.05369013,0.20037434,-365.85025,84.891987)" /><path
       sodipodi:type="star"
       style="fill:#ffffff;stroke-width:0.264583"
       id="path8156"
       sodipodi:sides="6"
       sodipodi:cx="1948.4672"
       sodipodi:cy="429.66962"
       sodipodi:r1="112.68826"
       sodipodi:r2="56.344131"
       sodipodi:arg1="0.78539816"
       sodipodi:arg2="1.3089969"
       inkscape:flatsided="true"
       inkscape:rounded="0"
       inkscape:randomized="0"
       d="m 2028.1498,509.35225 -108.8485,29.16587 -79.6826,-79.68263 29.1658,-108.84851 108.8485,-29.16587 79.6827,79.68264 z"
       inkscape:transform-center-x="6.4816261e-06"
       inkscape:transform-center-y="3.4039249e-05"
       transform="matrix(0.17373549,-0.04655227,0.04655227,0.17373549,-310.87845,82.429997)" /><g
       style="fill:#333333;fill-opacity:1"
       id="g8160"
       transform="matrix(2.1762521,0,0,2.1762521,30.231528,48.963272)"><path
         class="cls-1"
         d="M 14,12 V 6 H 5 v 6 h 4 v 1 H 7 v 1 h 5 V 13 H 10 V 12 Z M 6,11 V 7 h 7 v 4 z M 7,5 H 4 V 4 H 7 Z M 8,5 V 3 H 3 v 7 h 1 v 3 h 2 v 1 H 3 A 1,1 0 0 1 2,13 V 3 A 1,1 0 0 1 3,2 h 5 a 1,1 0 0 1 1,1 v 2 z"
         id="path8158"
         style="fill:#333333;fill-opacity:1" /></g><g
       id="g1989"
       transform="translate(-17.478911,54.286746)"><path
         sodipodi:type="star"
         style="fill:#666666;fill-opacity:1;stroke-width:0.264583"
         id="path855"
         sodipodi:sides="6"
         sodipodi:cx="1948.4672"
         sodipodi:cy="429.66962"
         sodipodi:r1="112.68826"
         sodipodi:r2="56.344131"
         sodipodi:arg1="0.78539816"
         sodipodi:arg2="1.3089969"
         inkscape:flatsided="true"
         inkscape:rounded="0"
         inkscape:randomized="0"
         d="m 2028.1498,509.35225 -108.8485,29.16587 -79.6826,-79.68263 29.1658,-108.84851 108.8485,-29.16587 79.6827,79.68264 z"
         inkscape:transform-center-x="-2.2851654e-05"
         inkscape:transform-center-y="2.965739e-05"
         transform="matrix(0.20037434,-0.05369013,0.05369013,0.20037434,-326.59091,142.73747)" /><path
         sodipodi:type="star"
         style="fill:#ffffff;stroke-width:0.264583"
         id="path857"
         sodipodi:sides="6"
         sodipodi:cx="1948.4672"
         sodipodi:cy="429.66962"
         sodipodi:r1="112.68826"
         sodipodi:r2="56.344131"
         sodipodi:arg1="0.78539816"
         sodipodi:arg2="1.3089969"
         inkscape:flatsided="true"
         inkscape:rounded="0"
         inkscape:randomized="0"
         d="m 2028.1498,509.35225 -108.8485,29.16587 -79.6826,-79.68263 29.1658,-108.84851 108.8485,-29.16587 79.6827,79.68264 z"
         inkscape:transform-center-x="6.4816261e-06"
         inkscape:transform-center-y="3.4039249e-05"
         transform="matrix(0.17373549,-0.04655227,0.04655227,0.17373549,-271.61911,140.27548)" /><g
         style="fill:#333333;fill-opacity:1"
         id="g1020"
         transform="matrix(1.3000592,0,0,1.3000592,71.300172,108.61806)"><path
           clip-rule="evenodd"
           d="M 7.8,4.25 H 7.7679 C 6.95506,4.24999 6.29944,4.24999 5.76853,4.29336 5.2219,4.33803 4.74175,4.43239 4.29754,4.65873 3.59193,5.01825 3.01825,5.59193 2.65873,6.29754 2.43239,6.74175 2.33803,7.2219 2.29336,7.76853 2.24999,8.29944 2.24999,8.95505 2.25,9.76788 v 2e-5 0.0321 4.4 0.0321 c -1e-5,0.8129 -1e-5,1.4685 0.04336,1.9994 0.04467,0.5466 0.13903,1.0267 0.36537,1.471 0.35952,0.7056 0.9332,1.2792 1.63881,1.6388 0.44421,0.2263 0.92436,0.3207 1.47099,0.3653 C 6.29944,19.75 6.95505,19.75 7.76788,19.75 H 7.8 h 8.4 0.0321 c 0.8129,0 1.4685,0 1.9994,-0.0434 0.5466,-0.0446 1.0267,-0.139 1.471,-0.3653 0.7056,-0.3596 1.2792,-0.9332 1.6388,-1.6388 0.2263,-0.4443 0.3207,-0.9244 0.3653,-1.471 C 21.75,15.7006 21.75,15.045 21.75,14.2321 V 14.2 9.8 9.76788 c 0,-0.81283 0,-1.46844 -0.0434,-1.99935 C 21.662,7.2219 21.5676,6.74175 21.3413,6.29754 20.9817,5.59193 20.4081,5.01825 19.7025,4.65873 19.2582,4.43239 18.7781,4.33803 18.2315,4.29336 17.7006,4.24999 17.0449,4.24999 16.2321,4.25 H 16.2 Z M 4.97852,5.99524 C 5.17604,5.8946 5.43681,5.82547 5.89068,5.78838 6.35331,5.75058 6.94755,5.75 7.8,5.75 h 8.4 c 0.8525,0 1.4467,5.8e-4 1.9093,0.03838 0.4539,0.03709 0.7147,0.10622 0.9122,0.20686 0.2021,0.10296 0.3861,0.2352 0.5467,0.39135 -0.0346,0.02442 -0.0676,0.05211 -0.0985,0.08308 l -4.6059,4.60593 c -0.6028,0.6027 -1.0234,1.0225 -1.3773,1.3229 -0.3471,0.2947 -0.5804,0.4302 -0.7912,0.4987 -0.4519,0.1469 -0.9387,0.1469 -1.3906,0 -0.2108,-0.0685 -0.4441,-0.204 -0.7912,-0.4987 C 10.1596,12.0981 9.73899,11.6783 9.13622,11.0756 L 4.53033,6.46967 C 4.49936,6.4387 4.46636,6.41101 4.43175,6.38659 4.5924,6.23044 4.77644,6.0982 4.97852,5.99524 Z M 3.79164,7.85229 C 3.79052,7.86493 3.78944,7.87773 3.78838,7.89068 3.75058,8.35331 3.75,8.94755 3.75,9.8 v 4.4 c 0,0.8525 5.8e-4,1.4467 0.03838,1.9093 0.03709,0.4539 0.10622,0.7147 0.20686,0.9122 0.21571,0.4233 0.55992,0.7675 0.98328,0.9833 0.19752,0.1006 0.45829,0.1697 0.91216,0.2068 C 6.35331,18.2494 6.94755,18.25 7.8,18.25 h 8.4 c 0.8525,0 1.4467,-6e-4 1.9093,-0.0384 0.4539,-0.0371 0.7147,-0.1062 0.9122,-0.2068 0.4233,-0.2158 0.7675,-0.56 0.9833,-0.9833 0.1006,-0.1975 0.1697,-0.4583 0.2068,-0.9122 C 20.2494,15.6467 20.25,15.0525 20.25,14.2 V 9.8 c 0,-0.85245 -6e-4,-1.44669 -0.0384,-1.90932 C 20.2106,7.87773 20.2095,7.86494 20.2084,7.8523 l -4.284,4.2839 -0.0227,0.0227 -10e-5,1e-4 c -0.5747,0.5747 -1.0382,1.0383 -1.4443,1.383 -0.4181,0.355 -0.8243,0.6278 -1.2985,0.7818 -0.7531,0.2447 -1.5645,0.2447 -2.3176,0 C 10.367,14.1698 9.9608,13.897 9.54269,13.542 9.13661,13.1973 8.67303,12.7337 8.09829,12.1589 h -3e-5 l -0.0227,-0.0227 z"
           fill="#000000"
           fill-rule="evenodd"
           id="path1011"
           style="fill:#333333;fill-opacity:1" /></g></g><path
       sodipodi:type="star"
       style="fill:#666666;fill-opacity:1;stroke-width:0.264583"
       id="path8174"
       sodipodi:sides="6"
       sodipodi:cx="1948.4672"
       sodipodi:cy="429.66962"
       sodipodi:r1="112.68826"
       sodipodi:r2="56.344131"
       sodipodi:arg1="0.78539816"
       sodipodi:arg2="1.3089969"
       inkscape:flatsided="true"
       inkscape:rounded="0"
       inkscape:randomized="0"
       d="m 2028.1498,509.35225 -108.8485,29.16587 -79.6826,-79.68263 29.1658,-108.84851 108.8485,-29.16587 79.6827,79.68264 z"
       inkscape:transform-center-x="-2.2851654e-05"
       inkscape:transform-center-y="2.965739e-05"
       transform="matrix(0.20037434,-0.05369013,0.05369013,0.20037434,-344.71152,47.855214)" /><path
       sodipodi:type="star"
       style="fill:#ffffff;stroke-width:0.264583"
       id="path8176"
       sodipodi:sides="6"
       sodipodi:cx="1948.4672"
       sodipodi:cy="429.66962"
       sodipodi:r1="112.68826"
       sodipodi:r2="56.344131"
       sodipodi:arg1="0.78539816"
       sodipodi:arg2="1.3089969"
       inkscape:flatsided="true"
       inkscape:rounded="0"
       inkscape:randomized="0"
       d="m 2028.1498,509.35225 -108.8485,29.16587 -79.6826,-79.68263 29.1658,-108.84851 108.8485,-29.16587 79.6827,79.68264 z"
       inkscape:transform-center-x="6.4816261e-06"
       inkscape:transform-center-y="3.4039249e-05"
       transform="matrix(0.17373549,-0.04655227,0.04655227,0.17373549,-289.73972,45.393224)" /><g
       style="fill:#333333;fill-opacity:1"
       id="g8180"
       transform="matrix(2.1762521,0,0,2.1762521,51.370254,11.926499)"><path
         class="cls-1"
         d="M 14,12 V 6 H 5 v 6 h 4 v 1 H 7 v 1 h 5 V 13 H 10 V 12 Z M 6,11 V 7 h 7 v 4 z M 7,5 H 4 V 4 H 7 Z M 8,5 V 3 H 3 v 7 h 1 v 3 h 2 v 1 H 3 A 1,1 0 0 1 2,13 V 3 A 1,1 0 0 1 3,2 h 5 a 1,1 0 0 1 1,1 v 2 z"
         id="path8178"
         style="fill:#333333;fill-opacity:1" /></g><g
       id="g1983"
       transform="translate(-16.494236,54.286746)"><path
         sodipodi:type="star"
         style="fill:#666666;fill-opacity:1;stroke-width:0.264583"
         id="path8154-3"
         sodipodi:sides="6"
         sodipodi:cx="1948.4672"
         sodipodi:cy="429.66962"
         sodipodi:r1="112.68826"
         sodipodi:r2="56.344131"
         sodipodi:arg1="0.78539816"
         sodipodi:arg2="1.3089969"
         inkscape:flatsided="true"
         inkscape:rounded="0"
         inkscape:randomized="0"
         d="m 2028.1498,509.35225 -108.8485,29.16587 -79.6826,-79.68263 29.1658,-108.84851 108.8485,-29.16587 79.6827,79.68264 z"
         inkscape:transform-center-x="-2.2851654e-05"
         inkscape:transform-center-y="2.965739e-05"
         transform="matrix(0.20037434,-0.05369013,0.05369013,0.20037434,-283.59573,142.73747)" /><path
         sodipodi:type="star"
         style="fill:#ffffff;stroke-width:0.264583"
         id="path8156-6"
         sodipodi:sides="6"
         sodipodi:cx="1948.4672"
         sodipodi:cy="429.66962"
         sodipodi:r1="112.68826"
         sodipodi:r2="56.344131"
         sodipodi:arg1="0.78539816"
         sodipodi:arg2="1.3089969"
         inkscape:flatsided="true"
         inkscape:rounded="0"
         inkscape:randomized="0"
         d="m 2028.1498,509.35225 -108.8485,29.16587 -79.6826,-79.68263 29.1658,-108.84851 108.8485,-29.16587 79.6827,79.68264 z"
         inkscape:transform-center-x="6.4816261e-06"
         inkscape:transform-center-y="3.4039249e-05"
         transform="matrix(0.17373549,-0.04655227,0.04655227,0.17373549,-228.62393,140.27548)" /><g
         style="fill:#333333;fill-opacity:1"
         id="g1321"
         transform="matrix(0.05955138,0,0,0.05955138,112.49446,109.31529)"><g
           id="g1311"
           style="fill:#333333;fill-opacity:1">
	<g
   id="g1309"
   style="fill:#333333;fill-opacity:1">
		<path
   d="m 439.551,68.465 c 0.708,-7.046 -3.06,-13.559 -9.135,-16.595 L 330.246,1.786 C 319.035,-3.813 306.085,4.468 306.085,16.718 V 66.803 H 189.221 c -0.19,0 -0.375,0.022 -0.563,0.028 -46.263,0.396 -82.766,37.773 -82.911,83.179 l -0.514,16.962 H 55.661 c -9.206,0 -16.695,7.537 -16.695,16.695 V 311.66 H 22.271 c -9.22,0 -16.695,7.475 -16.695,16.695 0,9.22 7.475,16.695 16.695,16.695 11.143,0 273.899,0 283.814,0 v 150.254 c 0,9.22 7.475,16.695 16.695,16.695 h 66.78 c 9.22,0 16.695,-7.475 16.695,-16.695 V 345.05 h 50.085 c 0.003,0 0.006,0 0.009,0 30.564,-0.01 50.071,-36.191 50.073,-61.102 l 0.003,-133.672 C 506.424,109.932 477.653,76.186 439.551,68.465 Z M 339.474,43.731 385.618,66.802 339.474,89.874 Z m -132.131,156.631 -51.512,40.064 -51.513,-40.064 z m 31.962,111.299 H 72.355 v -93.86 l 73.225,56.953 c 6.029,4.69 14.471,4.689 20.499,0 l 73.225,-56.953 v 93.86 z m 0,-144.689 H 138.637 c 0.013,-0.415 0.499,-16.279 0.499,-16.695 0,-27.355 22.131,-50.114 50.07,-50.085 0.004,0 0.01,0 0.014,0 h 0.292 c 29.8,0.203 49.793,25.975 49.793,53.657 z m 133.559,311.639 h -33.39 v -133.56 h 33.39 z M 473.03,283.947 c -10e-4,11.964 -10.502,27.715 -16.695,27.715 h -183.64 c 0,-2.706 0,-156.026 0,-157.812 0,-19.982 -6.606,-38.727 -17.721,-53.657 h 51.111 c 0,12.778 0,102.482 0,116.864 0,9.22 7.475,16.695 16.695,16.695 9.22,0 16.695,-7.475 16.695,-16.695 V 127.205 L 393.5,100.193 h 29.45 c 27.617,0 50.085,22.468 50.085,50.085 z"
   id="path1307"
   style="fill:#333333;fill-opacity:1" />
	</g>
</g></g></g><g
       id="g1975"
       transform="translate(27.659246,54.286746)"><path
         sodipodi:type="star"
         style="fill:#666666;fill-opacity:1;stroke-width:0.264583"
         id="path1518"
         sodipodi:sides="6"
         sodipodi:cx="1948.4672"
         sodipodi:cy="429.66962"
         sodipodi:r1="112.68826"
         sodipodi:r2="56.344131"
         sodipodi:arg1="0.78539816"
         sodipodi:arg2="1.3089969"
         inkscape:flatsided="true"
         inkscape:rounded="0"
         inkscape:randomized="0"
         d="m 2028.1498,509.35225 -108.8485,29.16587 -79.6826,-79.68263 29.1658,-108.84851 108.8485,-29.16587 79.6827,79.68264 z"
         inkscape:transform-center-x="-2.2851654e-05"
         inkscape:transform-center-y="2.965739e-05"
         transform="matrix(0.20037434,-0.05369013,0.05369013,0.20037434,-239.7895,142.73747)" /><path
         sodipodi:type="star"
         style="fill:#ffffff;stroke-width:0.264583"
         id="path1520"
         sodipodi:sides="6"
         sodipodi:cx="1948.4672"
         sodipodi:cy="429.66962"
         sodipodi:r1="112.68826"
         sodipodi:r2="56.344131"
         sodipodi:arg1="0.78539816"
         sodipodi:arg2="1.3089969"
         inkscape:flatsided="true"
         inkscape:rounded="0"
         inkscape:randomized="0"
         d="m 2028.1498,509.35225 -108.8485,29.16587 -79.6826,-79.68263 29.1658,-108.84851 108.8485,-29.16587 79.6827,79.68264 z"
         inkscape:transform-center-x="6.4816261e-06"
         inkscape:transform-center-y="3.4039249e-05"
         transform="matrix(0.17373549,-0.04655227,0.04655227,0.17373549,-184.8177,140.27548)" /><g
         id="g1931"
         transform="translate(0,0.87764586)"><g
           style="fill:#333333;fill-opacity:1"
           id="g1555"
           transform="matrix(0.68642542,0,0,0.59739672,193.15369,81.365182)"><path
             d="m -28.370324,45.32456 c -0.200066,0.0071 -0.392702,0.07759 -0.550152,0.201229 l -21.740179,17.014055 c -0.992445,0.777786 0.174317,2.265777 1.166762,1.487991 l 1.307069,-1.022763 v 24.854624 c 5.2e-5,0.522012 0.423214,0.945173 0.945225,0.945225 h 37.8090104 c 0.522012,-5.2e-5 0.945173,-0.423213 0.945225,-0.945225 V 63.005072 l 1.307069,1.022763 c 0.99204,0.778229 2.158804,-0.709761 1.166763,-1.487991 L -27.753712,45.525789 c -0.175374,-0.137697 -0.393776,-0.208972 -0.616612,-0.201229 z m 0.03323,2.145218 17.959279,14.054687 V 86.914471 H -46.296373 V 61.524465 Z"
             id="path1546"
             style="fill:#333333;fill-opacity:1;stroke-width:0.945225"
             sodipodi:nodetypes="cccccccccccccccccccc" /></g><g
           style="fill:#333333;fill-opacity:1"
           id="g1777"
           transform="matrix(0.96473571,0,0,0.96473571,162.12548,113.1391)"><path
             clip-rule="evenodd"
             d="M 7.8,4.25 H 7.7679 C 6.95506,4.24999 6.29944,4.24999 5.76853,4.29336 5.2219,4.33803 4.74175,4.43239 4.29754,4.65873 3.59193,5.01825 3.01825,5.59193 2.65873,6.29754 2.43239,6.74175 2.33803,7.2219 2.29336,7.76853 2.24999,8.29944 2.24999,8.95505 2.25,9.76788 v 2e-5 0.0321 4.4 0.0321 c -1e-5,0.8129 -1e-5,1.4685 0.04336,1.9994 0.04467,0.5466 0.13903,1.0267 0.36537,1.471 0.35952,0.7056 0.9332,1.2792 1.63881,1.6388 0.44421,0.2263 0.92436,0.3207 1.47099,0.3653 C 6.29944,19.75 6.95505,19.75 7.76788,19.75 H 7.8 h 8.4 0.0321 c 0.8129,0 1.4685,0 1.9994,-0.0434 0.5466,-0.0446 1.0267,-0.139 1.471,-0.3653 0.7056,-0.3596 1.2792,-0.9332 1.6388,-1.6388 0.2263,-0.4443 0.3207,-0.9244 0.3653,-1.471 C 21.75,15.7006 21.75,15.045 21.75,14.2321 V 14.2 9.8 9.76788 c 0,-0.81283 0,-1.46844 -0.0434,-1.99935 C 21.662,7.2219 21.5676,6.74175 21.3413,6.29754 20.9817,5.59193 20.4081,5.01825 19.7025,4.65873 19.2582,4.43239 18.7781,4.33803 18.2315,4.29336 17.7006,4.24999 17.0449,4.24999 16.2321,4.25 H 16.2 Z M 4.97852,5.99524 C 5.17604,5.8946 5.43681,5.82547 5.89068,5.78838 6.35331,5.75058 6.94755,5.75 7.8,5.75 h 8.4 c 0.8525,0 1.4467,5.8e-4 1.9093,0.03838 0.4539,0.03709 0.7147,0.10622 0.9122,0.20686 0.2021,0.10296 0.3861,0.2352 0.5467,0.39135 -0.0346,0.02442 -0.0676,0.05211 -0.0985,0.08308 l -4.6059,4.60593 c -0.6028,0.6027 -1.0234,1.0225 -1.3773,1.3229 -0.3471,0.2947 -0.5804,0.4302 -0.7912,0.4987 -0.4519,0.1469 -0.9387,0.1469 -1.3906,0 -0.2108,-0.0685 -0.4441,-0.204 -0.7912,-0.4987 C 10.1596,12.0981 9.73899,11.6783 9.13622,11.0756 L 4.53033,6.46967 C 4.49936,6.4387 4.46636,6.41101 4.43175,6.38659 4.5924,6.23044 4.77644,6.0982 4.97852,5.99524 Z M 3.79164,7.85229 C 3.79052,7.86493 3.78944,7.87773 3.78838,7.89068 3.75058,8.35331 3.75,8.94755 3.75,9.8 v 4.4 c 0,0.8525 5.8e-4,1.4467 0.03838,1.9093 0.03709,0.4539 0.10622,0.7147 0.20686,0.9122 0.21571,0.4233 0.55992,0.7675 0.98328,0.9833 0.19752,0.1006 0.45829,0.1697 0.91216,0.2068 C 6.35331,18.2494 6.94755,18.25 7.8,18.25 h 8.4 c 0.8525,0 1.4467,-6e-4 1.9093,-0.0384 0.4539,-0.0371 0.7147,-0.1062 0.9122,-0.2068 0.4233,-0.2158 0.7675,-0.56 0.9833,-0.9833 0.1006,-0.1975 0.1697,-0.4583 0.2068,-0.9122 C 20.2494,15.6467 20.25,15.0525 20.25,14.2 V 9.8 c 0,-0.85245 -6e-4,-1.44669 -0.0384,-1.90932 C 20.2106,7.87773 20.2095,7.86494 20.2084,7.8523 l -4.284,4.2839 -0.0227,0.0227 -10e-5,1e-4 c -0.5747,0.5747 -1.0382,1.0383 -1.4443,1.383 -0.4181,0.355 -0.8243,0.6278 -1.2985,0.7818 -0.7531,0.2447 -1.5645,0.2447 -2.3176,0 C 10.367,14.1698 9.9608,13.897 9.54269,13.542 9.13661,13.1973 8.67303,12.7337 8.09829,12.1589 h -3e-5 l -0.0227,-0.0227 z"
             fill="#000000"
             fill-rule="evenodd"
             id="path1775"
             style="fill:#333333;fill-opacity:1" /></g></g></g><g
       id="g4125"
       transform="translate(-368.06349,-12.625784)"><path
         sodipodi:type="star"
         style="fill:#666666;fill-opacity:1;stroke-width:0.264583"
         id="path8154-35-2"
         sodipodi:sides="6"
         sodipodi:cx="1948.4672"
         sodipodi:cy="429.66962"
         sodipodi:r1="112.68826"
         sodipodi:r2="56.344131"
         sodipodi:arg1="0.78539816"
         sodipodi:arg2="1.3089969"
         inkscape:flatsided="true"
         inkscape:rounded="0"
         inkscape:randomized="0"
         d="m 2028.1498,509.35225 -108.8485,29.16587 -79.6826,-79.68263 29.1658,-108.84851 108.8485,-29.16587 79.6827,79.68264 z"
         inkscape:transform-center-x="-2.2851654e-05"
         inkscape:transform-center-y="2.965739e-05"
         transform="matrix(0.20037434,-0.05369013,0.05369013,0.20037434,-19.98619,209.65)" /><path
         sodipodi:type="star"
         style="fill:#ffffff;stroke-width:0.264583"
         id="path8156-62-7"
         sodipodi:sides="6"
         sodipodi:cx="1948.4672"
         sodipodi:cy="429.66962"
         sodipodi:r1="112.68826"
         sodipodi:r2="56.344131"
         sodipodi:arg1="0.78539816"
         sodipodi:arg2="1.3089969"
         inkscape:flatsided="true"
         inkscape:rounded="0"
         inkscape:randomized="0"
         d="m 2028.1498,509.35225 -108.8485,29.16587 -79.6826,-79.68263 29.1658,-108.84851 108.8485,-29.16587 79.6827,79.68264 z"
         inkscape:transform-center-x="6.4816261e-06"
         inkscape:transform-center-y="3.4039249e-05"
         transform="matrix(0.17373549,-0.04655227,0.04655227,0.17373549,34.98561,207.18801)" /><path
         id="circle2371"
         style="fill:#333333;fill-opacity:1;stroke-width:0.364975"
         class="cls-3"
         d="m 393.40028,172.73364 a 5.4454161,5.4454161 0 0 0 -5.40484,4.81625 11.069669,11.069669 0 0 0 -5.66477,9.65522 v 1.62781 a 7.4673734,7.4673734 0 0 0 0.27905,2.01073 2.5548199,2.5548199 0 0 0 -0.88832,1.93425 2.5548199,2.5548199 0 0 0 2.55437,2.55488 2.5548199,2.5548199 0 0 0 0.0305,-0.001 9.1243566,9.1243566 0 0 0 7.11584,8.17159 v 0.58911 h -6.0327 a 3.6497426,3.6497426 0 0 0 -1.82263,0.4992 l 9.93893,5.73815 9.83195,-5.67614 a 3.6497426,3.6497426 0 0 0 -1.90789,-0.56121 H 395.164 v -0.54415 a 9.1243566,9.1243566 0 0 0 7.33082,-8.21655 2.5548199,2.5548199 0 0 0 0.03,0.001 2.5548199,2.5548199 0 0 0 2.55489,-2.55488 2.5548199,2.5548199 0 0 0 -0.88832,-1.9358 7.4673734,7.4673734 0 0 0 0.27854,-2.00918 v -1.62781 a 11.069669,11.069669 0 0 0 -5.66116,-9.65781 5.4454161,5.4454161 0 0 0 -5.40845,-4.81366 z" /><path
         id="path3135"
         style="fill:#ffffff;stroke-width:0.334206"
         class="cls-9"
         d="m 390.74334,187.18384 a 3.5730979,3.5730979 0 0 1 -3.04389,1.70443 h -2.64309 a 8.3551432,8.3551432 0 0 0 -0.0111,0.26723 v 1.3934 a 2.5548199,2.1878869 0 0 0 -0.32255,-0.0176 2.5548199,2.1878869 0 0 0 -2.55482,2.18791 2.5548199,2.1878869 0 0 0 2.55482,2.1879 2.5548199,2.1878869 0 0 0 0.33099,-0.0194 8.3551427,8.3551427 0 0 0 6.73298,7.96545 v 1.25243 c 0,0.82937 0.66771,1.49708 1.49707,1.49708 0.82936,0 1.49697,-0.66771 1.49697,-1.49708 v -1.2035 a 8.3551427,8.3551427 0 0 0 6.97021,-7.97993 2.5548199,2.1878869 0 0 0 0.21761,0.009 2.5548199,2.1878869 0 0 0 2.55482,-2.1879 2.5548199,2.1878869 0 0 0 -2.55482,-2.18791 2.5548199,2.1878869 0 0 0 -0.21305,0.008 v -0.74831 h -6.84783 a 3.6497426,3.6497426 0 0 1 -1.09492,-0.16789 c -0.86134,-0.27373 -2.33949,-0.94894 -3.06943,-2.46357 z" /><path
         class="cls-13"
         d="m 393.40041,201.3243 c 1.82487,0 2.55482,-1.09493 2.55482,-1.09493 h -5.10964 c 0,0 0.72995,1.09493 2.55482,1.09493 z"
         id="path2544"
         style="fill:#333333;fill-opacity:1;stroke-width:0.364975" /><path
         style="color:#000000;fill:#ffffff;stroke-width:0.220709;stroke-linecap:round;stroke-miterlimit:10;-inkscape-stroke:none"
         d="m 393.76808,185.53243 a 0.10872455,0.10872455 0 0 0 -0.0509,0.14527 c 0.46832,0.97007 1.07019,1.54676 1.70576,1.87516 0.63556,0.3284 1.30025,0.40909 1.89585,0.40909 h 4.37969 a 0.10872455,0.10872455 0 0 0 0.10906,-0.10906 0.10872455,0.10872455 0 0 0 -0.10906,-0.10863 h -4.37969 c -0.57596,0 -1.20279,-0.0779 -1.79628,-0.38452 -0.59348,-0.30665 -1.15777,-0.84136 -1.60919,-1.77645 a 0.10872455,0.10872455 0 0 0 -0.14527,-0.0509 z"
         id="path3338" /><path
         id="path3408"
         style="fill:#333333;fill-opacity:1;stroke-width:0.636275;stroke-linecap:round;stroke-linejoin:round;stroke-dasharray:0.636275, 0.636275;paint-order:markers fill stroke"
         d="m 388.96261,190.84259 a 2.8288774,2.8288774 0 0 0 -2.82889,2.82889 2.8288774,2.8288774 0 0 0 2.82889,2.8289 2.8288774,2.8288774 0 0 0 2.80996,-2.5035 h 3.14801 a 2.8288774,2.8288774 0 0 0 2.80814,2.5035 2.8288774,2.8288774 0 0 0 2.82889,-2.8289 2.8288774,2.8288774 0 0 0 -2.82889,-2.82889 2.8288774,2.8288774 0 0 0 -2.81213,2.53885 h -3.13992 a 2.8288774,2.8288774 0 0 0 -2.81406,-2.53885 z m 0,0.4764 a 2.3525354,2.3525354 0 0 1 2.35248,2.35249 2.3525354,2.3525354 0 0 1 -2.35248,2.3526 2.3525354,2.3525354 0 0 1 -2.35261,-2.3526 2.3525354,2.3525354 0 0 1 2.35261,-2.35249 z m 8.76611,0 a 2.3525354,2.3525354 0 0 1 2.35249,2.35249 2.3525354,2.3525354 0 0 1 -2.35249,2.3526 2.3525354,2.3525354 0 0 1 -2.3526,-2.3526 2.3525354,2.3525354 0 0 1 2.3526,-2.35249 z m -9.48443,3.19262 c -0.13679,0 -0.24692,0.11013 -0.24692,0.24693 0,0.13679 0.11013,0.24692 0.24692,0.24692 h 1.48419 c 0.1368,0 0.24693,-0.11013 0.24693,-0.24692 0,-0.1368 -0.11013,-0.24693 -0.24693,-0.24693 z m 8.75311,0 c -0.13679,0 -0.24693,0.11013 -0.24693,0.24693 0,0.13679 0.11014,0.24692 0.24693,0.24692 h 1.48431 c 0.13679,0 0.24681,-0.11013 0.24681,-0.24692 0,-0.1368 -0.11002,-0.24693 -0.24681,-0.24693 z" /><rect
         style="fill:#333333;fill-opacity:1;stroke-width:0.629643;stroke-linecap:round;stroke-linejoin:round;stroke-dasharray:0.629643, 0.629643;paint-order:markers fill stroke"
         id="rect3479"
         width="1.0535996"
         height="3.4673204"
         x="392.81885"
         y="194.81711"
         rx="2.3868539"
         ry="2.3868539" /><path
         id="rect3550"
         style="fill:#333333;fill-opacity:1;stroke-width:0.364933;stroke-linecap:round;stroke-linejoin:round;stroke-dasharray:0.364933, 0.364933;paint-order:markers fill stroke"
         d="m 391.14776,197.79466 c -0.0581,1.5e-4 -0.11552,0.0285 -0.15135,0.081 l -1.71378,2.50897 c -0.0573,0.0839 -0.037,0.19679 0.0454,0.25309 0.0824,0.0563 0.19485,0.0341 0.25218,-0.0498 l 1.71378,-2.50897 c 0.0573,-0.0839 0.0371,-0.1969 -0.0453,-0.2532 -0.0309,-0.0211 -0.0661,-0.0311 -0.10094,-0.031 z m 4.88632,0 c -0.0349,-8e-5 -0.0699,0.01 -0.10083,0.031 -0.0824,0.0563 -0.10272,0.16927 -0.0454,0.2532 l 1.71378,2.50897 c 0.0573,0.0839 0.16986,0.10614 0.25229,0.0498 0.0824,-0.0563 0.10261,-0.16915 0.0453,-0.25309 l -1.71378,-2.50908 c -0.0358,-0.0525 -0.0932,-0.0807 -0.15135,-0.0809 z" /><rect
         style="fill:#333333;fill-opacity:1;stroke-width:0.662127;stroke-linecap:round;stroke-linejoin:round;stroke-dasharray:0.662127, 0.662127;paint-order:markers fill stroke"
         id="rect3557"
         width="3.8817766"
         height="0.60107046"
         x="385.62421"
         y="190.55142"
         rx="1.3616817"
         ry="1.3616817" /><rect
         style="fill:#333333;fill-opacity:1;stroke-width:0.662127;stroke-linecap:round;stroke-linejoin:round;stroke-dasharray:0.662127, 0.662127;paint-order:markers fill stroke"
         id="rect3559"
         width="3.8817766"
         height="0.60107046"
         x="396.56216"
         y="190.55142"
         rx="1.3616817"
         ry="1.3616817" /></g><g
       id="g3978"
       transform="matrix(0.22070885,0,0,0.22070885,326.64536,54.784309)"><path
         id="path3960"
         style="fill:#333333;fill-opacity:1;stroke-width:1.65365"
         class="cls-3"
         d="m 527.46092,106.44071 a 24.672396,24.672396 0 0 0 -24.48998,21.82089 50.155077,50.155077 0 0 0 -25.6651,43.74616 v 7.37526 a 33.833593,33.833593 0 0 0 1.26504,9.11159 11.575521,11.575521 0 0 0 -4.02662,8.76433 11.575521,11.575521 0 0 0 11.57552,11.57552 11.575521,11.575521 0 0 0 0.13642,-0.005 41.341145,41.341145 0 0 0 32.24093,37.02255 v 2.67012 H 491.1634 a 16.536458,16.536458 0 0 0 -15.57735,10.9802 l -5.50664,17.01602 a 98.722654,98.722654 0 0 0 28.51041,14.00483 l -0.002,0.0181 a 99.466795,99.466795 0 0 0 0.49919,0.14056 98.722654,98.722654 0 0 0 1.76423,0.49764 99.466795,99.466795 0 0 0 2.31149,0.61753 98.722654,98.722654 0 0 0 2.1053,0.50592 99.466795,99.466795 0 0 0 2.019,0.4377 98.722654,98.722654 0 0 0 2.27841,0.45268 99.466795,99.466795 0 0 0 1.85725,0.31058 98.722654,98.722654 0 0 0 2.40089,0.38034 99.466795,99.466795 0 0 0 3.88762,0.46095 98.722654,98.722654 0 0 0 2.04587,0.16123 99.466795,99.466795 0 0 0 2.33732,0.16433 98.722654,98.722654 0 0 0 1.91048,0.0749 99.466795,99.466795 0 0 0 2.59157,0.0589 98.722654,98.722654 0 0 0 0.86403,0.0196 98.722654,98.722654 0 0 0 0.86403,-0.0196 99.466795,99.466795 0 0 0 2.59209,-0.0589 98.722654,98.722654 0 0 0 1.90893,-0.0749 99.466795,99.466795 0 0 0 2.33732,-0.16433 98.722654,98.722654 0 0 0 2.04639,-0.16123 99.466795,99.466795 0 0 0 3.88814,-0.46095 98.722654,98.722654 0 0 0 2.40088,-0.38034 99.466795,99.466795 0 0 0 1.85725,-0.31058 98.722654,98.722654 0 0 0 2.27842,-0.45268 99.466795,99.466795 0 0 0 2.019,-0.4377 98.722654,98.722654 0 0 0 2.10426,-0.5054 99.466795,99.466795 0 0 0 2.31924,-0.62012 98.722654,98.722654 0 0 0 1.75286,-0.49402 99.466795,99.466795 0 0 0 0.50385,-0.14211 l -10e-4,-0.0181 a 98.722654,98.722654 0 0 0 28.5104,-14.00483 l -5.50664,-17.01602 a 16.536458,16.536458 0 0 0 -15.49466,-10.9802 h -28.39 v -2.466 a 41.341145,41.341145 0 0 0 33.21451,-37.22667 11.575521,11.575521 0 0 0 0.13643,0.005 11.575521,11.575521 0 0 0 11.57552,-11.57552 11.575521,11.575521 0 0 0 -4.02404,-8.77156 33.833593,33.833593 0 0 0 1.26245,-9.10436 v -7.37526 a 50.155077,50.155077 0 0 0 -25.65115,-43.75753 24.672396,24.672396 0 0 0 -24.50393,-21.80952 z" /><path
         id="path3962"
         style="fill:#ffffff;stroke-width:1.51424"
         class="cls-9"
         d="m 515.42229,171.91199 a 16.189192,16.189192 0 0 1 -13.79141,7.72252 h -11.9755 a 37.85595,37.85595 0 0 0 -0.0501,1.21078 v 6.31331 a 11.575521,9.9130001 0 0 0 -1.46141,-0.0796 11.575521,9.9130001 0 0 0 -11.57552,9.91309 11.575521,9.9130001 0 0 0 11.57552,9.91309 11.575521,9.9130001 0 0 0 1.49965,-0.0879 37.855948,37.855948 0 0 0 30.50615,36.0903 v 5.67459 c 0,3.75772 3.02533,6.78305 6.78304,6.78305 3.75771,0 6.78254,-3.02533 6.78254,-6.78305 v -5.45289 a 37.855948,37.855948 0 0 0 31.58101,-36.15594 11.575521,9.9130001 0 0 0 0.98599,0.0398 11.575521,9.9130001 0 0 0 11.57552,-9.91309 11.575521,9.9130001 0 0 0 -11.57552,-9.91309 11.575521,9.9130001 0 0 0 -0.96532,0.0382 v -3.39049 H 534.2904 a 16.536458,16.536458 0 0 1 -4.96093,-0.76067 c -3.9026,-1.24023 -10.5999,-4.29951 -13.90716,-11.16211 z" /><path
         class="cls-13"
         d="m 527.46109,235.98037 c 8.26823,0 11.57551,-4.96094 11.57551,-4.96094 h -23.15103 c 0,0 3.30728,4.96094 11.57552,4.96094 z"
         id="path3964"
         style="fill:#333333;fill-opacity:1;stroke-width:1.65365" /><path
         style="color:#000000;fill:#ffffff;stroke-linecap:round;stroke-miterlimit:10;-inkscape-stroke:none"
         d="m 529.12695,164.42969 a 0.49261525,0.49261525 0 0 0 -0.23047,0.6582 c 2.12186,4.39527 4.84886,7.00816 7.72852,8.49609 2.87966,1.48793 5.89124,1.85352 8.58984,1.85352 h 19.84375 a 0.49261525,0.49261525 0 0 0 0.49414,-0.49414 0.49261525,0.49261525 0 0 0 -0.49414,-0.49219 h -19.84375 c -2.60959,0 -5.44968,-0.35278 -8.13867,-1.74219 -2.68899,-1.38941 -5.24569,-3.81207 -7.29101,-8.04882 a 0.49261525,0.49261525 0 0 0 -0.65821,-0.23047 z"
         id="path3966" /><path
         id="path3968"
         style="fill:#333333;fill-opacity:1;stroke-width:2.88287;stroke-linecap:round;stroke-linejoin:round;stroke-dasharray:2.88287, 2.88287;paint-order:markers fill stroke"
         d="m 507.35404,188.48927 a 12.817236,12.817236 0 0 0 -12.8173,12.81731 12.817236,12.817236 0 0 0 12.8173,12.8173 12.817236,12.817236 0 0 0 12.73152,-11.34298 h 14.26322 a 12.817236,12.817236 0 0 0 12.72325,11.34298 12.817236,12.817236 0 0 0 12.81731,-12.8173 12.817236,12.817236 0 0 0 -12.81731,-12.81731 12.817236,12.817236 0 0 0 -12.74134,11.50317 h -14.22652 a 12.817236,12.817236 0 0 0 -12.75013,-11.50317 z m 0,2.15852 a 10.658999,10.658999 0 0 1 10.65878,10.65879 10.658999,10.658999 0 0 1 -10.65878,10.65929 10.658999,10.658999 0 0 1 -10.6593,-10.65929 10.658999,10.658999 0 0 1 10.6593,-10.65879 z m 39.71799,0 a 10.658999,10.658999 0 0 1 10.65878,10.65879 10.658999,10.658999 0 0 1 -10.65878,10.65929 10.658999,10.658999 0 0 1 -10.6593,-10.65929 10.658999,10.658999 0 0 1 10.6593,-10.65879 z m -42.97257,14.46527 c -0.61979,0 -1.11879,0.49901 -1.11879,1.1188 0,0.61978 0.499,1.11879 1.11879,1.11879 h 6.72465 c 0.61979,0 1.1188,-0.49901 1.1188,-1.11879 0,-0.61979 -0.49901,-1.1188 -1.1188,-1.1188 z m 39.65908,0 c -0.61979,0 -1.1188,0.49901 -1.1188,1.1188 0,0.61978 0.49901,1.11879 1.1188,1.11879 h 6.72517 c 0.61979,0 1.11828,-0.49901 1.11828,-1.11879 0,-0.61979 -0.49849,-1.1188 -1.11828,-1.1188 z" /><rect
         style="fill:#333333;fill-opacity:1;stroke-width:2.85282;stroke-linecap:round;stroke-linejoin:round;stroke-dasharray:2.85282, 2.85282;paint-order:markers fill stroke"
         id="rect3970"
         width="4.7737079"
         height="15.709929"
         x="524.82617"
         y="206.49722"
         rx="10.814491"
         ry="10.814491" /><path
         id="path3972"
         style="fill:#333333;fill-opacity:1;stroke-width:1.65346;stroke-linecap:round;stroke-linejoin:round;stroke-dasharray:1.65346, 1.65346;paint-order:markers fill stroke"
         d="m 517.25465,219.98812 c -0.26335,6.7e-4 -0.52341,0.12923 -0.68575,0.3669 l -7.7649,11.36778 c -0.25974,0.38028 -0.1678,0.8916 0.20568,1.14671 0.37348,0.25509 0.88282,0.15445 1.14257,-0.22583 l 7.7649,-11.36778 c 0.25974,-0.38028 0.16831,-0.89212 -0.20516,-1.14722 -0.14006,-0.0957 -0.29932,-0.14095 -0.45734,-0.14056 z m 22.13922,0 c -0.15802,-3.9e-4 -0.31677,0.0449 -0.45683,0.14056 -0.37347,0.25511 -0.46541,0.76694 -0.20566,1.14722 l 7.76489,11.36778 c 0.25975,0.38027 0.76961,0.48093 1.14308,0.22583 0.37349,-0.25511 0.46491,-0.76642 0.20516,-1.1467 l -7.7649,-11.3683 c -0.16234,-0.23768 -0.42239,-0.36572 -0.68574,-0.36639 z" /><rect
         style="fill:#333333;fill-opacity:1;stroke-width:3;stroke-linecap:round;stroke-linejoin:round;stroke-dasharray:3, 3;paint-order:markers fill stroke"
         id="rect3974"
         width="17.58777"
         height="2.7233636"
         x="492.22827"
         y="187.17004"
         rx="6.1695838"
         ry="6.1695838" /><rect
         style="fill:#333333;fill-opacity:1;stroke-width:3;stroke-linecap:round;stroke-linejoin:round;stroke-dasharray:3, 3;paint-order:markers fill stroke"
         id="rect3976"
         width="17.58777"
         height="2.7233636"
         x="541.7865"
         y="187.17004"
         rx="6.1695838"
         ry="6.1695838" /></g><g
       id="g4375"
       transform="translate(-22.68829,-143.05276)"><path
         sodipodi:type="star"
         style="fill:#666666;fill-opacity:1;stroke-width:0.264583"
         id="path4353"
         sodipodi:sides="6"
         sodipodi:cx="1948.4672"
         sodipodi:cy="429.66962"
         sodipodi:r1="112.68826"
         sodipodi:r2="56.344131"
         sodipodi:arg1="0.78539816"
         sodipodi:arg2="1.3089969"
         inkscape:flatsided="true"
         inkscape:rounded="0"
         inkscape:randomized="0"
         d="m 2028.1498,509.35225 -108.8485,29.16587 -79.6826,-79.68263 29.1658,-108.84851 108.8485,-29.16587 79.6827,79.68264 z"
         inkscape:transform-center-x="-2.2851654e-05"
         inkscape:transform-center-y="2.965739e-05"
         transform="matrix(0.20037434,-0.05369013,0.05369013,0.20037434,-19.98619,209.65)" /><path
         sodipodi:type="star"
         style="fill:#ffffff;stroke-width:0.264583"
         id="path4355"
         sodipodi:sides="6"
         sodipodi:cx="1948.4672"
         sodipodi:cy="429.66962"
         sodipodi:r1="112.68826"
         sodipodi:r2="56.344131"
         sodipodi:arg1="0.78539816"
         sodipodi:arg2="1.3089969"
         inkscape:flatsided="true"
         inkscape:rounded="0"
         inkscape:randomized="0"
         d="m 2028.1498,509.35225 -108.8485,29.16587 -79.6826,-79.68263 29.1658,-108.84851 108.8485,-29.16587 79.6827,79.68264 z"
         inkscape:transform-center-x="6.4816261e-06"
         inkscape:transform-center-y="3.4039249e-05"
         transform="matrix(0.17373549,-0.04655227,0.04655227,0.17373549,34.98561,207.18801)" /><path
         id="path4357"
         style="fill:#333333;fill-opacity:1;stroke-width:0.364975"
         class="cls-3"
         d="m 393.40028,172.73364 a 5.4454161,5.4454161 0 0 0 -5.40484,4.81625 11.069669,11.069669 0 0 0 -5.66477,9.65522 v 1.62781 a 7.4673734,7.4673734 0 0 0 0.27905,2.01073 2.5548199,2.5548199 0 0 0 -0.88832,1.93425 2.5548199,2.5548199 0 0 0 2.55437,2.55488 2.5548199,2.5548199 0 0 0 0.0305,-0.001 9.1243566,9.1243566 0 0 0 7.11584,8.17159 v 0.58911 h -6.0327 a 3.6497426,3.6497426 0 0 0 -1.82263,0.4992 l 9.93893,5.73815 9.83195,-5.67614 a 3.6497426,3.6497426 0 0 0 -1.90789,-0.56121 H 395.164 v -0.54415 a 9.1243566,9.1243566 0 0 0 7.33082,-8.21655 2.5548199,2.5548199 0 0 0 0.03,0.001 2.5548199,2.5548199 0 0 0 2.55489,-2.55488 2.5548199,2.5548199 0 0 0 -0.88832,-1.9358 7.4673734,7.4673734 0 0 0 0.27854,-2.00918 v -1.62781 a 11.069669,11.069669 0 0 0 -5.66116,-9.65781 5.4454161,5.4454161 0 0 0 -5.40845,-4.81366 z" /><path
         id="path4359"
         style="fill:#ffffff;stroke-width:0.334206"
         class="cls-9"
         d="m 390.74334,187.18384 a 3.5730979,3.5730979 0 0 1 -3.04389,1.70443 h -2.64309 a 8.3551432,8.3551432 0 0 0 -0.0111,0.26723 v 1.3934 a 2.5548199,2.1878869 0 0 0 -0.32255,-0.0176 2.5548199,2.1878869 0 0 0 -2.55482,2.18791 2.5548199,2.1878869 0 0 0 2.55482,2.1879 2.5548199,2.1878869 0 0 0 0.33099,-0.0194 8.3551427,8.3551427 0 0 0 6.73298,7.96545 v 1.25243 c 0,0.82937 0.66771,1.49708 1.49707,1.49708 0.82936,0 1.49697,-0.66771 1.49697,-1.49708 v -1.2035 a 8.3551427,8.3551427 0 0 0 6.97021,-7.97993 2.5548199,2.1878869 0 0 0 0.21761,0.009 2.5548199,2.1878869 0 0 0 2.55482,-2.1879 2.5548199,2.1878869 0 0 0 -2.55482,-2.18791 2.5548199,2.1878869 0 0 0 -0.21305,0.008 v -0.74831 h -6.84783 a 3.6497426,3.6497426 0 0 1 -1.09492,-0.16789 c -0.86134,-0.27373 -2.33949,-0.94894 -3.06943,-2.46357 z" /><path
         class="cls-13"
         d="m 393.40041,201.3243 c 1.82487,0 2.55482,-1.09493 2.55482,-1.09493 h -5.10964 c 0,0 0.72995,1.09493 2.55482,1.09493 z"
         id="path4361"
         style="fill:#333333;fill-opacity:1;stroke-width:0.364975" /><path
         style="color:#000000;fill:#ffffff;stroke-width:0.220709;stroke-linecap:round;stroke-miterlimit:10;-inkscape-stroke:none"
         d="m 393.76808,185.53243 a 0.10872455,0.10872455 0 0 0 -0.0509,0.14527 c 0.46832,0.97007 1.07019,1.54676 1.70576,1.87516 0.63556,0.3284 1.30025,0.40909 1.89585,0.40909 h 4.37969 a 0.10872455,0.10872455 0 0 0 0.10906,-0.10906 0.10872455,0.10872455 0 0 0 -0.10906,-0.10863 h -4.37969 c -0.57596,0 -1.20279,-0.0779 -1.79628,-0.38452 -0.59348,-0.30665 -1.15777,-0.84136 -1.60919,-1.77645 a 0.10872455,0.10872455 0 0 0 -0.14527,-0.0509 z"
         id="path4363" /><path
         id="path4365"
         style="fill:#333333;fill-opacity:1;stroke-width:0.636275;stroke-linecap:round;stroke-linejoin:round;stroke-dasharray:0.636275, 0.636275;paint-order:markers fill stroke"
         d="m 388.96261,190.84259 a 2.8288774,2.8288774 0 0 0 -2.82889,2.82889 2.8288774,2.8288774 0 0 0 2.82889,2.8289 2.8288774,2.8288774 0 0 0 2.80996,-2.5035 h 3.14801 a 2.8288774,2.8288774 0 0 0 2.80814,2.5035 2.8288774,2.8288774 0 0 0 2.82889,-2.8289 2.8288774,2.8288774 0 0 0 -2.82889,-2.82889 2.8288774,2.8288774 0 0 0 -2.81213,2.53885 h -3.13992 a 2.8288774,2.8288774 0 0 0 -2.81406,-2.53885 z m 0,0.4764 a 2.3525354,2.3525354 0 0 1 2.35248,2.35249 2.3525354,2.3525354 0 0 1 -2.35248,2.3526 2.3525354,2.3525354 0 0 1 -2.35261,-2.3526 2.3525354,2.3525354 0 0 1 2.35261,-2.35249 z m 8.76611,0 a 2.3525354,2.3525354 0 0 1 2.35249,2.35249 2.3525354,2.3525354 0 0 1 -2.35249,2.3526 2.3525354,2.3525354 0 0 1 -2.3526,-2.3526 2.3525354,2.3525354 0 0 1 2.3526,-2.35249 z m -9.48443,3.19262 c -0.13679,0 -0.24692,0.11013 -0.24692,0.24693 0,0.13679 0.11013,0.24692 0.24692,0.24692 h 1.48419 c 0.1368,0 0.24693,-0.11013 0.24693,-0.24692 0,-0.1368 -0.11013,-0.24693 -0.24693,-0.24693 z m 8.75311,0 c -0.13679,0 -0.24693,0.11013 -0.24693,0.24693 0,0.13679 0.11014,0.24692 0.24693,0.24692 h 1.48431 c 0.13679,0 0.24681,-0.11013 0.24681,-0.24692 0,-0.1368 -0.11002,-0.24693 -0.24681,-0.24693 z" /><rect
         style="fill:#333333;fill-opacity:1;stroke-width:0.629643;stroke-linecap:round;stroke-linejoin:round;stroke-dasharray:0.629643, 0.629643;paint-order:markers fill stroke"
         id="rect4367"
         width="1.0535996"
         height="3.4673204"
         x="392.81885"
         y="194.81711"
         rx="2.3868539"
         ry="2.3868539" /><path
         id="path4369"
         style="fill:#333333;fill-opacity:1;stroke-width:0.364933;stroke-linecap:round;stroke-linejoin:round;stroke-dasharray:0.364933, 0.364933;paint-order:markers fill stroke"
         d="m 391.14776,197.79466 c -0.0581,1.5e-4 -0.11552,0.0285 -0.15135,0.081 l -1.71378,2.50897 c -0.0573,0.0839 -0.037,0.19679 0.0454,0.25309 0.0824,0.0563 0.19485,0.0341 0.25218,-0.0498 l 1.71378,-2.50897 c 0.0573,-0.0839 0.0371,-0.1969 -0.0453,-0.2532 -0.0309,-0.0211 -0.0661,-0.0311 -0.10094,-0.031 z m 4.88632,0 c -0.0349,-8e-5 -0.0699,0.01 -0.10083,0.031 -0.0824,0.0563 -0.10272,0.16927 -0.0454,0.2532 l 1.71378,2.50897 c 0.0573,0.0839 0.16986,0.10614 0.25229,0.0498 0.0824,-0.0563 0.10261,-0.16915 0.0453,-0.25309 l -1.71378,-2.50908 c -0.0358,-0.0525 -0.0932,-0.0807 -0.15135,-0.0809 z" /><rect
         style="fill:#333333;fill-opacity:1;stroke-width:0.662127;stroke-linecap:round;stroke-linejoin:round;stroke-dasharray:0.662127, 0.662127;paint-order:markers fill stroke"
         id="rect4371"
         width="3.8817766"
         height="0.60107046"
         x="385.62421"
         y="190.55142"
         rx="1.3616817"
         ry="1.3616817" /><rect
         style="fill:#333333;fill-opacity:1;stroke-width:0.662127;stroke-linecap:round;stroke-linejoin:round;stroke-dasharray:0.662127, 0.662127;paint-order:markers fill stroke"
         id="rect4373"
         width="3.8817766"
         height="0.60107046"
         x="396.56216"
         y="190.55142"
         rx="1.3616817"
         ry="1.3616817" /></g><g
       id="g5325"
       transform="translate(-116.16414,64.802756)"><path
         sodipodi:type="star"
         style="fill:#666666;fill-opacity:1;stroke-width:0.264583"
         id="path8154-0"
         sodipodi:sides="6"
         sodipodi:cx="1948.4672"
         sodipodi:cy="429.66962"
         sodipodi:r1="112.68826"
         sodipodi:r2="56.344131"
         sodipodi:arg1="0.78539816"
         sodipodi:arg2="1.3089969"
         inkscape:flatsided="true"
         inkscape:rounded="0"
         inkscape:randomized="0"
         d="m 2028.1498,509.35225 -108.8485,29.16587 -79.6826,-79.68263 29.1658,-108.84851 108.8485,-29.16587 79.6827,79.68264 z"
         inkscape:transform-center-x="-2.2851654e-05"
         inkscape:transform-center-y="2.965739e-05"
         transform="matrix(0.20037434,-0.05369013,0.05369013,0.20037434,-139.94597,132.22146)" /><path
         sodipodi:type="star"
         style="fill:#ffffff;stroke-width:0.264583"
         id="path8156-62"
         sodipodi:sides="6"
         sodipodi:cx="1948.4672"
         sodipodi:cy="429.66962"
         sodipodi:r1="112.68826"
         sodipodi:r2="56.344131"
         sodipodi:arg1="0.78539816"
         sodipodi:arg2="1.3089969"
         inkscape:flatsided="true"
         inkscape:rounded="0"
         inkscape:randomized="0"
         d="m 2028.1498,509.35225 -108.8485,29.16587 -79.6826,-79.68263 29.1658,-108.84851 108.8485,-29.16587 79.6827,79.68264 z"
         inkscape:transform-center-x="6.4816261e-06"
         inkscape:transform-center-y="3.4039249e-05"
         transform="matrix(0.17373549,-0.04655227,0.04655227,0.17373549,-84.974174,129.75947)" /><path
         id="path5048"
         style="fill:#333333;fill-opacity:1;stroke-width:0.0985584"
         d="m 273.57297,98.757796 c -2.81016,0 -5.62056,0.543609 -7.79384,1.630904 -2.79894,1.40032 -4.2788,3.51687 -3.93982,5.63429 0.1136,0.70949 0.64208,1.83089 1.11415,2.36316 l 0.31988,0.3607 0.88728,-0.13487 c 0.94183,-0.14366 2.56373,-0.29696 4.06539,-0.38396 l 0.91157,-0.0527 5.1e-4,0.46715 v 0.46716 l -0.54622,-0.0341 c -1.13273,-0.0705 -4.48086,0.29706 -4.48086,0.49196 0,0.0511 0.1171,0.20961 0.25993,0.35244 0.25534,0.25532 0.25859,0.27572 0.19379,1.20302 -0.0417,0.59566 -0.11,0.95822 -0.185,0.98392 -0.0654,0.0224 -0.24692,0.16889 -0.40359,0.32556 -0.27094,0.27097 -0.28248,0.31734 -0.23358,0.94517 0.0613,0.78664 0.45581,2.07213 0.92811,3.02513 0.18806,0.37945 0.42896,0.96641 0.53536,1.30432 0.19184,0.60921 0.38124,0.81493 0.75086,0.81493 0.12514,0 0.2706,0.17902 0.45941,0.56638 0.47993,0.98461 1.35646,2.21272 2.22002,3.10989 1.17621,1.22196 2.26555,1.91935 3.56722,2.28409 0.3671,0.10291 0.8513,0.13854 1.56631,0.11524 1.2225,-0.0398 2.10313,-0.33447 3.22306,-1.079 1.30009,-0.8643 2.94268,-2.81471 3.74034,-4.44107 0.18546,-0.37815 0.33074,-0.55553 0.45527,-0.55553 0.36424,0 0.56088,-0.20419 0.7183,-0.74569 0.087,-0.29907 0.35075,-0.9524 0.58601,-1.45159 0.52003,-1.1034 0.93586,-2.50434 0.93586,-3.15329 0,-0.39263 -0.0498,-0.52942 -0.27233,-0.7519 -0.14959,-0.14959 -0.32818,-0.29077 -0.39688,-0.31367 -0.16763,-0.0559 -0.30032,-2.06034 -0.13642,-2.06034 0.1244,0 0.46411,-0.47279 0.39171,-0.54519 -0.11209,-0.11209 -2.32159,-0.35524 -3.62304,-0.39894 l -1.42523,-0.0481 0.0294,-0.41548 c 0.0163,-0.22854 0.04,-0.42551 0.0522,-0.43821 0.0625,-0.0646 3.43867,0.20397 4.54701,0.36173 l 1.27693,0.1819 0.32039,-0.35915 c 0.46184,-0.51791 0.99885,-1.64498 1.10898,-2.32699 0.34602,-2.14276 -1.12568,-4.2628 -3.93516,-5.66839 -2.17329,-1.087295 -4.98316,-1.630904 -7.79332,-1.630904 z m 0.006,7.049704 c 1.51312,0 2.3499,0.0348 2.312,0.0961 -0.0326,0.0528 -0.54901,0.49618 -1.14773,0.98547 -0.59872,0.48928 -1.12535,0.88987 -1.16995,0.88987 -0.10958,0 -2.35407,-1.80416 -2.36007,-1.89756 -0.003,-0.0406 1.06158,-0.0739 2.36575,-0.0739 z m -3.09749,0.49299 c 0.0924,0 1.71144,1.31986 1.71153,1.39526 4e-5,0.0356 -0.37082,0.40122 -0.82424,0.81287 -0.45343,0.41165 -0.85237,0.74879 -0.88677,0.74879 -0.0344,0 -0.0625,-0.66535 -0.0625,-1.47846 0,-0.81311 0.0278,-1.47846 0.062,-1.47846 z m 6.1681,0 c 0.0425,0 0.0775,0.66535 0.0775,1.47846 0,0.81311 -0.0332,1.47667 -0.0739,1.47588 -0.11684,-0.004 -1.75505,-1.5482 -1.70015,-1.603 0.23564,-0.23542 1.63653,-1.35134 1.69653,-1.35134 z m -3.82715,1.93838 c 0.0606,0.009 0.25428,0.074 0.43046,0.1447 0.26323,0.10555 0.37756,0.10555 0.64079,0 0.17618,-0.0706 0.36986,-0.1357 0.43046,-0.1447 0.11635,-0.0173 1.79265,1.40934 1.80455,1.53582 0.004,0.0406 -1.14603,0.0739 -2.5554,0.0739 -1.4094,0 -2.55992,-0.0332 -2.55592,-0.0739 0.012,-0.12648 1.68871,-1.55312 1.80506,-1.53582 z m -6.6952,2.69389 c 0.0397,0 0.52273,0.0994 1.07332,0.22066 0.96825,0.21376 1.17741,0.2209 6.37274,0.22169 5.21041,10e-4 5.40116,-0.006 6.37222,-0.22065 0.55059,-0.12195 1.03415,-0.2217 1.07435,-0.2217 0.0402,0 0.0462,0.60961 0.0134,1.35496 -0.22518,5.12483 -3.36214,10.1215 -6.75928,10.76575 -0.9591,0.18189 -1.61786,0.0635 -2.7466,-0.49351 -2.287,-1.12868 -4.37288,-4.41194 -5.19555,-8.17779 -0.16992,-0.77782 -0.3284,-3.44941 -0.20464,-3.44941 z m 0.87488,11.39621 -0.29869,0.21239 c -0.48769,0.34727 -1.82316,1.80927 -2.29805,2.51561 -0.37145,0.55247 -0.50468,0.67369 -0.83613,0.76119 -0.52639,0.13904 -1.06363,0.30749 -1.59215,0.49403 l 6.53656,3.77393 c -0.61202,-2.07023 -0.95105,-4.09793 -0.96274,-5.88285 -0.008,-1.18732 -0.0168,-1.23682 -0.27853,-1.55029 z m 13.14493,0.002 -0.26716,0.29921 c -0.26314,0.29459 -0.26746,0.32373 -0.32246,2.0128 -0.0447,1.37313 -0.11541,1.99812 -0.3545,3.14296 -0.14819,0.70959 -0.34996,1.49088 -0.5824,2.27583 l 6.51382,-3.76101 c -0.51987,-0.18168 -1.04631,-0.34538 -1.55753,-0.48163 -0.33095,-0.0882 -0.46524,-0.21057 -0.83613,-0.76222 -0.47428,-0.70543 -1.81005,-2.16819 -2.2965,-2.51458 z m -4.53667,5.97587 c -0.17975,5e-4 -0.57299,0.0289 -1.01492,0.0749 -0.62992,0.0656 -1.54895,0.0841 -2.22984,0.045 l -1.15807,-0.0667 v 0.69764 c 0,0.77942 0.22283,1.49093 0.63665,2.03346 l 0.25683,0.33693 -0.16381,0.63459 1.60869,0.92863 1.49293,-0.86197 -0.16898,-0.64699 0.24339,-0.35708 c 0.41531,-0.60918 0.64544,-1.35448 0.64544,-2.08928 0,-0.37053 -0.0206,-0.69445 -0.046,-0.71985 -0.006,-0.006 -0.0424,-0.009 -0.10232,-0.009 z" /></g><text
       inkscape:export-filename="/home/adm1n/Git/azure/images/network/az_strg_rest_03.png"
       inkscape:export-ydpi="50"
       inkscape:export-xdpi="50"
       id="text5407"
       y="145.87927"
       x="68.445435"
       style="font-style:normal;font-variant:normal;font-weight:500;font-stretch:normal;font-size:5.82388px;line-height:1.25;font-family:'JetBrains Mono';-inkscape-font-specification:'JetBrains Mono, Medium';font-variant-ligatures:normal;font-variant-caps:normal;font-variant-numeric:normal;font-feature-settings:normal;text-align:center;letter-spacing:0px;word-spacing:0px;writing-mode:lr-tb;text-anchor:middle;fill:#000000;fill-opacity:1;stroke:none;stroke-width:0.218396"
       xml:space="preserve"><tspan
         y="145.87927"
         x="68.445435"
         sodipodi:role="line"
         style="font-style:normal;font-variant:normal;font-weight:bold;font-stretch:normal;font-size:9.87778px;font-family:'JetBrains Mono';-inkscape-font-specification:'JetBrains Mono Bold';text-align:center;text-anchor:middle;fill:#000000;fill-opacity:1;stroke-width:0.218396"
         id="tspan5405">Data</tspan></text><text
       inkscape:export-filename="/home/adm1n/Git/azure/images/network/az_strg_rest_03.png"
       inkscape:export-ydpi="50"
       inkscape:export-xdpi="50"
       id="text5411"
       y="141.39111"
       x="113.22918"
       style="font-style:normal;font-variant:normal;font-weight:500;font-stretch:normal;font-size:5.82388px;line-height:1.25;font-family:'JetBrains Mono';-inkscape-font-specification:'JetBrains Mono, Medium';font-variant-ligatures:normal;font-variant-caps:normal;font-variant-numeric:normal;font-feature-settings:normal;text-align:center;letter-spacing:0px;word-spacing:0px;writing-mode:lr-tb;text-anchor:middle;fill:#000000;fill-opacity:1;stroke:none;stroke-width:0.218396"
       xml:space="preserve"><tspan
         y="141.39111"
         x="113.22918"
         sodipodi:role="line"
         style="font-style:normal;font-variant:normal;font-weight:bold;font-stretch:normal;font-size:9.87778px;font-family:'JetBrains Mono';-inkscape-font-specification:'JetBrains Mono Bold';text-align:center;text-anchor:middle;fill:#000000;fill-opacity:1;stroke-width:0.218396"
         id="tspan5409">Default</tspan><tspan
         y="153.73834"
         x="113.22918"
         sodipodi:role="line"
         style="font-style:normal;font-variant:normal;font-weight:bold;font-stretch:normal;font-size:9.87778px;font-family:'JetBrains Mono';-inkscape-font-specification:'JetBrains Mono Bold';text-align:center;text-anchor:middle;fill:#000000;fill-opacity:1;stroke-width:0.218396"
         id="tspan5413">Route</tspan></text><text
       inkscape:export-filename="/home/adm1n/Git/azure/images/network/az_strg_rest_03.png"
       inkscape:export-ydpi="50"
       inkscape:export-xdpi="50"
       id="text5502"
       y="141.39111"
       x="157.58131"
       style="font-style:normal;font-variant:normal;font-weight:500;font-stretch:normal;font-size:5.82388px;line-height:1.25;font-family:'JetBrains Mono';-inkscape-font-specification:'JetBrains Mono, Medium';font-variant-ligatures:normal;font-variant-caps:normal;font-variant-numeric:normal;font-feature-settings:normal;text-align:center;letter-spacing:0px;word-spacing:0px;writing-mode:lr-tb;text-anchor:middle;fill:#000000;fill-opacity:1;stroke:none;stroke-width:0.218396"
       xml:space="preserve"><tspan
         y="141.39111"
         x="157.58131"
         sodipodi:role="line"
         style="font-style:normal;font-variant:normal;font-weight:bold;font-stretch:normal;font-size:9.87778px;font-family:'JetBrains Mono';-inkscape-font-specification:'JetBrains Mono Bold';text-align:center;text-anchor:middle;fill:#000000;fill-opacity:1;stroke-width:0.218396"
         id="tspan5500">Router</tspan></text></g></svg>
