<?xml version="1.0" encoding="UTF-8" standalone="no"?>
<!-- Created with Inkscape (http://www.inkscape.org/) -->

<svg
   width="210mm"
   height="297mm"
   viewBox="0 0 210 297"
   version="1.1"
   id="svg1643"
   xml:space="preserve"
   sodipodi:docname="main.svg"
   inkscape:version="1.2.2 (732a01da63, 2022-12-09, custom)"
   xmlns:inkscape="http://www.inkscape.org/namespaces/inkscape"
   xmlns:sodipodi="http://sodipodi.sourceforge.net/DTD/sodipodi-0.dtd"
   xmlns="http://www.w3.org/2000/svg"
   xmlns:svg="http://www.w3.org/2000/svg"><sodipodi:namedview
     id="namedview1645"
     pagecolor="#505050"
     bordercolor="#eeeeee"
     borderopacity="1"
     inkscape:showpageshadow="0"
     inkscape:pageopacity="0"
     inkscape:pagecheckerboard="0"
     inkscape:deskcolor="#505050"
     inkscape:document-units="mm"
     showgrid="false"
     inkscape:zoom="1.4195138"
     inkscape:cx="335.67832"
     inkscape:cy="218.73687"
     inkscape:window-width="1920"
     inkscape:window-height="1007"
     inkscape:window-x="0"
     inkscape:window-y="0"
     inkscape:window-maximized="1"
     inkscape:current-layer="g8162" /><defs
     id="defs1640" /><g
     inkscape:label="Layer 1"
     inkscape:groupmode="layer"
     id="layer1"><text
       inkscape:export-filename="/home/adm1n/Git/azure/images/network/az_strg_rest_03.png"
       inkscape:export-ydpi="50"
       inkscape:export-xdpi="50"
       id="text5578-1"
       y="65.748512"
       x="-57.250172"
       style="font-style:normal;font-variant:normal;font-weight:500;font-stretch:normal;font-size:5.82388px;line-height:1.25;font-family:'JetBrains Mono';-inkscape-font-specification:'JetBrains Mono, Medium';font-variant-ligatures:normal;font-variant-caps:normal;font-variant-numeric:normal;font-feature-settings:normal;text-align:center;letter-spacing:0px;word-spacing:0px;writing-mode:lr-tb;text-anchor:middle;fill:#000000;fill-opacity:1;stroke:none;stroke-width:0.218396"
       xml:space="preserve"><tspan
         y="65.748512"
         x="-57.250172"
         sodipodi:role="line"
         style="font-style:normal;font-variant:normal;font-weight:bold;font-stretch:normal;font-size:9.87778px;font-family:'JetBrains Mono';-inkscape-font-specification:'JetBrains Mono Bold';text-align:center;text-anchor:middle;fill:#000000;fill-opacity:1;stroke-width:0.218396"
         id="tspan5576-8">Internet</tspan></text><path
       sodipodi:type="star"
       style="fill:#666666;fill-opacity:1;stroke-width:0.264583"
       id="path5616-9"
       sodipodi:sides="6"
       sodipodi:cx="1948.4672"
       sodipodi:cy="429.66962"
       sodipodi:r1="112.68826"
       sodipodi:r2="56.344131"
       sodipodi:arg1="0.78539816"
       sodipodi:arg2="1.3089969"
       inkscape:flatsided="true"
       inkscape:rounded="0"
       inkscape:randomized="0"
       d="m 2028.1498,509.35225 -108.8485,29.16587 -79.6826,-79.68263 29.1658,-108.84851 108.8485,-29.16587 79.6827,79.68264 z"
       inkscape:transform-center-x="-2.2851654e-05"
       inkscape:transform-center-y="2.965739e-05"
       transform="matrix(0.20037434,-0.05369013,0.05369013,0.20037434,-386.91854,47.855214)" /><path
       sodipodi:type="star"
       style="fill:#ffffff;stroke-width:0.264583"
       id="path5618-0"
       sodipodi:sides="6"
       sodipodi:cx="1948.4672"
       sodipodi:cy="429.66962"
       sodipodi:r1="112.68826"
       sodipodi:r2="56.344131"
       sodipodi:arg1="0.78539816"
       sodipodi:arg2="1.3089969"
       inkscape:flatsided="true"
       inkscape:rounded="0"
       inkscape:randomized="0"
       d="m 2028.1498,509.35225 -108.8485,29.16587 -79.6826,-79.68263 29.1658,-108.84851 108.8485,-29.16587 79.6827,79.68264 z"
       inkscape:transform-center-x="6.4816261e-06"
       inkscape:transform-center-y="3.4039249e-05"
       transform="matrix(0.17373549,-0.04655227,0.04655227,0.17373549,-331.94674,45.393224)" /><g
       style="fill:#333333;fill-opacity:1"
       id="g7727"
       transform="matrix(2.1762521,0,0,2.1762521,9.1632375,11.926499)"><path
         class="cls-1"
         d="M 14,12 V 6 H 5 v 6 h 4 v 1 H 7 v 1 h 5 V 13 H 10 V 12 Z M 6,11 V 7 h 7 v 4 z M 7,5 H 4 V 4 H 7 Z M 8,5 V 3 H 3 v 7 h 1 v 3 h 2 v 1 H 3 A 1,1 0 0 1 2,13 V 3 A 1,1 0 0 1 3,2 h 5 a 1,1 0 0 1 1,1 v 2 z"
         id="path7719"
         style="fill:#333333;fill-opacity:1" /></g><g
       id="g8162"
       transform="translate(21.94205,18.496408)"><path
         sodipodi:type="star"
         style="fill:#666666;fill-opacity:1;stroke-width:0.264583"
         id="path8154"
         sodipodi:sides="6"
         sodipodi:cx="1948.4672"
         sodipodi:cy="429.66962"
         sodipodi:r1="112.68826"
         sodipodi:r2="56.344131"
         sodipodi:arg1="0.78539816"
         sodipodi:arg2="1.3089969"
         inkscape:flatsided="true"
         inkscape:rounded="0"
         inkscape:randomized="0"
         d="m 2028.1498,509.35225 -108.8485,29.16587 -79.6826,-79.68263 29.1658,-108.84851 108.8485,-29.16587 79.6827,79.68264 z"
         inkscape:transform-center-x="-2.2851654e-05"
         inkscape:transform-center-y="2.965739e-05"
         transform="matrix(0.20037434,-0.05369013,0.05369013,0.20037434,-387.7923,66.395579)" /><path
         sodipodi:type="star"
         style="fill:#ffffff;stroke-width:0.264583"
         id="path8156"
         sodipodi:sides="6"
         sodipodi:cx="1948.4672"
         sodipodi:cy="429.66962"
         sodipodi:r1="112.68826"
         sodipodi:r2="56.344131"
         sodipodi:arg1="0.78539816"
         sodipodi:arg2="1.3089969"
         inkscape:flatsided="true"
         inkscape:rounded="0"
         inkscape:randomized="0"
         d="m 2028.1498,509.35225 -108.8485,29.16587 -79.6826,-79.68263 29.1658,-108.84851 108.8485,-29.16587 79.6827,79.68264 z"
         inkscape:transform-center-x="6.4816261e-06"
         inkscape:transform-center-y="3.4039249e-05"
         transform="matrix(0.17373549,-0.04655227,0.04655227,0.17373549,-332.8205,63.933589)" /><g
         style="fill:#333333;fill-opacity:1"
         id="g8160"
         transform="matrix(2.1762521,0,0,2.1762521,8.2894779,30.466864)"><path
           class="cls-1"
           d="M 14,12 V 6 H 5 v 6 h 4 v 1 H 7 v 1 h 5 V 13 H 10 V 12 Z M 6,11 V 7 h 7 v 4 z M 7,5 H 4 V 4 H 7 Z M 8,5 V 3 H 3 v 7 h 1 v 3 h 2 v 1 H 3 A 1,1 0 0 1 2,13 V 3 A 1,1 0 0 1 3,2 h 5 a 1,1 0 0 1 1,1 v 2 z"
           id="path8158"
           style="fill:#333333;fill-opacity:1" /></g></g><path
       sodipodi:type="star"
       style="fill:#666666;fill-opacity:1;stroke-width:0.264583"
       id="path8174"
       sodipodi:sides="6"
       sodipodi:cx="1948.4672"
       sodipodi:cy="429.66962"
       sodipodi:r1="112.68826"
       sodipodi:r2="56.344131"
       sodipodi:arg1="0.78539816"
       sodipodi:arg2="1.3089969"
       inkscape:flatsided="true"
       inkscape:rounded="0"
       inkscape:randomized="0"
       d="m 2028.1498,509.35225 -108.8485,29.16587 -79.6826,-79.68263 29.1658,-108.84851 108.8485,-29.16587 79.6827,79.68264 z"
       inkscape:transform-center-x="-2.2851654e-05"
       inkscape:transform-center-y="2.965739e-05"
       transform="matrix(0.20037434,-0.05369013,0.05369013,0.20037434,-344.71152,47.855214)" /><path
       sodipodi:type="star"
       style="fill:#ffffff;stroke-width:0.264583"
       id="path8176"
       sodipodi:sides="6"
       sodipodi:cx="1948.4672"
       sodipodi:cy="429.66962"
       sodipodi:r1="112.68826"
       sodipodi:r2="56.344131"
       sodipodi:arg1="0.78539816"
       sodipodi:arg2="1.3089969"
       inkscape:flatsided="true"
       inkscape:rounded="0"
       inkscape:randomized="0"
       d="m 2028.1498,509.35225 -108.8485,29.16587 -79.6826,-79.68263 29.1658,-108.84851 108.8485,-29.16587 79.6827,79.68264 z"
       inkscape:transform-center-x="6.4816261e-06"
       inkscape:transform-center-y="3.4039249e-05"
       transform="matrix(0.17373549,-0.04655227,0.04655227,0.17373549,-289.73972,45.393224)" /><g
       style="fill:#333333;fill-opacity:1"
       id="g8180"
       transform="matrix(2.1762521,0,0,2.1762521,51.370254,11.926499)"><path
         class="cls-1"
         d="M 14,12 V 6 H 5 v 6 h 4 v 1 H 7 v 1 h 5 V 13 H 10 V 12 Z M 6,11 V 7 h 7 v 4 z M 7,5 H 4 V 4 H 7 Z M 8,5 V 3 H 3 v 7 h 1 v 3 h 2 v 1 H 3 A 1,1 0 0 1 2,13 V 3 A 1,1 0 0 1 3,2 h 5 a 1,1 0 0 1 1,1 v 2 z"
         id="path8178"
         style="fill:#333333;fill-opacity:1" /></g></g></svg>
