<?xml version="1.0" encoding="UTF-8" standalone="no"?>
<!-- Created with Inkscape (http://www.inkscape.org/) -->

<svg
   width="210mm"
   height="297mm"
   viewBox="0 0 210 297"
   version="1.1"
   id="svg1643"
   xml:space="preserve"
   sodipodi:docname="main.svg"
   inkscape:version="1.2.2 (732a01da63, 2022-12-09, custom)"
   xmlns:inkscape="http://www.inkscape.org/namespaces/inkscape"
   xmlns:sodipodi="http://sodipodi.sourceforge.net/DTD/sodipodi-0.dtd"
   xmlns="http://www.w3.org/2000/svg"
   xmlns:svg="http://www.w3.org/2000/svg"><sodipodi:namedview
     id="namedview1645"
     pagecolor="#505050"
     bordercolor="#eeeeee"
     borderopacity="1"
     inkscape:showpageshadow="0"
     inkscape:pageopacity="0"
     inkscape:pagecheckerboard="0"
     inkscape:deskcolor="#505050"
     inkscape:document-units="mm"
     showgrid="false"
     inkscape:zoom="0.69325365"
     inkscape:cx="527.22405"
     inkscape:cy="802.73649"
     inkscape:window-width="1920"
     inkscape:window-height="1007"
     inkscape:window-x="0"
     inkscape:window-y="0"
     inkscape:window-maximized="1"
     inkscape:current-layer="layer1" /><defs
     id="defs1640"><style
       id="style2361">.cls-1{fill:#ff8475;}.cls-13,.cls-2{fill:#f85565;}.cls-2{opacity:0.4;}.cls-3{fill:#ffffff;}.cls-4,.cls-7{fill:#356cb6;}.cls-17,.cls-4{opacity:0.1;}.cls-5{fill:#fbc0aa;}.cls-15,.cls-6{fill:#00adfe;}.cls-10,.cls-11,.cls-12,.cls-14,.cls-16,.cls-17,.cls-8{fill:none;stroke-linecap:round;}.cls-11,.cls-8{stroke:#fbc0aa;}.cls-11,.cls-12,.cls-14,.cls-16,.cls-17,.cls-8{stroke-linejoin:round;}.cls-8{stroke-width:14px;}.cls-9{fill:#ffd8c9;}.cls-10{stroke:#ffffff;stroke-miterlimit:10;}.cls-10,.cls-12,.cls-17{stroke-width:2px;}.cls-11{stroke-width:5px;}.cls-12,.cls-14,.cls-16,.cls-17{stroke:#515570;}.cls-12,.cls-15{opacity:0.2;}.cls-14,.cls-16{stroke-width:2.33px;}.cls-14{opacity:0.7;}</style><style
       id="style3726">.cls-1{fill:#ff8475;}.cls-13,.cls-2{fill:#f85565;}.cls-2{opacity:0.4;}.cls-3{fill:#ffffff;}.cls-4,.cls-7{fill:#356cb6;}.cls-17,.cls-4{opacity:0.1;}.cls-5{fill:#fbc0aa;}.cls-15,.cls-6{fill:#00adfe;}.cls-10,.cls-11,.cls-12,.cls-14,.cls-16,.cls-17,.cls-8{fill:none;stroke-linecap:round;}.cls-11,.cls-8{stroke:#fbc0aa;}.cls-11,.cls-12,.cls-14,.cls-16,.cls-17,.cls-8{stroke-linejoin:round;}.cls-8{stroke-width:14px;}.cls-9{fill:#ffd8c9;}.cls-10{stroke:#ffffff;stroke-miterlimit:10;}.cls-10,.cls-12,.cls-17{stroke-width:2px;}.cls-11{stroke-width:5px;}.cls-12,.cls-14,.cls-16,.cls-17{stroke:#515570;}.cls-12,.cls-15{opacity:0.2;}.cls-14,.cls-16{stroke-width:2.33px;}.cls-14{opacity:0.7;}</style><style
       id="style9366">.cls-1{fill:#4bc190;}.cls-12,.cls-2{fill:#356cb6;}.cls-2{opacity:0.3;}.cls-3{fill:#ffffff;}.cls-4{fill:#fbc0aa;}.cls-5{fill:#515570;}.cls-10,.cls-6{fill:none;stroke:#fbc0aa;stroke-linecap:round;stroke-linejoin:round;}.cls-6{stroke-width:20px;}.cls-7,.cls-8{fill:#393c54;}.cls-12,.cls-8{opacity:0.1;}.cls-9{fill:#ffd8c9;}.cls-10{stroke-width:2px;}.cls-11{fill:#f85565;}</style></defs><g
     inkscape:label="Layer 1"
     inkscape:groupmode="layer"
     id="layer1"><rect
       style="fill:#ffffff;stroke:none;stroke-width:2.44736;stroke-linecap:square;stroke-linejoin:miter;stroke-dasharray:none;stroke-dashoffset:0;paint-order:markers fill stroke"
       id="rect8997"
       width="98.642296"
       height="69.561081"
       x="105.59337"
       y="129.70888"
       rx="0"
       ry="0"
       inkscape:export-filename="../e3ce3cc4/net-explain-00.png"
       inkscape:export-xdpi="50"
       inkscape:export-ydpi="50" /><rect
       style="fill:#ffffff;stroke:#666666;stroke-width:2.57442;stroke-linecap:square;stroke-linejoin:miter;stroke-dasharray:none;stroke-dashoffset:0;paint-order:markers fill stroke"
       id="rect1535"
       width="108.51969"
       height="69.965828"
       x="0.47403696"
       y="129.35114"
       rx="0"
       ry="0" /><text
       inkscape:export-filename="/home/adm1n/Git/azure/images/network/az_strg_rest_03.png"
       inkscape:export-ydpi="50"
       inkscape:export-xdpi="50"
       id="text5578-1-3"
       y="193.33104"
       x="23.340082"
       style="font-style:normal;font-variant:normal;font-weight:500;font-stretch:normal;font-size:5.82388px;line-height:1.25;font-family:'JetBrains Mono';-inkscape-font-specification:'JetBrains Mono, Medium';font-variant-ligatures:normal;font-variant-caps:normal;font-variant-numeric:normal;font-feature-settings:normal;text-align:center;letter-spacing:0px;word-spacing:0px;writing-mode:lr-tb;text-anchor:middle;fill:#000000;fill-opacity:1;stroke:none;stroke-width:0.218396"
       xml:space="preserve"><tspan
         y="193.33104"
         x="23.340082"
         sodipodi:role="line"
         style="font-style:normal;font-variant:normal;font-weight:bold;font-stretch:normal;font-size:9.87778px;font-family:'JetBrains Mono';-inkscape-font-specification:'JetBrains Mono Bold';text-align:center;text-anchor:middle;fill:#000000;fill-opacity:1;stroke-width:0.218396"
         id="tspan5576-8-6">Client</tspan></text><path
       sodipodi:type="star"
       style="fill:#666666;fill-opacity:1;stroke-width:0.264583"
       id="path5616-9"
       sodipodi:sides="6"
       sodipodi:cx="1948.4672"
       sodipodi:cy="429.66962"
       sodipodi:r1="112.68826"
       sodipodi:r2="56.344131"
       sodipodi:arg1="0.78539816"
       sodipodi:arg2="1.3089969"
       inkscape:flatsided="true"
       inkscape:rounded="0"
       inkscape:randomized="0"
       d="m 2028.1498,509.35225 -108.8485,29.16587 -79.6826,-79.68263 29.1658,-108.84851 108.8485,-29.16587 79.6827,79.68264 z"
       inkscape:transform-center-x="-2.2851654e-05"
       inkscape:transform-center-y="2.965739e-05"
       transform="matrix(0.20037434,-0.05369013,0.05369013,0.20037434,-386.91854,47.855214)" /><path
       sodipodi:type="star"
       style="fill:#ffffff;stroke-width:0.264583"
       id="path5618-0"
       sodipodi:sides="6"
       sodipodi:cx="1948.4672"
       sodipodi:cy="429.66962"
       sodipodi:r1="112.68826"
       sodipodi:r2="56.344131"
       sodipodi:arg1="0.78539816"
       sodipodi:arg2="1.3089969"
       inkscape:flatsided="true"
       inkscape:rounded="0"
       inkscape:randomized="0"
       d="m 2028.1498,509.35225 -108.8485,29.16587 -79.6826,-79.68263 29.1658,-108.84851 108.8485,-29.16587 79.6827,79.68264 z"
       inkscape:transform-center-x="6.4816261e-06"
       inkscape:transform-center-y="3.4039249e-05"
       transform="matrix(0.17373549,-0.04655227,0.04655227,0.17373549,-331.94674,45.393224)" /><g
       style="fill:#333333;fill-opacity:1"
       id="g7727"
       transform="matrix(2.1762521,0,0,2.1762521,9.1632375,11.926499)"><path
         class="cls-1"
         d="M 14,12 V 6 H 5 v 6 h 4 v 1 H 7 v 1 h 5 V 13 H 10 V 12 Z M 6,11 V 7 h 7 v 4 z M 7,5 H 4 V 4 H 7 Z M 8,5 V 3 H 3 v 7 h 1 v 3 h 2 v 1 H 3 A 1,1 0 0 1 2,13 V 3 A 1,1 0 0 1 3,2 h 5 a 1,1 0 0 1 1,1 v 2 z"
         id="path7719"
         style="fill:#333333;fill-opacity:1" /></g><path
       sodipodi:type="star"
       style="fill:#666666;fill-opacity:1;stroke-width:0.264583"
       id="path8154"
       sodipodi:sides="6"
       sodipodi:cx="1948.4672"
       sodipodi:cy="429.66962"
       sodipodi:r1="112.68826"
       sodipodi:r2="56.344131"
       sodipodi:arg1="0.78539816"
       sodipodi:arg2="1.3089969"
       inkscape:flatsided="true"
       inkscape:rounded="0"
       inkscape:randomized="0"
       d="m 2028.1498,509.35225 -108.8485,29.16587 -79.6826,-79.68263 29.1658,-108.84851 108.8485,-29.16587 79.6827,79.68264 z"
       inkscape:transform-center-x="-2.2851654e-05"
       inkscape:transform-center-y="2.965739e-05"
       transform="matrix(0.20037434,-0.05369013,0.05369013,0.20037434,-365.85025,84.891987)" /><path
       sodipodi:type="star"
       style="fill:#ffffff;stroke-width:0.264583"
       id="path8156"
       sodipodi:sides="6"
       sodipodi:cx="1948.4672"
       sodipodi:cy="429.66962"
       sodipodi:r1="112.68826"
       sodipodi:r2="56.344131"
       sodipodi:arg1="0.78539816"
       sodipodi:arg2="1.3089969"
       inkscape:flatsided="true"
       inkscape:rounded="0"
       inkscape:randomized="0"
       d="m 2028.1498,509.35225 -108.8485,29.16587 -79.6826,-79.68263 29.1658,-108.84851 108.8485,-29.16587 79.6827,79.68264 z"
       inkscape:transform-center-x="6.4816261e-06"
       inkscape:transform-center-y="3.4039249e-05"
       transform="matrix(0.17373549,-0.04655227,0.04655227,0.17373549,-310.87845,82.429997)" /><g
       style="fill:#333333;fill-opacity:1"
       id="g8160"
       transform="matrix(2.1762521,0,0,2.1762521,30.231528,48.963272)"><path
         class="cls-1"
         d="M 14,12 V 6 H 5 v 6 h 4 v 1 H 7 v 1 h 5 V 13 H 10 V 12 Z M 6,11 V 7 h 7 v 4 z M 7,5 H 4 V 4 H 7 Z M 8,5 V 3 H 3 v 7 h 1 v 3 h 2 v 1 H 3 A 1,1 0 0 1 2,13 V 3 A 1,1 0 0 1 3,2 h 5 a 1,1 0 0 1 1,1 v 2 z"
         id="path8158"
         style="fill:#333333;fill-opacity:1" /></g><g
       id="g1989"
       transform="translate(-170.92598,-20.671165)"><path
         sodipodi:type="star"
         style="fill:#666666;fill-opacity:1;stroke-width:0.264583"
         id="path855"
         sodipodi:sides="6"
         sodipodi:cx="1948.4672"
         sodipodi:cy="429.66962"
         sodipodi:r1="112.68826"
         sodipodi:r2="56.344131"
         sodipodi:arg1="0.78539816"
         sodipodi:arg2="1.3089969"
         inkscape:flatsided="true"
         inkscape:rounded="0"
         inkscape:randomized="0"
         d="m 2028.1498,509.35225 -108.8485,29.16587 -79.6826,-79.68263 29.1658,-108.84851 108.8485,-29.16587 79.6827,79.68264 z"
         inkscape:transform-center-x="-2.2851654e-05"
         inkscape:transform-center-y="2.965739e-05"
         transform="matrix(0.20037434,-0.05369013,0.05369013,0.20037434,-326.59091,142.73747)" /><path
         sodipodi:type="star"
         style="fill:#ffffff;stroke-width:0.264583"
         id="path857"
         sodipodi:sides="6"
         sodipodi:cx="1948.4672"
         sodipodi:cy="429.66962"
         sodipodi:r1="112.68826"
         sodipodi:r2="56.344131"
         sodipodi:arg1="0.78539816"
         sodipodi:arg2="1.3089969"
         inkscape:flatsided="true"
         inkscape:rounded="0"
         inkscape:randomized="0"
         d="m 2028.1498,509.35225 -108.8485,29.16587 -79.6826,-79.68263 29.1658,-108.84851 108.8485,-29.16587 79.6827,79.68264 z"
         inkscape:transform-center-x="6.4816261e-06"
         inkscape:transform-center-y="3.4039249e-05"
         transform="matrix(0.17373549,-0.04655227,0.04655227,0.17373549,-271.61911,140.27548)" /><g
         style="fill:#333333;fill-opacity:1"
         id="g1020"
         transform="matrix(1.3000592,0,0,1.3000592,71.300172,108.61806)"><path
           clip-rule="evenodd"
           d="M 7.8,4.25 H 7.7679 C 6.95506,4.24999 6.29944,4.24999 5.76853,4.29336 5.2219,4.33803 4.74175,4.43239 4.29754,4.65873 3.59193,5.01825 3.01825,5.59193 2.65873,6.29754 2.43239,6.74175 2.33803,7.2219 2.29336,7.76853 2.24999,8.29944 2.24999,8.95505 2.25,9.76788 v 2e-5 0.0321 4.4 0.0321 c -1e-5,0.8129 -1e-5,1.4685 0.04336,1.9994 0.04467,0.5466 0.13903,1.0267 0.36537,1.471 0.35952,0.7056 0.9332,1.2792 1.63881,1.6388 0.44421,0.2263 0.92436,0.3207 1.47099,0.3653 C 6.29944,19.75 6.95505,19.75 7.76788,19.75 H 7.8 h 8.4 0.0321 c 0.8129,0 1.4685,0 1.9994,-0.0434 0.5466,-0.0446 1.0267,-0.139 1.471,-0.3653 0.7056,-0.3596 1.2792,-0.9332 1.6388,-1.6388 0.2263,-0.4443 0.3207,-0.9244 0.3653,-1.471 C 21.75,15.7006 21.75,15.045 21.75,14.2321 V 14.2 9.8 9.76788 c 0,-0.81283 0,-1.46844 -0.0434,-1.99935 C 21.662,7.2219 21.5676,6.74175 21.3413,6.29754 20.9817,5.59193 20.4081,5.01825 19.7025,4.65873 19.2582,4.43239 18.7781,4.33803 18.2315,4.29336 17.7006,4.24999 17.0449,4.24999 16.2321,4.25 H 16.2 Z M 4.97852,5.99524 C 5.17604,5.8946 5.43681,5.82547 5.89068,5.78838 6.35331,5.75058 6.94755,5.75 7.8,5.75 h 8.4 c 0.8525,0 1.4467,5.8e-4 1.9093,0.03838 0.4539,0.03709 0.7147,0.10622 0.9122,0.20686 0.2021,0.10296 0.3861,0.2352 0.5467,0.39135 -0.0346,0.02442 -0.0676,0.05211 -0.0985,0.08308 l -4.6059,4.60593 c -0.6028,0.6027 -1.0234,1.0225 -1.3773,1.3229 -0.3471,0.2947 -0.5804,0.4302 -0.7912,0.4987 -0.4519,0.1469 -0.9387,0.1469 -1.3906,0 -0.2108,-0.0685 -0.4441,-0.204 -0.7912,-0.4987 C 10.1596,12.0981 9.73899,11.6783 9.13622,11.0756 L 4.53033,6.46967 C 4.49936,6.4387 4.46636,6.41101 4.43175,6.38659 4.5924,6.23044 4.77644,6.0982 4.97852,5.99524 Z M 3.79164,7.85229 C 3.79052,7.86493 3.78944,7.87773 3.78838,7.89068 3.75058,8.35331 3.75,8.94755 3.75,9.8 v 4.4 c 0,0.8525 5.8e-4,1.4467 0.03838,1.9093 0.03709,0.4539 0.10622,0.7147 0.20686,0.9122 0.21571,0.4233 0.55992,0.7675 0.98328,0.9833 0.19752,0.1006 0.45829,0.1697 0.91216,0.2068 C 6.35331,18.2494 6.94755,18.25 7.8,18.25 h 8.4 c 0.8525,0 1.4467,-6e-4 1.9093,-0.0384 0.4539,-0.0371 0.7147,-0.1062 0.9122,-0.2068 0.4233,-0.2158 0.7675,-0.56 0.9833,-0.9833 0.1006,-0.1975 0.1697,-0.4583 0.2068,-0.9122 C 20.2494,15.6467 20.25,15.0525 20.25,14.2 V 9.8 c 0,-0.85245 -6e-4,-1.44669 -0.0384,-1.90932 C 20.2106,7.87773 20.2095,7.86494 20.2084,7.8523 l -4.284,4.2839 -0.0227,0.0227 -10e-5,1e-4 c -0.5747,0.5747 -1.0382,1.0383 -1.4443,1.383 -0.4181,0.355 -0.8243,0.6278 -1.2985,0.7818 -0.7531,0.2447 -1.5645,0.2447 -2.3176,0 C 10.367,14.1698 9.9608,13.897 9.54269,13.542 9.13661,13.1973 8.67303,12.7337 8.09829,12.1589 h -3e-5 l -0.0227,-0.0227 z"
           fill="#000000"
           fill-rule="evenodd"
           id="path1011"
           style="fill:#333333;fill-opacity:1" /></g></g><path
       sodipodi:type="star"
       style="fill:#666666;fill-opacity:1;stroke-width:0.264583"
       id="path8174"
       sodipodi:sides="6"
       sodipodi:cx="1948.4672"
       sodipodi:cy="429.66962"
       sodipodi:r1="112.68826"
       sodipodi:r2="56.344131"
       sodipodi:arg1="0.78539816"
       sodipodi:arg2="1.3089969"
       inkscape:flatsided="true"
       inkscape:rounded="0"
       inkscape:randomized="0"
       d="m 2028.1498,509.35225 -108.8485,29.16587 -79.6826,-79.68263 29.1658,-108.84851 108.8485,-29.16587 79.6827,79.68264 z"
       inkscape:transform-center-x="-2.2851654e-05"
       inkscape:transform-center-y="2.965739e-05"
       transform="matrix(0.20037434,-0.05369013,0.05369013,0.20037434,-344.71152,47.855214)" /><path
       sodipodi:type="star"
       style="fill:#ffffff;stroke-width:0.264583"
       id="path8176"
       sodipodi:sides="6"
       sodipodi:cx="1948.4672"
       sodipodi:cy="429.66962"
       sodipodi:r1="112.68826"
       sodipodi:r2="56.344131"
       sodipodi:arg1="0.78539816"
       sodipodi:arg2="1.3089969"
       inkscape:flatsided="true"
       inkscape:rounded="0"
       inkscape:randomized="0"
       d="m 2028.1498,509.35225 -108.8485,29.16587 -79.6826,-79.68263 29.1658,-108.84851 108.8485,-29.16587 79.6827,79.68264 z"
       inkscape:transform-center-x="6.4816261e-06"
       inkscape:transform-center-y="3.4039249e-05"
       transform="matrix(0.17373549,-0.04655227,0.04655227,0.17373549,-289.73972,45.393224)" /><g
       style="fill:#333333;fill-opacity:1"
       id="g8180"
       transform="matrix(2.1762521,0,0,2.1762521,51.370254,11.926499)"><path
         class="cls-1"
         d="M 14,12 V 6 H 5 v 6 h 4 v 1 H 7 v 1 h 5 V 13 H 10 V 12 Z M 6,11 V 7 h 7 v 4 z M 7,5 H 4 V 4 H 7 Z M 8,5 V 3 H 3 v 7 h 1 v 3 h 2 v 1 H 3 A 1,1 0 0 1 2,13 V 3 A 1,1 0 0 1 3,2 h 5 a 1,1 0 0 1 1,1 v 2 z"
         id="path8178"
         style="fill:#333333;fill-opacity:1" /></g><g
       id="g1983"
       transform="translate(-213.67456,-91.557035)"><path
         sodipodi:type="star"
         style="fill:#666666;fill-opacity:1;stroke-width:0.264583"
         id="path8154-3"
         sodipodi:sides="6"
         sodipodi:cx="1948.4672"
         sodipodi:cy="429.66962"
         sodipodi:r1="112.68826"
         sodipodi:r2="56.344131"
         sodipodi:arg1="0.78539816"
         sodipodi:arg2="1.3089969"
         inkscape:flatsided="true"
         inkscape:rounded="0"
         inkscape:randomized="0"
         d="m 2028.1498,509.35225 -108.8485,29.16587 -79.6826,-79.68263 29.1658,-108.84851 108.8485,-29.16587 79.6827,79.68264 z"
         inkscape:transform-center-x="-2.2851654e-05"
         inkscape:transform-center-y="2.965739e-05"
         transform="matrix(0.20037434,-0.05369013,0.05369013,0.20037434,-283.59573,142.73747)" /><path
         sodipodi:type="star"
         style="fill:#ffffff;stroke-width:0.264583"
         id="path8156-6"
         sodipodi:sides="6"
         sodipodi:cx="1948.4672"
         sodipodi:cy="429.66962"
         sodipodi:r1="112.68826"
         sodipodi:r2="56.344131"
         sodipodi:arg1="0.78539816"
         sodipodi:arg2="1.3089969"
         inkscape:flatsided="true"
         inkscape:rounded="0"
         inkscape:randomized="0"
         d="m 2028.1498,509.35225 -108.8485,29.16587 -79.6826,-79.68263 29.1658,-108.84851 108.8485,-29.16587 79.6827,79.68264 z"
         inkscape:transform-center-x="6.4816261e-06"
         inkscape:transform-center-y="3.4039249e-05"
         transform="matrix(0.17373549,-0.04655227,0.04655227,0.17373549,-228.62393,140.27548)" /><g
         style="fill:#333333;fill-opacity:1"
         id="g1321"
         transform="matrix(0.05955138,0,0,0.05955138,112.49446,109.31529)"><g
           id="g1311"
           style="fill:#333333;fill-opacity:1">
	<g
   id="g1309"
   style="fill:#333333;fill-opacity:1">
		<path
   d="m 439.551,68.465 c 0.708,-7.046 -3.06,-13.559 -9.135,-16.595 L 330.246,1.786 C 319.035,-3.813 306.085,4.468 306.085,16.718 V 66.803 H 189.221 c -0.19,0 -0.375,0.022 -0.563,0.028 -46.263,0.396 -82.766,37.773 -82.911,83.179 l -0.514,16.962 H 55.661 c -9.206,0 -16.695,7.537 -16.695,16.695 V 311.66 H 22.271 c -9.22,0 -16.695,7.475 -16.695,16.695 0,9.22 7.475,16.695 16.695,16.695 11.143,0 273.899,0 283.814,0 v 150.254 c 0,9.22 7.475,16.695 16.695,16.695 h 66.78 c 9.22,0 16.695,-7.475 16.695,-16.695 V 345.05 h 50.085 c 0.003,0 0.006,0 0.009,0 30.564,-0.01 50.071,-36.191 50.073,-61.102 l 0.003,-133.672 C 506.424,109.932 477.653,76.186 439.551,68.465 Z M 339.474,43.731 385.618,66.802 339.474,89.874 Z m -132.131,156.631 -51.512,40.064 -51.513,-40.064 z m 31.962,111.299 H 72.355 v -93.86 l 73.225,56.953 c 6.029,4.69 14.471,4.689 20.499,0 l 73.225,-56.953 v 93.86 z m 0,-144.689 H 138.637 c 0.013,-0.415 0.499,-16.279 0.499,-16.695 0,-27.355 22.131,-50.114 50.07,-50.085 0.004,0 0.01,0 0.014,0 h 0.292 c 29.8,0.203 49.793,25.975 49.793,53.657 z m 133.559,311.639 h -33.39 v -133.56 h 33.39 z M 473.03,283.947 c -10e-4,11.964 -10.502,27.715 -16.695,27.715 h -183.64 c 0,-2.706 0,-156.026 0,-157.812 0,-19.982 -6.606,-38.727 -17.721,-53.657 h 51.111 c 0,12.778 0,102.482 0,116.864 0,9.22 7.475,16.695 16.695,16.695 9.22,0 16.695,-7.475 16.695,-16.695 V 127.205 L 393.5,100.193 h 29.45 c 27.617,0 50.085,22.468 50.085,50.085 z"
   id="path1307"
   style="fill:#333333;fill-opacity:1" />
	</g>
</g></g></g><g
       id="g4125"
       transform="translate(-368.06349,-29.742927)"><path
         sodipodi:type="star"
         style="fill:#666666;fill-opacity:1;stroke-width:0.264583"
         id="path8154-35-2"
         sodipodi:sides="6"
         sodipodi:cx="1948.4672"
         sodipodi:cy="429.66962"
         sodipodi:r1="112.68826"
         sodipodi:r2="56.344131"
         sodipodi:arg1="0.78539816"
         sodipodi:arg2="1.3089969"
         inkscape:flatsided="true"
         inkscape:rounded="0"
         inkscape:randomized="0"
         d="m 2028.1498,509.35225 -108.8485,29.16587 -79.6826,-79.68263 29.1658,-108.84851 108.8485,-29.16587 79.6827,79.68264 z"
         inkscape:transform-center-x="-2.2851654e-05"
         inkscape:transform-center-y="2.965739e-05"
         transform="matrix(0.20037434,-0.05369013,0.05369013,0.20037434,-19.98619,209.65)" /><path
         sodipodi:type="star"
         style="fill:#ffffff;stroke-width:0.264583"
         id="path8156-62-7"
         sodipodi:sides="6"
         sodipodi:cx="1948.4672"
         sodipodi:cy="429.66962"
         sodipodi:r1="112.68826"
         sodipodi:r2="56.344131"
         sodipodi:arg1="0.78539816"
         sodipodi:arg2="1.3089969"
         inkscape:flatsided="true"
         inkscape:rounded="0"
         inkscape:randomized="0"
         d="m 2028.1498,509.35225 -108.8485,29.16587 -79.6826,-79.68263 29.1658,-108.84851 108.8485,-29.16587 79.6827,79.68264 z"
         inkscape:transform-center-x="6.4816261e-06"
         inkscape:transform-center-y="3.4039249e-05"
         transform="matrix(0.17373549,-0.04655227,0.04655227,0.17373549,34.98561,207.18801)" /><path
         id="circle2371"
         style="fill:#333333;fill-opacity:1;stroke-width:0.364975"
         class="cls-3"
         d="m 393.40028,172.73364 a 5.4454161,5.4454161 0 0 0 -5.40484,4.81625 11.069669,11.069669 0 0 0 -5.66477,9.65522 v 1.62781 a 7.4673734,7.4673734 0 0 0 0.27905,2.01073 2.5548199,2.5548199 0 0 0 -0.88832,1.93425 2.5548199,2.5548199 0 0 0 2.55437,2.55488 2.5548199,2.5548199 0 0 0 0.0305,-0.001 9.1243566,9.1243566 0 0 0 7.11584,8.17159 v 0.58911 h -6.0327 a 3.6497426,3.6497426 0 0 0 -1.82263,0.4992 l 9.93893,5.73815 9.83195,-5.67614 a 3.6497426,3.6497426 0 0 0 -1.90789,-0.56121 H 395.164 v -0.54415 a 9.1243566,9.1243566 0 0 0 7.33082,-8.21655 2.5548199,2.5548199 0 0 0 0.03,0.001 2.5548199,2.5548199 0 0 0 2.55489,-2.55488 2.5548199,2.5548199 0 0 0 -0.88832,-1.9358 7.4673734,7.4673734 0 0 0 0.27854,-2.00918 v -1.62781 a 11.069669,11.069669 0 0 0 -5.66116,-9.65781 5.4454161,5.4454161 0 0 0 -5.40845,-4.81366 z" /><path
         id="path3135"
         style="fill:#ffffff;stroke-width:0.334206"
         class="cls-9"
         d="m 390.74334,187.18384 a 3.5730979,3.5730979 0 0 1 -3.04389,1.70443 h -2.64309 a 8.3551432,8.3551432 0 0 0 -0.0111,0.26723 v 1.3934 a 2.5548199,2.1878869 0 0 0 -0.32255,-0.0176 2.5548199,2.1878869 0 0 0 -2.55482,2.18791 2.5548199,2.1878869 0 0 0 2.55482,2.1879 2.5548199,2.1878869 0 0 0 0.33099,-0.0194 8.3551427,8.3551427 0 0 0 6.73298,7.96545 v 1.25243 c 0,0.82937 0.66771,1.49708 1.49707,1.49708 0.82936,0 1.49697,-0.66771 1.49697,-1.49708 v -1.2035 a 8.3551427,8.3551427 0 0 0 6.97021,-7.97993 2.5548199,2.1878869 0 0 0 0.21761,0.009 2.5548199,2.1878869 0 0 0 2.55482,-2.1879 2.5548199,2.1878869 0 0 0 -2.55482,-2.18791 2.5548199,2.1878869 0 0 0 -0.21305,0.008 v -0.74831 h -6.84783 a 3.6497426,3.6497426 0 0 1 -1.09492,-0.16789 c -0.86134,-0.27373 -2.33949,-0.94894 -3.06943,-2.46357 z" /><path
         class="cls-13"
         d="m 393.40041,201.3243 c 1.82487,0 2.55482,-1.09493 2.55482,-1.09493 h -5.10964 c 0,0 0.72995,1.09493 2.55482,1.09493 z"
         id="path2544"
         style="fill:#333333;fill-opacity:1;stroke-width:0.364975" /><path
         style="color:#000000;fill:#ffffff;stroke-width:0.220709;stroke-linecap:round;stroke-miterlimit:10;-inkscape-stroke:none"
         d="m 393.76808,185.53243 a 0.10872455,0.10872455 0 0 0 -0.0509,0.14527 c 0.46832,0.97007 1.07019,1.54676 1.70576,1.87516 0.63556,0.3284 1.30025,0.40909 1.89585,0.40909 h 4.37969 a 0.10872455,0.10872455 0 0 0 0.10906,-0.10906 0.10872455,0.10872455 0 0 0 -0.10906,-0.10863 h -4.37969 c -0.57596,0 -1.20279,-0.0779 -1.79628,-0.38452 -0.59348,-0.30665 -1.15777,-0.84136 -1.60919,-1.77645 a 0.10872455,0.10872455 0 0 0 -0.14527,-0.0509 z"
         id="path3338" /><path
         id="path3408"
         style="fill:#333333;fill-opacity:1;stroke-width:0.636275;stroke-linecap:round;stroke-linejoin:round;stroke-dasharray:0.636275, 0.636275;paint-order:markers fill stroke"
         d="m 388.96261,190.84259 a 2.8288774,2.8288774 0 0 0 -2.82889,2.82889 2.8288774,2.8288774 0 0 0 2.82889,2.8289 2.8288774,2.8288774 0 0 0 2.80996,-2.5035 h 3.14801 a 2.8288774,2.8288774 0 0 0 2.80814,2.5035 2.8288774,2.8288774 0 0 0 2.82889,-2.8289 2.8288774,2.8288774 0 0 0 -2.82889,-2.82889 2.8288774,2.8288774 0 0 0 -2.81213,2.53885 h -3.13992 a 2.8288774,2.8288774 0 0 0 -2.81406,-2.53885 z m 0,0.4764 a 2.3525354,2.3525354 0 0 1 2.35248,2.35249 2.3525354,2.3525354 0 0 1 -2.35248,2.3526 2.3525354,2.3525354 0 0 1 -2.35261,-2.3526 2.3525354,2.3525354 0 0 1 2.35261,-2.35249 z m 8.76611,0 a 2.3525354,2.3525354 0 0 1 2.35249,2.35249 2.3525354,2.3525354 0 0 1 -2.35249,2.3526 2.3525354,2.3525354 0 0 1 -2.3526,-2.3526 2.3525354,2.3525354 0 0 1 2.3526,-2.35249 z m -9.48443,3.19262 c -0.13679,0 -0.24692,0.11013 -0.24692,0.24693 0,0.13679 0.11013,0.24692 0.24692,0.24692 h 1.48419 c 0.1368,0 0.24693,-0.11013 0.24693,-0.24692 0,-0.1368 -0.11013,-0.24693 -0.24693,-0.24693 z m 8.75311,0 c -0.13679,0 -0.24693,0.11013 -0.24693,0.24693 0,0.13679 0.11014,0.24692 0.24693,0.24692 h 1.48431 c 0.13679,0 0.24681,-0.11013 0.24681,-0.24692 0,-0.1368 -0.11002,-0.24693 -0.24681,-0.24693 z" /><rect
         style="fill:#333333;fill-opacity:1;stroke-width:0.629643;stroke-linecap:round;stroke-linejoin:round;stroke-dasharray:0.629643, 0.629643;paint-order:markers fill stroke"
         id="rect3479"
         width="1.0535996"
         height="3.4673204"
         x="392.81885"
         y="194.81711"
         rx="2.3868539"
         ry="2.3868539" /><path
         id="rect3550"
         style="fill:#333333;fill-opacity:1;stroke-width:0.364933;stroke-linecap:round;stroke-linejoin:round;stroke-dasharray:0.364933, 0.364933;paint-order:markers fill stroke"
         d="m 391.14776,197.79466 c -0.0581,1.5e-4 -0.11552,0.0285 -0.15135,0.081 l -1.71378,2.50897 c -0.0573,0.0839 -0.037,0.19679 0.0454,0.25309 0.0824,0.0563 0.19485,0.0341 0.25218,-0.0498 l 1.71378,-2.50897 c 0.0573,-0.0839 0.0371,-0.1969 -0.0453,-0.2532 -0.0309,-0.0211 -0.0661,-0.0311 -0.10094,-0.031 z m 4.88632,0 c -0.0349,-8e-5 -0.0699,0.01 -0.10083,0.031 -0.0824,0.0563 -0.10272,0.16927 -0.0454,0.2532 l 1.71378,2.50897 c 0.0573,0.0839 0.16986,0.10614 0.25229,0.0498 0.0824,-0.0563 0.10261,-0.16915 0.0453,-0.25309 l -1.71378,-2.50908 c -0.0358,-0.0525 -0.0932,-0.0807 -0.15135,-0.0809 z" /><rect
         style="fill:#333333;fill-opacity:1;stroke-width:0.662127;stroke-linecap:round;stroke-linejoin:round;stroke-dasharray:0.662127, 0.662127;paint-order:markers fill stroke"
         id="rect3557"
         width="3.8817766"
         height="0.60107046"
         x="385.62421"
         y="190.55142"
         rx="1.3616817"
         ry="1.3616817" /><rect
         style="fill:#333333;fill-opacity:1;stroke-width:0.662127;stroke-linecap:round;stroke-linejoin:round;stroke-dasharray:0.662127, 0.662127;paint-order:markers fill stroke"
         id="rect3559"
         width="3.8817766"
         height="0.60107046"
         x="396.56216"
         y="190.55142"
         rx="1.3616817"
         ry="1.3616817" /></g><path
       id="path3960"
       style="fill:#333333;fill-opacity:1;stroke-width:0.364975"
       class="cls-3"
       d="m 484.83285,90.860011 a 5.4454161,5.4454161 0 0 0 -5.40515,4.816063 11.069669,11.069669 0 0 0 -5.66452,9.655166 v 1.62778 a 7.4673734,7.4673734 0 0 0 0.27921,2.01101 2.5548199,2.5548199 0 0 0 -0.88871,1.93437 2.5548199,2.5548199 0 0 0 2.55482,2.55482 2.5548199,2.5548199 0 0 0 0.0301,-0.001 9.1243566,9.1243566 0 0 0 7.11586,8.17121 v 0.58932 h -6.0328 a 3.6497426,3.6497426 0 0 0 -3.43806,2.42342 l -1.21536,3.75559 a 21.788963,21.788963 0 0 0 6.2925,3.09099 l -4.5e-4,0.004 a 21.953202,21.953202 0 0 0 0.11018,0.031 21.788963,21.788963 0 0 0 0.38938,0.10983 21.953202,21.953202 0 0 0 0.51017,0.1363 21.788963,21.788963 0 0 0 0.46466,0.11166 21.953202,21.953202 0 0 0 0.44561,0.0966 21.788963,21.788963 0 0 0 0.50286,0.0999 21.953202,21.953202 0 0 0 0.40991,0.0686 21.788963,21.788963 0 0 0 0.5299,0.0839 21.953202,21.953202 0 0 0 0.85803,0.10174 21.788963,21.788963 0 0 0 0.45155,0.0356 21.953202,21.953202 0 0 0 0.51586,0.0363 21.788963,21.788963 0 0 0 0.42166,0.0165 21.953202,21.953202 0 0 0 0.57198,0.013 21.788963,21.788963 0 0 0 0.1907,0.004 21.788963,21.788963 0 0 0 0.1907,-0.004 21.953202,21.953202 0 0 0 0.5721,-0.013 21.788963,21.788963 0 0 0 0.42132,-0.0165 21.953202,21.953202 0 0 0 0.51586,-0.0363 21.788963,21.788963 0 0 0 0.45166,-0.0356 21.953202,21.953202 0 0 0 0.85815,-0.10174 21.788963,21.788963 0 0 0 0.52989,-0.0839 21.953202,21.953202 0 0 0 0.40992,-0.0686 21.788963,21.788963 0 0 0 0.50286,-0.0999 21.953202,21.953202 0 0 0 0.44561,-0.0966 21.788963,21.788963 0 0 0 0.46443,-0.11155 21.953202,21.953202 0 0 0 0.51188,-0.13686 21.788963,21.788963 0 0 0 0.38687,-0.10904 21.953202,21.953202 0 0 0 0.11121,-0.0314 l -2.3e-4,-0.004 a 21.788963,21.788963 0 0 0 6.2925,-3.09099 l -1.21536,-3.75559 a 3.6497426,3.6497426 0 0 0 -3.41981,-2.42342 h -6.26592 v -0.54427 a 9.1243566,9.1243566 0 0 0 7.33073,-8.21626 2.5548199,2.5548199 0 0 0 0.0301,10e-4 2.5548199,2.5548199 0 0 0 2.55482,-2.55482 2.5548199,2.5548199 0 0 0 -0.88814,-1.93596 7.4673734,7.4673734 0 0 0 0.27864,-2.00942 v -1.62778 a 11.069669,11.069669 0 0 0 -5.66144,-9.657675 5.4454161,5.4454161 0 0 0 -5.40823,-4.813554 z" /><path
       id="path3962"
       style="fill:#ffffff;stroke-width:0.334206"
       class="cls-9"
       d="m 482.17582,105.3101 a 3.5730979,3.5730979 0 0 1 -3.04389,1.70443 h -2.64309 a 8.3551432,8.3551432 0 0 0 -0.0111,0.26723 v 1.3934 a 2.5548199,2.1878869 0 0 0 -0.32255,-0.0176 2.5548199,2.1878869 0 0 0 -2.55482,2.18791 2.5548199,2.1878869 0 0 0 2.55482,2.18791 2.5548199,2.1878869 0 0 0 0.33099,-0.0194 8.3551427,8.3551427 0 0 0 6.73298,7.96545 v 1.25243 c 0,0.82936 0.66771,1.49708 1.49707,1.49708 0.82936,0 1.49697,-0.66772 1.49697,-1.49708 v -1.2035 a 8.3551427,8.3551427 0 0 0 6.97021,-7.97994 2.5548199,2.1878869 0 0 0 0.21761,0.009 2.5548199,2.1878869 0 0 0 2.55482,-2.18791 2.5548199,2.1878869 0 0 0 -2.55482,-2.18791 2.5548199,2.1878869 0 0 0 -0.21305,0.008 v -0.74831 h -6.84783 a 3.6497426,3.6497426 0 0 1 -1.09492,-0.16788 c -0.86134,-0.27373 -2.33949,-0.94894 -3.06943,-2.46358 z" /><path
       class="cls-13"
       d="m 484.83289,119.45056 c 1.82487,0 2.55482,-1.09492 2.55482,-1.09492 h -5.10964 c 0,0 0.72995,1.09492 2.55482,1.09492 z"
       id="path3964"
       style="fill:#333333;fill-opacity:1;stroke-width:0.364975" /><path
       style="color:#000000;fill:#ffffff;stroke-width:0.220709;stroke-linecap:round;stroke-miterlimit:10;-inkscape-stroke:none"
       d="m 485.20056,103.65869 a 0.10872455,0.10872455 0 0 0 -0.0509,0.14527 c 0.46832,0.97008 1.07019,1.54677 1.70576,1.87516 0.63556,0.3284 1.30025,0.40909 1.89585,0.40909 h 4.37969 a 0.10872455,0.10872455 0 0 0 0.10906,-0.10906 0.10872455,0.10872455 0 0 0 -0.10906,-0.10863 h -4.37969 c -0.57596,0 -1.20279,-0.0779 -1.79628,-0.38452 -0.59348,-0.30665 -1.15777,-0.84135 -1.60919,-1.77644 a 0.10872455,0.10872455 0 0 0 -0.14527,-0.0509 z"
       id="path3966" /><path
       id="path3968"
       style="fill:#333333;fill-opacity:1;stroke-width:0.636275;stroke-linecap:round;stroke-linejoin:round;stroke-dasharray:0.636275, 0.636275;paint-order:markers fill stroke"
       d="m 480.39509,108.96885 a 2.8288774,2.8288774 0 0 0 -2.82889,2.8289 2.8288774,2.8288774 0 0 0 2.82889,2.82889 2.8288774,2.8288774 0 0 0 2.80996,-2.5035 h 3.14801 a 2.8288774,2.8288774 0 0 0 2.80814,2.5035 2.8288774,2.8288774 0 0 0 2.82889,-2.82889 2.8288774,2.8288774 0 0 0 -2.82889,-2.8289 2.8288774,2.8288774 0 0 0 -2.81213,2.53886 h -3.13992 a 2.8288774,2.8288774 0 0 0 -2.81406,-2.53886 z m 0,0.47641 a 2.3525354,2.3525354 0 0 1 2.35248,2.35249 2.3525354,2.3525354 0 0 1 -2.35248,2.3526 2.3525354,2.3525354 0 0 1 -2.35261,-2.3526 2.3525354,2.3525354 0 0 1 2.35261,-2.35249 z m 8.76611,0 a 2.3525354,2.3525354 0 0 1 2.35249,2.35249 2.3525354,2.3525354 0 0 1 -2.35249,2.3526 2.3525354,2.3525354 0 0 1 -2.3526,-2.3526 2.3525354,2.3525354 0 0 1 2.3526,-2.35249 z m -9.48443,3.19261 c -0.13679,0 -0.24692,0.11014 -0.24692,0.24693 0,0.13679 0.11013,0.24693 0.24692,0.24693 h 1.48419 c 0.1368,0 0.24693,-0.11014 0.24693,-0.24693 0,-0.13679 -0.11013,-0.24693 -0.24693,-0.24693 z m 8.75311,0 c -0.13679,0 -0.24693,0.11014 -0.24693,0.24693 0,0.13679 0.11014,0.24693 0.24693,0.24693 h 1.48431 c 0.13679,0 0.24681,-0.11014 0.24681,-0.24693 0,-0.13679 -0.11002,-0.24693 -0.24681,-0.24693 z" /><rect
       style="fill:#333333;fill-opacity:1;stroke-width:0.629643;stroke-linecap:round;stroke-linejoin:round;stroke-dasharray:0.629643, 0.629643;paint-order:markers fill stroke"
       id="rect3970"
       width="1.0535996"
       height="3.4673204"
       x="484.25134"
       y="112.94337"
       rx="2.3868539"
       ry="2.3868539" /><path
       id="path3972"
       style="fill:#333333;fill-opacity:1;stroke-width:0.364933;stroke-linecap:round;stroke-linejoin:round;stroke-dasharray:0.364933, 0.364933;paint-order:markers fill stroke"
       d="m 482.58024,115.92093 c -0.0581,1.5e-4 -0.11552,0.0285 -0.15135,0.081 l -1.71378,2.50897 c -0.0573,0.0839 -0.037,0.19678 0.0454,0.25309 0.0824,0.0563 0.19485,0.0341 0.25218,-0.0499 l 1.71378,-2.50897 c 0.0573,-0.0839 0.0372,-0.1969 -0.0453,-0.2532 -0.0309,-0.0211 -0.0661,-0.0311 -0.10094,-0.031 z m 4.88632,0 c -0.0349,-9e-5 -0.0699,0.01 -0.10083,0.031 -0.0824,0.0563 -0.10272,0.16927 -0.0454,0.2532 l 1.71378,2.50897 c 0.0573,0.0839 0.16986,0.10615 0.25229,0.0499 0.0824,-0.0563 0.10261,-0.16916 0.0453,-0.25309 l -1.71378,-2.50909 c -0.0358,-0.0524 -0.0932,-0.0807 -0.15135,-0.0809 z" /><rect
       style="fill:#333333;fill-opacity:1;stroke-width:0.662127;stroke-linecap:round;stroke-linejoin:round;stroke-dasharray:0.662127, 0.662127;paint-order:markers fill stroke"
       id="rect3974"
       width="3.8817766"
       height="0.60107046"
       x="477.0567"
       y="108.67769"
       rx="1.3616817"
       ry="1.3616817" /><rect
       style="fill:#333333;fill-opacity:1;stroke-width:0.662127;stroke-linecap:round;stroke-linejoin:round;stroke-dasharray:0.662127, 0.662127;paint-order:markers fill stroke"
       id="rect3976"
       width="3.8817766"
       height="0.60107046"
       x="487.99463"
       y="108.67769"
       rx="1.3616817"
       ry="1.3616817" /><g
       id="g4375"
       transform="translate(-22.68829,-143.05276)"><path
         sodipodi:type="star"
         style="fill:#666666;fill-opacity:1;stroke-width:0.264583"
         id="path4353"
         sodipodi:sides="6"
         sodipodi:cx="1948.4672"
         sodipodi:cy="429.66962"
         sodipodi:r1="112.68826"
         sodipodi:r2="56.344131"
         sodipodi:arg1="0.78539816"
         sodipodi:arg2="1.3089969"
         inkscape:flatsided="true"
         inkscape:rounded="0"
         inkscape:randomized="0"
         d="m 2028.1498,509.35225 -108.8485,29.16587 -79.6826,-79.68263 29.1658,-108.84851 108.8485,-29.16587 79.6827,79.68264 z"
         inkscape:transform-center-x="-2.2851654e-05"
         inkscape:transform-center-y="2.965739e-05"
         transform="matrix(0.20037434,-0.05369013,0.05369013,0.20037434,-19.98619,209.65)" /><path
         sodipodi:type="star"
         style="fill:#ffffff;stroke-width:0.264583"
         id="path4355"
         sodipodi:sides="6"
         sodipodi:cx="1948.4672"
         sodipodi:cy="429.66962"
         sodipodi:r1="112.68826"
         sodipodi:r2="56.344131"
         sodipodi:arg1="0.78539816"
         sodipodi:arg2="1.3089969"
         inkscape:flatsided="true"
         inkscape:rounded="0"
         inkscape:randomized="0"
         d="m 2028.1498,509.35225 -108.8485,29.16587 -79.6826,-79.68263 29.1658,-108.84851 108.8485,-29.16587 79.6827,79.68264 z"
         inkscape:transform-center-x="6.4816261e-06"
         inkscape:transform-center-y="3.4039249e-05"
         transform="matrix(0.17373549,-0.04655227,0.04655227,0.17373549,34.98561,207.18801)" /><path
         id="path4357"
         style="fill:#333333;fill-opacity:1;stroke-width:0.364975"
         class="cls-3"
         d="m 393.40028,172.73364 a 5.4454161,5.4454161 0 0 0 -5.40484,4.81625 11.069669,11.069669 0 0 0 -5.66477,9.65522 v 1.62781 a 7.4673734,7.4673734 0 0 0 0.27905,2.01073 2.5548199,2.5548199 0 0 0 -0.88832,1.93425 2.5548199,2.5548199 0 0 0 2.55437,2.55488 2.5548199,2.5548199 0 0 0 0.0305,-0.001 9.1243566,9.1243566 0 0 0 7.11584,8.17159 v 0.58911 h -6.0327 a 3.6497426,3.6497426 0 0 0 -1.82263,0.4992 l 9.93893,5.73815 9.83195,-5.67614 a 3.6497426,3.6497426 0 0 0 -1.90789,-0.56121 H 395.164 v -0.54415 a 9.1243566,9.1243566 0 0 0 7.33082,-8.21655 2.5548199,2.5548199 0 0 0 0.03,0.001 2.5548199,2.5548199 0 0 0 2.55489,-2.55488 2.5548199,2.5548199 0 0 0 -0.88832,-1.9358 7.4673734,7.4673734 0 0 0 0.27854,-2.00918 v -1.62781 a 11.069669,11.069669 0 0 0 -5.66116,-9.65781 5.4454161,5.4454161 0 0 0 -5.40845,-4.81366 z" /><path
         id="path4359"
         style="fill:#ffffff;stroke-width:0.334206"
         class="cls-9"
         d="m 390.74334,187.18384 a 3.5730979,3.5730979 0 0 1 -3.04389,1.70443 h -2.64309 a 8.3551432,8.3551432 0 0 0 -0.0111,0.26723 v 1.3934 a 2.5548199,2.1878869 0 0 0 -0.32255,-0.0176 2.5548199,2.1878869 0 0 0 -2.55482,2.18791 2.5548199,2.1878869 0 0 0 2.55482,2.1879 2.5548199,2.1878869 0 0 0 0.33099,-0.0194 8.3551427,8.3551427 0 0 0 6.73298,7.96545 v 1.25243 c 0,0.82937 0.66771,1.49708 1.49707,1.49708 0.82936,0 1.49697,-0.66771 1.49697,-1.49708 v -1.2035 a 8.3551427,8.3551427 0 0 0 6.97021,-7.97993 2.5548199,2.1878869 0 0 0 0.21761,0.009 2.5548199,2.1878869 0 0 0 2.55482,-2.1879 2.5548199,2.1878869 0 0 0 -2.55482,-2.18791 2.5548199,2.1878869 0 0 0 -0.21305,0.008 v -0.74831 h -6.84783 a 3.6497426,3.6497426 0 0 1 -1.09492,-0.16789 c -0.86134,-0.27373 -2.33949,-0.94894 -3.06943,-2.46357 z" /><path
         class="cls-13"
         d="m 393.40041,201.3243 c 1.82487,0 2.55482,-1.09493 2.55482,-1.09493 h -5.10964 c 0,0 0.72995,1.09493 2.55482,1.09493 z"
         id="path4361"
         style="fill:#333333;fill-opacity:1;stroke-width:0.364975" /><path
         style="color:#000000;fill:#ffffff;stroke-width:0.220709;stroke-linecap:round;stroke-miterlimit:10;-inkscape-stroke:none"
         d="m 393.76808,185.53243 a 0.10872455,0.10872455 0 0 0 -0.0509,0.14527 c 0.46832,0.97007 1.07019,1.54676 1.70576,1.87516 0.63556,0.3284 1.30025,0.40909 1.89585,0.40909 h 4.37969 a 0.10872455,0.10872455 0 0 0 0.10906,-0.10906 0.10872455,0.10872455 0 0 0 -0.10906,-0.10863 h -4.37969 c -0.57596,0 -1.20279,-0.0779 -1.79628,-0.38452 -0.59348,-0.30665 -1.15777,-0.84136 -1.60919,-1.77645 a 0.10872455,0.10872455 0 0 0 -0.14527,-0.0509 z"
         id="path4363" /><path
         id="path4365"
         style="fill:#333333;fill-opacity:1;stroke-width:0.636275;stroke-linecap:round;stroke-linejoin:round;stroke-dasharray:0.636275, 0.636275;paint-order:markers fill stroke"
         d="m 388.96261,190.84259 a 2.8288774,2.8288774 0 0 0 -2.82889,2.82889 2.8288774,2.8288774 0 0 0 2.82889,2.8289 2.8288774,2.8288774 0 0 0 2.80996,-2.5035 h 3.14801 a 2.8288774,2.8288774 0 0 0 2.80814,2.5035 2.8288774,2.8288774 0 0 0 2.82889,-2.8289 2.8288774,2.8288774 0 0 0 -2.82889,-2.82889 2.8288774,2.8288774 0 0 0 -2.81213,2.53885 h -3.13992 a 2.8288774,2.8288774 0 0 0 -2.81406,-2.53885 z m 0,0.4764 a 2.3525354,2.3525354 0 0 1 2.35248,2.35249 2.3525354,2.3525354 0 0 1 -2.35248,2.3526 2.3525354,2.3525354 0 0 1 -2.35261,-2.3526 2.3525354,2.3525354 0 0 1 2.35261,-2.35249 z m 8.76611,0 a 2.3525354,2.3525354 0 0 1 2.35249,2.35249 2.3525354,2.3525354 0 0 1 -2.35249,2.3526 2.3525354,2.3525354 0 0 1 -2.3526,-2.3526 2.3525354,2.3525354 0 0 1 2.3526,-2.35249 z m -9.48443,3.19262 c -0.13679,0 -0.24692,0.11013 -0.24692,0.24693 0,0.13679 0.11013,0.24692 0.24692,0.24692 h 1.48419 c 0.1368,0 0.24693,-0.11013 0.24693,-0.24692 0,-0.1368 -0.11013,-0.24693 -0.24693,-0.24693 z m 8.75311,0 c -0.13679,0 -0.24693,0.11013 -0.24693,0.24693 0,0.13679 0.11014,0.24692 0.24693,0.24692 h 1.48431 c 0.13679,0 0.24681,-0.11013 0.24681,-0.24692 0,-0.1368 -0.11002,-0.24693 -0.24681,-0.24693 z" /><rect
         style="fill:#333333;fill-opacity:1;stroke-width:0.629643;stroke-linecap:round;stroke-linejoin:round;stroke-dasharray:0.629643, 0.629643;paint-order:markers fill stroke"
         id="rect4367"
         width="1.0535996"
         height="3.4673204"
         x="392.81885"
         y="194.81711"
         rx="2.3868539"
         ry="2.3868539" /><path
         id="path4369"
         style="fill:#333333;fill-opacity:1;stroke-width:0.364933;stroke-linecap:round;stroke-linejoin:round;stroke-dasharray:0.364933, 0.364933;paint-order:markers fill stroke"
         d="m 391.14776,197.79466 c -0.0581,1.5e-4 -0.11552,0.0285 -0.15135,0.081 l -1.71378,2.50897 c -0.0573,0.0839 -0.037,0.19679 0.0454,0.25309 0.0824,0.0563 0.19485,0.0341 0.25218,-0.0498 l 1.71378,-2.50897 c 0.0573,-0.0839 0.0371,-0.1969 -0.0453,-0.2532 -0.0309,-0.0211 -0.0661,-0.0311 -0.10094,-0.031 z m 4.88632,0 c -0.0349,-8e-5 -0.0699,0.01 -0.10083,0.031 -0.0824,0.0563 -0.10272,0.16927 -0.0454,0.2532 l 1.71378,2.50897 c 0.0573,0.0839 0.16986,0.10614 0.25229,0.0498 0.0824,-0.0563 0.10261,-0.16915 0.0453,-0.25309 l -1.71378,-2.50908 c -0.0358,-0.0525 -0.0932,-0.0807 -0.15135,-0.0809 z" /><rect
         style="fill:#333333;fill-opacity:1;stroke-width:0.662127;stroke-linecap:round;stroke-linejoin:round;stroke-dasharray:0.662127, 0.662127;paint-order:markers fill stroke"
         id="rect4371"
         width="3.8817766"
         height="0.60107046"
         x="385.62421"
         y="190.55142"
         rx="1.3616817"
         ry="1.3616817" /><rect
         style="fill:#333333;fill-opacity:1;stroke-width:0.662127;stroke-linecap:round;stroke-linejoin:round;stroke-dasharray:0.662127, 0.662127;paint-order:markers fill stroke"
         id="rect4373"
         width="3.8817766"
         height="0.60107046"
         x="396.56216"
         y="190.55142"
         rx="1.3616817"
         ry="1.3616817" /></g><g
       id="g5325"
       transform="translate(-204.24833,47.685613)"><path
         sodipodi:type="star"
         style="fill:#666666;fill-opacity:1;stroke-width:0.264583"
         id="path8154-0"
         sodipodi:sides="6"
         sodipodi:cx="1948.4672"
         sodipodi:cy="429.66962"
         sodipodi:r1="112.68826"
         sodipodi:r2="56.344131"
         sodipodi:arg1="0.78539816"
         sodipodi:arg2="1.3089969"
         inkscape:flatsided="true"
         inkscape:rounded="0"
         inkscape:randomized="0"
         d="m 2028.1498,509.35225 -108.8485,29.16587 -79.6826,-79.68263 29.1658,-108.84851 108.8485,-29.16587 79.6827,79.68264 z"
         inkscape:transform-center-x="-2.2851654e-05"
         inkscape:transform-center-y="2.965739e-05"
         transform="matrix(0.20037434,-0.05369013,0.05369013,0.20037434,-139.94597,132.22146)" /><path
         sodipodi:type="star"
         style="fill:#ffffff;stroke-width:0.264583"
         id="path8156-62"
         sodipodi:sides="6"
         sodipodi:cx="1948.4672"
         sodipodi:cy="429.66962"
         sodipodi:r1="112.68826"
         sodipodi:r2="56.344131"
         sodipodi:arg1="0.78539816"
         sodipodi:arg2="1.3089969"
         inkscape:flatsided="true"
         inkscape:rounded="0"
         inkscape:randomized="0"
         d="m 2028.1498,509.35225 -108.8485,29.16587 -79.6826,-79.68263 29.1658,-108.84851 108.8485,-29.16587 79.6827,79.68264 z"
         inkscape:transform-center-x="6.4816261e-06"
         inkscape:transform-center-y="3.4039249e-05"
         transform="matrix(0.17373549,-0.04655227,0.04655227,0.17373549,-84.974174,129.75947)" /><path
         id="path5048"
         style="fill:#333333;fill-opacity:1;stroke-width:0.0985584"
         d="m 273.57297,98.757796 c -2.81016,0 -5.62056,0.543609 -7.79384,1.630904 -2.79894,1.40032 -4.2788,3.51687 -3.93982,5.63429 0.1136,0.70949 0.64208,1.83089 1.11415,2.36316 l 0.31988,0.3607 0.88728,-0.13487 c 0.94183,-0.14366 2.56373,-0.29696 4.06539,-0.38396 l 0.91157,-0.0527 5.1e-4,0.46715 v 0.46716 l -0.54622,-0.0341 c -1.13273,-0.0705 -4.48086,0.29706 -4.48086,0.49196 0,0.0511 0.1171,0.20961 0.25993,0.35244 0.25534,0.25532 0.25859,0.27572 0.19379,1.20302 -0.0417,0.59566 -0.11,0.95822 -0.185,0.98392 -0.0654,0.0224 -0.24692,0.16889 -0.40359,0.32556 -0.27094,0.27097 -0.28248,0.31734 -0.23358,0.94517 0.0613,0.78664 0.45581,2.07213 0.92811,3.02513 0.18806,0.37945 0.42896,0.96641 0.53536,1.30432 0.19184,0.60921 0.38124,0.81493 0.75086,0.81493 0.12514,0 0.2706,0.17902 0.45941,0.56638 0.47993,0.98461 1.35646,2.21272 2.22002,3.10989 1.17621,1.22196 2.26555,1.91935 3.56722,2.28409 0.3671,0.10291 0.8513,0.13854 1.56631,0.11524 1.2225,-0.0398 2.10313,-0.33447 3.22306,-1.079 1.30009,-0.8643 2.94268,-2.81471 3.74034,-4.44107 0.18546,-0.37815 0.33074,-0.55553 0.45527,-0.55553 0.36424,0 0.56088,-0.20419 0.7183,-0.74569 0.087,-0.29907 0.35075,-0.9524 0.58601,-1.45159 0.52003,-1.1034 0.93586,-2.50434 0.93586,-3.15329 0,-0.39263 -0.0498,-0.52942 -0.27233,-0.7519 -0.14959,-0.14959 -0.32818,-0.29077 -0.39688,-0.31367 -0.16763,-0.0559 -0.30032,-2.06034 -0.13642,-2.06034 0.1244,0 0.46411,-0.47279 0.39171,-0.54519 -0.11209,-0.11209 -2.32159,-0.35524 -3.62304,-0.39894 l -1.42523,-0.0481 0.0294,-0.41548 c 0.0163,-0.22854 0.04,-0.42551 0.0522,-0.43821 0.0625,-0.0646 3.43867,0.20397 4.54701,0.36173 l 1.27693,0.1819 0.32039,-0.35915 c 0.46184,-0.51791 0.99885,-1.64498 1.10898,-2.32699 0.34602,-2.14276 -1.12568,-4.2628 -3.93516,-5.66839 -2.17329,-1.087295 -4.98316,-1.630904 -7.79332,-1.630904 z m 0.006,7.049704 c 1.51312,0 2.3499,0.0348 2.312,0.0961 -0.0326,0.0528 -0.54901,0.49618 -1.14773,0.98547 -0.59872,0.48928 -1.12535,0.88987 -1.16995,0.88987 -0.10958,0 -2.35407,-1.80416 -2.36007,-1.89756 -0.003,-0.0406 1.06158,-0.0739 2.36575,-0.0739 z m -3.09749,0.49299 c 0.0924,0 1.71144,1.31986 1.71153,1.39526 4e-5,0.0356 -0.37082,0.40122 -0.82424,0.81287 -0.45343,0.41165 -0.85237,0.74879 -0.88677,0.74879 -0.0344,0 -0.0625,-0.66535 -0.0625,-1.47846 0,-0.81311 0.0278,-1.47846 0.062,-1.47846 z m 6.1681,0 c 0.0425,0 0.0775,0.66535 0.0775,1.47846 0,0.81311 -0.0332,1.47667 -0.0739,1.47588 -0.11684,-0.004 -1.75505,-1.5482 -1.70015,-1.603 0.23564,-0.23542 1.63653,-1.35134 1.69653,-1.35134 z m -3.82715,1.93838 c 0.0606,0.009 0.25428,0.074 0.43046,0.1447 0.26323,0.10555 0.37756,0.10555 0.64079,0 0.17618,-0.0706 0.36986,-0.1357 0.43046,-0.1447 0.11635,-0.0173 1.79265,1.40934 1.80455,1.53582 0.004,0.0406 -1.14603,0.0739 -2.5554,0.0739 -1.4094,0 -2.55992,-0.0332 -2.55592,-0.0739 0.012,-0.12648 1.68871,-1.55312 1.80506,-1.53582 z m -6.6952,2.69389 c 0.0397,0 0.52273,0.0994 1.07332,0.22066 0.96825,0.21376 1.17741,0.2209 6.37274,0.22169 5.21041,10e-4 5.40116,-0.006 6.37222,-0.22065 0.55059,-0.12195 1.03415,-0.2217 1.07435,-0.2217 0.0402,0 0.0462,0.60961 0.0134,1.35496 -0.22518,5.12483 -3.36214,10.1215 -6.75928,10.76575 -0.9591,0.18189 -1.61786,0.0635 -2.7466,-0.49351 -2.287,-1.12868 -4.37288,-4.41194 -5.19555,-8.17779 -0.16992,-0.77782 -0.3284,-3.44941 -0.20464,-3.44941 z m 0.87488,11.39621 -0.29869,0.21239 c -0.48769,0.34727 -1.82316,1.80927 -2.29805,2.51561 -0.37145,0.55247 -0.50468,0.67369 -0.83613,0.76119 -0.52639,0.13904 -1.06363,0.30749 -1.59215,0.49403 l 6.53656,3.77393 c -0.61202,-2.07023 -0.95105,-4.09793 -0.96274,-5.88285 -0.008,-1.18732 -0.0168,-1.23682 -0.27853,-1.55029 z m 13.14493,0.002 -0.26716,0.29921 c -0.26314,0.29459 -0.26746,0.32373 -0.32246,2.0128 -0.0447,1.37313 -0.11541,1.99812 -0.3545,3.14296 -0.14819,0.70959 -0.34996,1.49088 -0.5824,2.27583 l 6.51382,-3.76101 c -0.51987,-0.18168 -1.04631,-0.34538 -1.55753,-0.48163 -0.33095,-0.0882 -0.46524,-0.21057 -0.83613,-0.76222 -0.47428,-0.70543 -1.81005,-2.16819 -2.2965,-2.51458 z m -4.53667,5.97587 c -0.17975,5e-4 -0.57299,0.0289 -1.01492,0.0749 -0.62992,0.0656 -1.54895,0.0841 -2.22984,0.045 l -1.15807,-0.0667 v 0.69764 c 0,0.77942 0.22283,1.49093 0.63665,2.03346 l 0.25683,0.33693 -0.16381,0.63459 1.60869,0.92863 1.49293,-0.86197 -0.16898,-0.64699 0.24339,-0.35708 c 0.41531,-0.60918 0.64544,-1.35448 0.64544,-2.08928 0,-0.37053 -0.0206,-0.69445 -0.046,-0.71985 -0.006,-0.006 -0.0424,-0.009 -0.10232,-0.009 z" /></g><text
       inkscape:export-filename="/home/adm1n/Git/azure/images/network/az_strg_rest_03.png"
       inkscape:export-ydpi="50"
       inkscape:export-xdpi="50"
       id="text5407"
       y="70.921356"
       x="-85.001633"
       style="font-style:normal;font-variant:normal;font-weight:500;font-stretch:normal;font-size:5.82388px;line-height:1.25;font-family:'JetBrains Mono';-inkscape-font-specification:'JetBrains Mono, Medium';font-variant-ligatures:normal;font-variant-caps:normal;font-variant-numeric:normal;font-feature-settings:normal;text-align:center;letter-spacing:0px;word-spacing:0px;writing-mode:lr-tb;text-anchor:middle;fill:#000000;fill-opacity:1;stroke:none;stroke-width:0.218396"
       xml:space="preserve"><tspan
         y="70.921356"
         x="-85.001633"
         sodipodi:role="line"
         style="font-style:normal;font-variant:normal;font-weight:bold;font-stretch:normal;font-size:9.87778px;font-family:'JetBrains Mono';-inkscape-font-specification:'JetBrains Mono Bold';text-align:center;text-anchor:middle;fill:#000000;fill-opacity:1;stroke-width:0.218396"
         id="tspan5405">Data</tspan></text><text
       inkscape:export-filename="/home/adm1n/Git/azure/images/network/az_strg_rest_03.png"
       inkscape:export-ydpi="50"
       inkscape:export-xdpi="50"
       id="text5411"
       y="193.05446"
       x="69.457016"
       style="font-style:normal;font-variant:normal;font-weight:500;font-stretch:normal;font-size:5.82388px;line-height:1.25;font-family:'JetBrains Mono';-inkscape-font-specification:'JetBrains Mono, Medium';font-variant-ligatures:normal;font-variant-caps:normal;font-variant-numeric:normal;font-feature-settings:normal;text-align:center;letter-spacing:0px;word-spacing:0px;writing-mode:lr-tb;text-anchor:middle;fill:#000000;fill-opacity:1;stroke:none;stroke-width:0.218396"
       xml:space="preserve"><tspan
         y="193.05446"
         x="69.457016"
         sodipodi:role="line"
         style="font-style:normal;font-variant:normal;font-weight:bold;font-stretch:normal;font-size:9.87778px;font-family:'JetBrains Mono';-inkscape-font-specification:'JetBrains Mono Bold';text-align:center;text-anchor:middle;fill:#000000;fill-opacity:1;stroke-width:0.218396"
         id="tspan5413">Router</tspan></text><g
       id="g5390"
       transform="translate(-3.41473)"><path
         id="path8156-629"
         style="fill:#666666;fill-opacity:1;stroke:#666666;stroke-width:2.24304;stroke-opacity:1"
         inkscape:transform-center-x="-3.2618492e-06"
         inkscape:transform-center-y="1.2071721e-05"
         d="m 78.357321,129.80251 -3.566748,6.17779 H 44.22281 l -3.566748,-6.17779 3.566748,-6.17777 30.567767,-1e-5 z"
         sodipodi:nodetypes="ccccccc" /><text
         inkscape:export-filename="/home/adm1n/Git/azure/images/network/az_strg_rest_03.png"
         inkscape:export-ydpi="50"
         inkscape:export-xdpi="50"
         id="text5502-3"
         y="134.5276"
         x="59.157433"
         style="font-style:normal;font-variant:normal;font-weight:500;font-stretch:normal;font-size:12.7px;line-height:1.25;font-family:'JetBrains Mono';-inkscape-font-specification:'JetBrains Mono, Medium';font-variant-ligatures:normal;font-variant-caps:normal;font-variant-numeric:normal;font-feature-settings:normal;text-align:center;letter-spacing:0px;word-spacing:0px;writing-mode:lr-tb;text-anchor:middle;fill:#ffffff;fill-opacity:1;stroke:none;stroke-width:0.218396"
         xml:space="preserve"><tspan
           y="134.5276"
           x="59.157433"
           sodipodi:role="line"
           style="font-style:normal;font-variant:normal;font-weight:800;font-stretch:normal;font-size:12.7px;font-family:'JetBrains Mono';-inkscape-font-specification:'JetBrains Mono Ultra-Bold';text-align:center;text-anchor:middle;fill:#ffffff;fill-opacity:1;stroke-width:0.218396"
           id="tspan5500-6">LAN</tspan></text></g><rect
       style="fill:#ffffff;stroke:#666666;stroke-width:2.19792;stroke-linecap:square;stroke-linejoin:miter;stroke-dasharray:none;stroke-dashoffset:0;paint-order:markers fill stroke"
       id="rect4788"
       width="78.329254"
       height="70.653061"
       x="115.74989"
       y="129.16289"
       rx="0"
       ry="0" /><g
       id="g5508"
       transform="translate(-44.921829,2.29934)"><path
         id="path4790"
         style="fill:#666666;fill-opacity:1;stroke:#666666;stroke-width:2.24304;stroke-opacity:1"
         inkscape:transform-center-x="-3.2618492e-06"
         inkscape:transform-center-y="1.2071721e-05"
         d="m 218.68698,127.50317 -3.56675,6.17779 h -30.56776 l -3.56675,-6.17779 3.56675,-6.17777 30.56777,-1e-5 z"
         sodipodi:nodetypes="ccccccc" /><text
         inkscape:export-filename="/home/adm1n/Git/azure/images/network/az_strg_rest_03.png"
         inkscape:export-ydpi="50"
         inkscape:export-xdpi="50"
         id="text4794"
         y="132.22827"
         x="199.48709"
         style="font-style:normal;font-variant:normal;font-weight:500;font-stretch:normal;font-size:12.7px;line-height:1.25;font-family:'JetBrains Mono';-inkscape-font-specification:'JetBrains Mono, Medium';font-variant-ligatures:normal;font-variant-caps:normal;font-variant-numeric:normal;font-feature-settings:normal;text-align:center;letter-spacing:0px;word-spacing:0px;writing-mode:lr-tb;text-anchor:middle;fill:#ffffff;fill-opacity:1;stroke:none;stroke-width:0.218396"
         xml:space="preserve"><tspan
           y="132.22827"
           x="199.48709"
           sodipodi:role="line"
           style="font-style:normal;font-variant:normal;font-weight:800;font-stretch:normal;font-size:12.7px;font-family:'JetBrains Mono';-inkscape-font-specification:'JetBrains Mono Ultra-Bold';text-align:center;text-anchor:middle;fill:#ffffff;fill-opacity:1;stroke-width:0.218396"
           id="tspan4792">WAN</tspan></text></g><g
       id="g1975"
       transform="translate(-61.003662,37.360841)"><path
         sodipodi:type="star"
         style="fill:#666666;fill-opacity:1;stroke-width:0.264583"
         id="path1518"
         sodipodi:sides="6"
         sodipodi:cx="1948.4672"
         sodipodi:cy="429.66962"
         sodipodi:r1="112.68826"
         sodipodi:r2="56.344131"
         sodipodi:arg1="0.78539816"
         sodipodi:arg2="1.3089969"
         inkscape:flatsided="true"
         inkscape:rounded="0"
         inkscape:randomized="0"
         d="m 2028.1498,509.35225 -108.8485,29.16587 -79.6826,-79.68263 29.1658,-108.84851 108.8485,-29.16587 79.6827,79.68264 z"
         inkscape:transform-center-x="-2.2851654e-05"
         inkscape:transform-center-y="2.965739e-05"
         transform="matrix(0.20037434,-0.05369013,0.05369013,0.20037434,-239.7895,142.73747)" /><path
         sodipodi:type="star"
         style="fill:#ffffff;stroke-width:0.264583"
         id="path1520"
         sodipodi:sides="6"
         sodipodi:cx="1948.4672"
         sodipodi:cy="429.66962"
         sodipodi:r1="112.68826"
         sodipodi:r2="56.344131"
         sodipodi:arg1="0.78539816"
         sodipodi:arg2="1.3089969"
         inkscape:flatsided="true"
         inkscape:rounded="0"
         inkscape:randomized="0"
         d="m 2028.1498,509.35225 -108.8485,29.16587 -79.6826,-79.68263 29.1658,-108.84851 108.8485,-29.16587 79.6827,79.68264 z"
         inkscape:transform-center-x="6.4816261e-06"
         inkscape:transform-center-y="3.4039249e-05"
         transform="matrix(0.17373549,-0.04655227,0.04655227,0.17373549,-184.8177,140.27548)" /><g
         id="g1931"
         transform="translate(0,0.87764586)"><g
           style="fill:#333333;fill-opacity:1"
           id="g1555"
           transform="matrix(0.68642542,0,0,0.59739672,193.15369,81.365182)"><path
             d="m -28.370324,45.32456 c -0.200066,0.0071 -0.392702,0.07759 -0.550152,0.201229 l -21.740179,17.014055 c -0.992445,0.777786 0.174317,2.265777 1.166762,1.487991 l 1.307069,-1.022763 v 24.854624 c 5.2e-5,0.522012 0.423214,0.945173 0.945225,0.945225 h 37.8090104 c 0.522012,-5.2e-5 0.945173,-0.423213 0.945225,-0.945225 V 63.005072 l 1.307069,1.022763 c 0.99204,0.778229 2.158804,-0.709761 1.166763,-1.487991 L -27.753712,45.525789 c -0.175374,-0.137697 -0.393776,-0.208972 -0.616612,-0.201229 z m 0.03323,2.145218 17.959279,14.054687 V 86.914471 H -46.296373 V 61.524465 Z"
             id="path1546"
             style="fill:#333333;fill-opacity:1;stroke-width:0.945225"
             sodipodi:nodetypes="cccccccccccccccccccc" /></g><g
           style="fill:#333333;fill-opacity:1"
           id="g1777"
           transform="matrix(0.96473571,0,0,0.96473571,162.12548,113.1391)"><path
             clip-rule="evenodd"
             d="M 7.8,4.25 H 7.7679 C 6.95506,4.24999 6.29944,4.24999 5.76853,4.29336 5.2219,4.33803 4.74175,4.43239 4.29754,4.65873 3.59193,5.01825 3.01825,5.59193 2.65873,6.29754 2.43239,6.74175 2.33803,7.2219 2.29336,7.76853 2.24999,8.29944 2.24999,8.95505 2.25,9.76788 v 2e-5 0.0321 4.4 0.0321 c -1e-5,0.8129 -1e-5,1.4685 0.04336,1.9994 0.04467,0.5466 0.13903,1.0267 0.36537,1.471 0.35952,0.7056 0.9332,1.2792 1.63881,1.6388 0.44421,0.2263 0.92436,0.3207 1.47099,0.3653 C 6.29944,19.75 6.95505,19.75 7.76788,19.75 H 7.8 h 8.4 0.0321 c 0.8129,0 1.4685,0 1.9994,-0.0434 0.5466,-0.0446 1.0267,-0.139 1.471,-0.3653 0.7056,-0.3596 1.2792,-0.9332 1.6388,-1.6388 0.2263,-0.4443 0.3207,-0.9244 0.3653,-1.471 C 21.75,15.7006 21.75,15.045 21.75,14.2321 V 14.2 9.8 9.76788 c 0,-0.81283 0,-1.46844 -0.0434,-1.99935 C 21.662,7.2219 21.5676,6.74175 21.3413,6.29754 20.9817,5.59193 20.4081,5.01825 19.7025,4.65873 19.2582,4.43239 18.7781,4.33803 18.2315,4.29336 17.7006,4.24999 17.0449,4.24999 16.2321,4.25 H 16.2 Z M 4.97852,5.99524 C 5.17604,5.8946 5.43681,5.82547 5.89068,5.78838 6.35331,5.75058 6.94755,5.75 7.8,5.75 h 8.4 c 0.8525,0 1.4467,5.8e-4 1.9093,0.03838 0.4539,0.03709 0.7147,0.10622 0.9122,0.20686 0.2021,0.10296 0.3861,0.2352 0.5467,0.39135 -0.0346,0.02442 -0.0676,0.05211 -0.0985,0.08308 l -4.6059,4.60593 c -0.6028,0.6027 -1.0234,1.0225 -1.3773,1.3229 -0.3471,0.2947 -0.5804,0.4302 -0.7912,0.4987 -0.4519,0.1469 -0.9387,0.1469 -1.3906,0 -0.2108,-0.0685 -0.4441,-0.204 -0.7912,-0.4987 C 10.1596,12.0981 9.73899,11.6783 9.13622,11.0756 L 4.53033,6.46967 C 4.49936,6.4387 4.46636,6.41101 4.43175,6.38659 4.5924,6.23044 4.77644,6.0982 4.97852,5.99524 Z M 3.79164,7.85229 C 3.79052,7.86493 3.78944,7.87773 3.78838,7.89068 3.75058,8.35331 3.75,8.94755 3.75,9.8 v 4.4 c 0,0.8525 5.8e-4,1.4467 0.03838,1.9093 0.03709,0.4539 0.10622,0.7147 0.20686,0.9122 0.21571,0.4233 0.55992,0.7675 0.98328,0.9833 0.19752,0.1006 0.45829,0.1697 0.91216,0.2068 C 6.35331,18.2494 6.94755,18.25 7.8,18.25 h 8.4 c 0.8525,0 1.4467,-6e-4 1.9093,-0.0384 0.4539,-0.0371 0.7147,-0.1062 0.9122,-0.2068 0.4233,-0.2158 0.7675,-0.56 0.9833,-0.9833 0.1006,-0.1975 0.1697,-0.4583 0.2068,-0.9122 C 20.2494,15.6467 20.25,15.0525 20.25,14.2 V 9.8 c 0,-0.85245 -6e-4,-1.44669 -0.0384,-1.90932 C 20.2106,7.87773 20.2095,7.86494 20.2084,7.8523 l -4.284,4.2839 -0.0227,0.0227 -10e-5,1e-4 c -0.5747,0.5747 -1.0382,1.0383 -1.4443,1.383 -0.4181,0.355 -0.8243,0.6278 -1.2985,0.7818 -0.7531,0.2447 -1.5645,0.2447 -2.3176,0 C 10.367,14.1698 9.9608,13.897 9.54269,13.542 9.13661,13.1973 8.67303,12.7337 8.09829,12.1589 h -3e-5 l -0.0227,-0.0227 z"
             fill="#000000"
             fill-rule="evenodd"
             id="path1775"
             style="fill:#333333;fill-opacity:1" /></g></g></g><text
       inkscape:export-filename="/home/adm1n/Git/azure/images/network/az_strg_rest_03.png"
       inkscape:export-ydpi="50"
       inkscape:export-xdpi="50"
       id="text5764"
       y="193.2467"
       x="124.99947"
       style="font-style:normal;font-variant:normal;font-weight:500;font-stretch:normal;font-size:5.82388px;line-height:1.25;font-family:'JetBrains Mono';-inkscape-font-specification:'JetBrains Mono, Medium';font-variant-ligatures:normal;font-variant-caps:normal;font-variant-numeric:normal;font-feature-settings:normal;text-align:center;letter-spacing:0px;word-spacing:0px;writing-mode:lr-tb;text-anchor:middle;fill:#000000;fill-opacity:1;stroke:none;stroke-width:0.218396"
       xml:space="preserve"><tspan
         y="193.2467"
         x="124.99947"
         sodipodi:role="line"
         style="font-style:normal;font-variant:normal;font-weight:bold;font-stretch:normal;font-size:9.87778px;font-family:'JetBrains Mono';-inkscape-font-specification:'JetBrains Mono Bold';text-align:center;text-anchor:middle;fill:#000000;fill-opacity:1;stroke-width:0.218396"
         id="tspan5762">ISP</tspan></text><rect
       style="fill:#ffffff;stroke:#666666;stroke-width:2.57442;stroke-linecap:square;stroke-linejoin:miter;stroke-dasharray:none;stroke-dashoffset:0;paint-order:markers fill stroke"
       id="rect5895"
       width="108.51969"
       height="69.965828"
       x="202.26752"
       y="129.35114"
       rx="0"
       ry="0" /><text
       inkscape:export-filename="/home/adm1n/Git/azure/images/network/az_strg_rest_03.png"
       inkscape:export-ydpi="50"
       inkscape:export-xdpi="50"
       id="text5899"
       y="193.33104"
       x="284.74045"
       style="font-style:normal;font-variant:normal;font-weight:500;font-stretch:normal;font-size:5.82388px;line-height:1.25;font-family:'JetBrains Mono';-inkscape-font-specification:'JetBrains Mono, Medium';font-variant-ligatures:normal;font-variant-caps:normal;font-variant-numeric:normal;font-feature-settings:normal;text-align:center;letter-spacing:0px;word-spacing:0px;writing-mode:lr-tb;text-anchor:middle;fill:#000000;fill-opacity:1;stroke:none;stroke-width:0.218396"
       xml:space="preserve"><tspan
         y="193.33104"
         x="284.74045"
         sodipodi:role="line"
         style="font-style:normal;font-variant:normal;font-weight:bold;font-stretch:normal;font-size:9.87778px;font-family:'JetBrains Mono';-inkscape-font-specification:'JetBrains Mono Bold';text-align:center;text-anchor:middle;fill:#000000;fill-opacity:1;stroke-width:0.218396"
         id="tspan5897">Server</tspan></text><g
       id="g5931"
       transform="translate(-32.152847,47.685613)"><path
         sodipodi:type="star"
         style="fill:#666666;fill-opacity:1;stroke-width:0.264583"
         id="path5925"
         sodipodi:sides="6"
         sodipodi:cx="1948.4672"
         sodipodi:cy="429.66962"
         sodipodi:r1="112.68826"
         sodipodi:r2="56.344131"
         sodipodi:arg1="0.78539816"
         sodipodi:arg2="1.3089969"
         inkscape:flatsided="true"
         inkscape:rounded="0"
         inkscape:randomized="0"
         d="m 2028.1498,509.35225 -108.8485,29.16587 -79.6826,-79.68263 29.1658,-108.84851 108.8485,-29.16587 79.6827,79.68264 z"
         inkscape:transform-center-x="-2.2851654e-05"
         inkscape:transform-center-y="2.965739e-05"
         transform="matrix(0.20037434,-0.05369013,0.05369013,0.20037434,-139.94597,132.22146)" /><path
         sodipodi:type="star"
         style="fill:#ffffff;stroke-width:0.264583"
         id="path5927"
         sodipodi:sides="6"
         sodipodi:cx="1948.4672"
         sodipodi:cy="429.66962"
         sodipodi:r1="112.68826"
         sodipodi:r2="56.344131"
         sodipodi:arg1="0.78539816"
         sodipodi:arg2="1.3089969"
         inkscape:flatsided="true"
         inkscape:rounded="0"
         inkscape:randomized="0"
         d="m 2028.1498,509.35225 -108.8485,29.16587 -79.6826,-79.68263 29.1658,-108.84851 108.8485,-29.16587 79.6827,79.68264 z"
         inkscape:transform-center-x="6.4816261e-06"
         inkscape:transform-center-y="3.4039249e-05"
         transform="matrix(0.17373549,-0.04655227,0.04655227,0.17373549,-84.974174,129.75947)" /><path
         id="path5929"
         style="fill:#333333;fill-opacity:1;stroke-width:0.0985584"
         d="m 273.57297,98.757796 c -2.81016,0 -5.62056,0.543609 -7.79384,1.630904 -2.79894,1.40032 -4.2788,3.51687 -3.93982,5.63429 0.1136,0.70949 0.64208,1.83089 1.11415,2.36316 l 0.31988,0.3607 0.88728,-0.13487 c 0.94183,-0.14366 2.56373,-0.29696 4.06539,-0.38396 l 0.91157,-0.0527 5.1e-4,0.46715 v 0.46716 l -0.54622,-0.0341 c -1.13273,-0.0705 -4.48086,0.29706 -4.48086,0.49196 0,0.0511 0.1171,0.20961 0.25993,0.35244 0.25534,0.25532 0.25859,0.27572 0.19379,1.20302 -0.0417,0.59566 -0.11,0.95822 -0.185,0.98392 -0.0654,0.0224 -0.24692,0.16889 -0.40359,0.32556 -0.27094,0.27097 -0.28248,0.31734 -0.23358,0.94517 0.0613,0.78664 0.45581,2.07213 0.92811,3.02513 0.18806,0.37945 0.42896,0.96641 0.53536,1.30432 0.19184,0.60921 0.38124,0.81493 0.75086,0.81493 0.12514,0 0.2706,0.17902 0.45941,0.56638 0.47993,0.98461 1.35646,2.21272 2.22002,3.10989 1.17621,1.22196 2.26555,1.91935 3.56722,2.28409 0.3671,0.10291 0.8513,0.13854 1.56631,0.11524 1.2225,-0.0398 2.10313,-0.33447 3.22306,-1.079 1.30009,-0.8643 2.94268,-2.81471 3.74034,-4.44107 0.18546,-0.37815 0.33074,-0.55553 0.45527,-0.55553 0.36424,0 0.56088,-0.20419 0.7183,-0.74569 0.087,-0.29907 0.35075,-0.9524 0.58601,-1.45159 0.52003,-1.1034 0.93586,-2.50434 0.93586,-3.15329 0,-0.39263 -0.0498,-0.52942 -0.27233,-0.7519 -0.14959,-0.14959 -0.32818,-0.29077 -0.39688,-0.31367 -0.16763,-0.0559 -0.30032,-2.06034 -0.13642,-2.06034 0.1244,0 0.46411,-0.47279 0.39171,-0.54519 -0.11209,-0.11209 -2.32159,-0.35524 -3.62304,-0.39894 l -1.42523,-0.0481 0.0294,-0.41548 c 0.0163,-0.22854 0.04,-0.42551 0.0522,-0.43821 0.0625,-0.0646 3.43867,0.20397 4.54701,0.36173 l 1.27693,0.1819 0.32039,-0.35915 c 0.46184,-0.51791 0.99885,-1.64498 1.10898,-2.32699 0.34602,-2.14276 -1.12568,-4.2628 -3.93516,-5.66839 -2.17329,-1.087295 -4.98316,-1.630904 -7.79332,-1.630904 z m 0.006,7.049704 c 1.51312,0 2.3499,0.0348 2.312,0.0961 -0.0326,0.0528 -0.54901,0.49618 -1.14773,0.98547 -0.59872,0.48928 -1.12535,0.88987 -1.16995,0.88987 -0.10958,0 -2.35407,-1.80416 -2.36007,-1.89756 -0.003,-0.0406 1.06158,-0.0739 2.36575,-0.0739 z m -3.09749,0.49299 c 0.0924,0 1.71144,1.31986 1.71153,1.39526 4e-5,0.0356 -0.37082,0.40122 -0.82424,0.81287 -0.45343,0.41165 -0.85237,0.74879 -0.88677,0.74879 -0.0344,0 -0.0625,-0.66535 -0.0625,-1.47846 0,-0.81311 0.0278,-1.47846 0.062,-1.47846 z m 6.1681,0 c 0.0425,0 0.0775,0.66535 0.0775,1.47846 0,0.81311 -0.0332,1.47667 -0.0739,1.47588 -0.11684,-0.004 -1.75505,-1.5482 -1.70015,-1.603 0.23564,-0.23542 1.63653,-1.35134 1.69653,-1.35134 z m -3.82715,1.93838 c 0.0606,0.009 0.25428,0.074 0.43046,0.1447 0.26323,0.10555 0.37756,0.10555 0.64079,0 0.17618,-0.0706 0.36986,-0.1357 0.43046,-0.1447 0.11635,-0.0173 1.79265,1.40934 1.80455,1.53582 0.004,0.0406 -1.14603,0.0739 -2.5554,0.0739 -1.4094,0 -2.55992,-0.0332 -2.55592,-0.0739 0.012,-0.12648 1.68871,-1.55312 1.80506,-1.53582 z m -6.6952,2.69389 c 0.0397,0 0.52273,0.0994 1.07332,0.22066 0.96825,0.21376 1.17741,0.2209 6.37274,0.22169 5.21041,10e-4 5.40116,-0.006 6.37222,-0.22065 0.55059,-0.12195 1.03415,-0.2217 1.07435,-0.2217 0.0402,0 0.0462,0.60961 0.0134,1.35496 -0.22518,5.12483 -3.36214,10.1215 -6.75928,10.76575 -0.9591,0.18189 -1.61786,0.0635 -2.7466,-0.49351 -2.287,-1.12868 -4.37288,-4.41194 -5.19555,-8.17779 -0.16992,-0.77782 -0.3284,-3.44941 -0.20464,-3.44941 z m 0.87488,11.39621 -0.29869,0.21239 c -0.48769,0.34727 -1.82316,1.80927 -2.29805,2.51561 -0.37145,0.55247 -0.50468,0.67369 -0.83613,0.76119 -0.52639,0.13904 -1.06363,0.30749 -1.59215,0.49403 l 6.53656,3.77393 c -0.61202,-2.07023 -0.95105,-4.09793 -0.96274,-5.88285 -0.008,-1.18732 -0.0168,-1.23682 -0.27853,-1.55029 z m 13.14493,0.002 -0.26716,0.29921 c -0.26314,0.29459 -0.26746,0.32373 -0.32246,2.0128 -0.0447,1.37313 -0.11541,1.99812 -0.3545,3.14296 -0.14819,0.70959 -0.34996,1.49088 -0.5824,2.27583 l 6.51382,-3.76101 c -0.51987,-0.18168 -1.04631,-0.34538 -1.55753,-0.48163 -0.33095,-0.0882 -0.46524,-0.21057 -0.83613,-0.76222 -0.47428,-0.70543 -1.81005,-2.16819 -2.2965,-2.51458 z m -4.53667,5.97587 c -0.17975,5e-4 -0.57299,0.0289 -1.01492,0.0749 -0.62992,0.0656 -1.54895,0.0841 -2.22984,0.045 l -1.15807,-0.0667 v 0.69764 c 0,0.77942 0.22283,1.49093 0.63665,2.03346 l 0.25683,0.33693 -0.16381,0.63459 1.60869,0.92863 1.49293,-0.86197 -0.16898,-0.64699 0.24339,-0.35708 c 0.41531,-0.60918 0.64544,-1.35448 0.64544,-2.08928 0,-0.37053 -0.0206,-0.69445 -0.046,-0.71985 -0.006,-0.006 -0.0424,-0.009 -0.10232,-0.009 z" /></g><text
       inkscape:export-filename="/home/adm1n/Git/azure/images/network/az_strg_rest_03.png"
       inkscape:export-ydpi="50"
       inkscape:export-xdpi="50"
       id="text5935"
       y="193.05446"
       x="242.31248"
       style="font-style:normal;font-variant:normal;font-weight:500;font-stretch:normal;font-size:5.82388px;line-height:1.25;font-family:'JetBrains Mono';-inkscape-font-specification:'JetBrains Mono, Medium';font-variant-ligatures:normal;font-variant-caps:normal;font-variant-numeric:normal;font-feature-settings:normal;text-align:center;letter-spacing:0px;word-spacing:0px;writing-mode:lr-tb;text-anchor:middle;fill:#000000;fill-opacity:1;stroke:none;stroke-width:0.218396"
       xml:space="preserve"><tspan
         y="193.05446"
         x="242.31248"
         sodipodi:role="line"
         style="font-style:normal;font-variant:normal;font-weight:bold;font-stretch:normal;font-size:9.87778px;font-family:'JetBrains Mono';-inkscape-font-specification:'JetBrains Mono Bold';text-align:center;text-anchor:middle;fill:#000000;fill-opacity:1;stroke-width:0.218396"
         id="tspan5933">Router</tspan></text><g
       id="g5943"
       transform="translate(197.02067)"><path
         id="path5937"
         style="fill:#666666;fill-opacity:1;stroke:#666666;stroke-width:2.24304;stroke-opacity:1"
         inkscape:transform-center-x="-3.2618492e-06"
         inkscape:transform-center-y="1.2071721e-05"
         d="m 78.357321,129.80251 -3.566748,6.17779 H 44.22281 l -3.566748,-6.17779 3.566748,-6.17777 30.567767,-1e-5 z"
         sodipodi:nodetypes="ccccccc" /><text
         inkscape:export-filename="/home/adm1n/Git/azure/images/network/az_strg_rest_03.png"
         inkscape:export-ydpi="50"
         inkscape:export-xdpi="50"
         id="text5941"
         y="134.5276"
         x="59.157433"
         style="font-style:normal;font-variant:normal;font-weight:500;font-stretch:normal;font-size:12.7px;line-height:1.25;font-family:'JetBrains Mono';-inkscape-font-specification:'JetBrains Mono, Medium';font-variant-ligatures:normal;font-variant-caps:normal;font-variant-numeric:normal;font-feature-settings:normal;text-align:center;letter-spacing:0px;word-spacing:0px;writing-mode:lr-tb;text-anchor:middle;fill:#ffffff;fill-opacity:1;stroke:none;stroke-width:0.218396"
         xml:space="preserve"><tspan
           y="134.5276"
           x="59.157433"
           sodipodi:role="line"
           style="font-style:normal;font-variant:normal;font-weight:800;font-stretch:normal;font-size:12.7px;font-family:'JetBrains Mono';-inkscape-font-specification:'JetBrains Mono Ultra-Bold';text-align:center;text-anchor:middle;fill:#ffffff;fill-opacity:1;stroke-width:0.218396"
           id="tspan5939">LAN</tspan></text></g><g
       id="g5650"
       transform="translate(24.348909,37.376913)"><path
         sodipodi:type="star"
         style="fill:#666666;fill-opacity:1;stroke-width:0.264583"
         id="path5636"
         sodipodi:sides="6"
         sodipodi:cx="1948.4672"
         sodipodi:cy="429.66962"
         sodipodi:r1="112.68826"
         sodipodi:r2="56.344131"
         sodipodi:arg1="0.78539816"
         sodipodi:arg2="1.3089969"
         inkscape:flatsided="true"
         inkscape:rounded="0"
         inkscape:randomized="0"
         d="m 2028.1498,509.35225 -108.8485,29.16587 -79.6826,-79.68263 29.1658,-108.84851 108.8485,-29.16587 79.6827,79.68264 z"
         inkscape:transform-center-x="-2.2851654e-05"
         inkscape:transform-center-y="2.965739e-05"
         transform="matrix(0.20037434,-0.05369013,0.05369013,0.20037434,-239.7895,142.73747)" /><path
         sodipodi:type="star"
         style="fill:#ffffff;stroke-width:0.264583"
         id="path5638"
         sodipodi:sides="6"
         sodipodi:cx="1948.4672"
         sodipodi:cy="429.66962"
         sodipodi:r1="112.68826"
         sodipodi:r2="56.344131"
         sodipodi:arg1="0.78539816"
         sodipodi:arg2="1.3089969"
         inkscape:flatsided="true"
         inkscape:rounded="0"
         inkscape:randomized="0"
         d="m 2028.1498,509.35225 -108.8485,29.16587 -79.6826,-79.68263 29.1658,-108.84851 108.8485,-29.16587 79.6827,79.68264 z"
         inkscape:transform-center-x="6.4816261e-06"
         inkscape:transform-center-y="3.4039249e-05"
         transform="matrix(0.17373549,-0.04655227,0.04655227,0.17373549,-184.8177,140.27548)" /><g
         id="g5648"
         transform="translate(0,0.87764586)"><g
           style="fill:#333333;fill-opacity:1"
           id="g5642"
           transform="matrix(0.68642542,0,0,0.59739672,193.15369,81.365182)"><path
             d="m -28.370324,45.32456 c -0.200066,0.0071 -0.392702,0.07759 -0.550152,0.201229 l -21.740179,17.014055 c -0.992445,0.777786 0.174317,2.265777 1.166762,1.487991 l 1.307069,-1.022763 v 24.854624 c 5.2e-5,0.522012 0.423214,0.945173 0.945225,0.945225 h 37.8090104 c 0.522012,-5.2e-5 0.945173,-0.423213 0.945225,-0.945225 V 63.005072 l 1.307069,1.022763 c 0.99204,0.778229 2.158804,-0.709761 1.166763,-1.487991 L -27.753712,45.525789 c -0.175374,-0.137697 -0.393776,-0.208972 -0.616612,-0.201229 z m 0.03323,2.145218 17.959279,14.054687 V 86.914471 H -46.296373 V 61.524465 Z"
             id="path5640"
             style="fill:#333333;fill-opacity:1;stroke-width:0.945225"
             sodipodi:nodetypes="cccccccccccccccccccc" /></g><g
           style="fill:#333333;fill-opacity:1"
           id="g5646"
           transform="matrix(0.96473571,0,0,0.96473571,162.12548,113.1391)"><path
             clip-rule="evenodd"
             d="M 7.8,4.25 H 7.7679 C 6.95506,4.24999 6.29944,4.24999 5.76853,4.29336 5.2219,4.33803 4.74175,4.43239 4.29754,4.65873 3.59193,5.01825 3.01825,5.59193 2.65873,6.29754 2.43239,6.74175 2.33803,7.2219 2.29336,7.76853 2.24999,8.29944 2.24999,8.95505 2.25,9.76788 v 2e-5 0.0321 4.4 0.0321 c -1e-5,0.8129 -1e-5,1.4685 0.04336,1.9994 0.04467,0.5466 0.13903,1.0267 0.36537,1.471 0.35952,0.7056 0.9332,1.2792 1.63881,1.6388 0.44421,0.2263 0.92436,0.3207 1.47099,0.3653 C 6.29944,19.75 6.95505,19.75 7.76788,19.75 H 7.8 h 8.4 0.0321 c 0.8129,0 1.4685,0 1.9994,-0.0434 0.5466,-0.0446 1.0267,-0.139 1.471,-0.3653 0.7056,-0.3596 1.2792,-0.9332 1.6388,-1.6388 0.2263,-0.4443 0.3207,-0.9244 0.3653,-1.471 C 21.75,15.7006 21.75,15.045 21.75,14.2321 V 14.2 9.8 9.76788 c 0,-0.81283 0,-1.46844 -0.0434,-1.99935 C 21.662,7.2219 21.5676,6.74175 21.3413,6.29754 20.9817,5.59193 20.4081,5.01825 19.7025,4.65873 19.2582,4.43239 18.7781,4.33803 18.2315,4.29336 17.7006,4.24999 17.0449,4.24999 16.2321,4.25 H 16.2 Z M 4.97852,5.99524 C 5.17604,5.8946 5.43681,5.82547 5.89068,5.78838 6.35331,5.75058 6.94755,5.75 7.8,5.75 h 8.4 c 0.8525,0 1.4467,5.8e-4 1.9093,0.03838 0.4539,0.03709 0.7147,0.10622 0.9122,0.20686 0.2021,0.10296 0.3861,0.2352 0.5467,0.39135 -0.0346,0.02442 -0.0676,0.05211 -0.0985,0.08308 l -4.6059,4.60593 c -0.6028,0.6027 -1.0234,1.0225 -1.3773,1.3229 -0.3471,0.2947 -0.5804,0.4302 -0.7912,0.4987 -0.4519,0.1469 -0.9387,0.1469 -1.3906,0 -0.2108,-0.0685 -0.4441,-0.204 -0.7912,-0.4987 C 10.1596,12.0981 9.73899,11.6783 9.13622,11.0756 L 4.53033,6.46967 C 4.49936,6.4387 4.46636,6.41101 4.43175,6.38659 4.5924,6.23044 4.77644,6.0982 4.97852,5.99524 Z M 3.79164,7.85229 C 3.79052,7.86493 3.78944,7.87773 3.78838,7.89068 3.75058,8.35331 3.75,8.94755 3.75,9.8 v 4.4 c 0,0.8525 5.8e-4,1.4467 0.03838,1.9093 0.03709,0.4539 0.10622,0.7147 0.20686,0.9122 0.21571,0.4233 0.55992,0.7675 0.98328,0.9833 0.19752,0.1006 0.45829,0.1697 0.91216,0.2068 C 6.35331,18.2494 6.94755,18.25 7.8,18.25 h 8.4 c 0.8525,0 1.4467,-6e-4 1.9093,-0.0384 0.4539,-0.0371 0.7147,-0.1062 0.9122,-0.2068 0.4233,-0.2158 0.7675,-0.56 0.9833,-0.9833 0.1006,-0.1975 0.1697,-0.4583 0.2068,-0.9122 C 20.2494,15.6467 20.25,15.0525 20.25,14.2 V 9.8 c 0,-0.85245 -6e-4,-1.44669 -0.0384,-1.90932 C 20.2106,7.87773 20.2095,7.86494 20.2084,7.8523 l -4.284,4.2839 -0.0227,0.0227 -10e-5,1e-4 c -0.5747,0.5747 -1.0382,1.0383 -1.4443,1.383 -0.4181,0.355 -0.8243,0.6278 -1.2985,0.7818 -0.7531,0.2447 -1.5645,0.2447 -2.3176,0 C 10.367,14.1698 9.9608,13.897 9.54269,13.542 9.13661,13.1973 8.67303,12.7337 8.09829,12.1589 h -3e-5 l -0.0227,-0.0227 z"
             fill="#000000"
             fill-rule="evenodd"
             id="path5644"
             style="fill:#333333;fill-opacity:1" /></g></g></g><text
       inkscape:export-filename="/home/adm1n/Git/azure/images/network/az_strg_rest_03.png"
       inkscape:export-ydpi="50"
       inkscape:export-xdpi="50"
       id="text6348"
       y="192.75952"
       x="183.22578"
       style="font-style:normal;font-variant:normal;font-weight:500;font-stretch:normal;font-size:5.82388px;line-height:1.25;font-family:'JetBrains Mono';-inkscape-font-specification:'JetBrains Mono, Medium';font-variant-ligatures:normal;font-variant-caps:normal;font-variant-numeric:normal;font-feature-settings:normal;text-align:center;letter-spacing:0px;word-spacing:0px;writing-mode:lr-tb;text-anchor:middle;fill:#000000;fill-opacity:1;stroke:none;stroke-width:0.218396"
       xml:space="preserve"><tspan
         y="192.75952"
         x="183.22578"
         sodipodi:role="line"
         style="font-style:normal;font-variant:normal;font-weight:bold;font-stretch:normal;font-size:9.87778px;font-family:'JetBrains Mono';-inkscape-font-specification:'JetBrains Mono Bold';text-align:center;text-anchor:middle;fill:#000000;fill-opacity:1;stroke-width:0.218396"
         id="tspan6346">ISP</tspan></text><text
       inkscape:export-filename="/home/adm1n/Git/azure/images/network/az_strg_rest_03.png"
       inkscape:export-ydpi="50"
       inkscape:export-xdpi="50"
       id="text6348-9"
       y="196.31807"
       x="154.63499"
       style="font-style:normal;font-variant:normal;font-weight:500;font-stretch:normal;font-size:5.82388px;line-height:1.25;font-family:'JetBrains Mono';-inkscape-font-specification:'JetBrains Mono, Medium';font-variant-ligatures:normal;font-variant-caps:normal;font-variant-numeric:normal;font-feature-settings:normal;text-align:center;letter-spacing:0px;word-spacing:0px;writing-mode:lr-tb;text-anchor:middle;fill:#000000;fill-opacity:1;stroke:none;stroke-width:0.218396"
       xml:space="preserve"><tspan
         y="196.31807"
         x="154.63499"
         sodipodi:role="line"
         style="font-style:normal;font-variant:normal;font-weight:bold;font-stretch:normal;font-size:9.87778px;font-family:'JetBrains Mono';-inkscape-font-specification:'JetBrains Mono Bold';text-align:center;text-anchor:middle;fill:#000000;fill-opacity:1;stroke-width:0.218396"
         id="tspan6346-3">ISPs</tspan></text><path
       sodipodi:type="star"
       style="fill:#666666;fill-opacity:1;stroke-width:0.264583"
       id="path6485"
       sodipodi:sides="6"
       sodipodi:cx="1948.4672"
       sodipodi:cy="429.66962"
       sodipodi:r1="112.68826"
       sodipodi:r2="56.344131"
       sodipodi:arg1="0.78539816"
       sodipodi:arg2="1.3089969"
       inkscape:flatsided="true"
       inkscape:rounded="0"
       inkscape:randomized="0"
       d="m 2028.1498,509.35225 -108.8485,29.16587 -79.6826,-79.68263 29.1658,-108.84851 108.8485,-29.16587 79.6827,79.68264 z"
       inkscape:transform-center-x="-2.2851654e-05"
       inkscape:transform-center-y="2.965739e-05"
       transform="matrix(0.20037434,-0.05369013,0.05369013,0.20037434,-257.73324,179.93049)" /><path
       sodipodi:type="star"
       style="fill:#ffffff;stroke-width:0.264583"
       id="path6487"
       sodipodi:sides="6"
       sodipodi:cx="1948.4672"
       sodipodi:cy="429.66962"
       sodipodi:r1="112.68826"
       sodipodi:r2="56.344131"
       sodipodi:arg1="0.78539816"
       sodipodi:arg2="1.3089969"
       inkscape:flatsided="true"
       inkscape:rounded="0"
       inkscape:randomized="0"
       d="m 2028.1498,509.35225 -108.8485,29.16587 -79.6826,-79.68263 29.1658,-108.84851 108.8485,-29.16587 79.6827,79.68264 z"
       inkscape:transform-center-x="6.4816261e-06"
       inkscape:transform-center-y="3.4039249e-05"
       transform="matrix(0.17373549,-0.04655227,0.04655227,0.17373549,-202.76144,177.4685)" /><circle
       style="fill:#ffffff;fill-opacity:1;stroke:#666666;stroke-width:2.609;stroke-linecap:square;stroke-linejoin:miter;stroke-dasharray:none;stroke-dashoffset:0;stroke-opacity:1;paint-order:markers fill stroke"
       id="path8326"
       cx="155.62088"
       cy="161.29375"
       r="14.129221" /><g
       id="g7885"
       transform="matrix(0.52684834,0,0,0.52684834,67.102682,37.317852)"><g
         id="g7871"
         transform="translate(32.875487)"><path
           id="path7861"
           style="fill:#333333;fill-opacity:1;stroke-width:0.60529"
           d="m 152.11435,212.15078 c -0.13733,0.004 -0.26916,0.0466 -0.37724,0.12041 l -14.92312,10.16372 c -0.57685,0.39345 -0.0908,1.09092 0.48525,1.01338 h 1.21284 v 14.11283 c 3e-5,0.31185 0.29021,0.56479 0.64854,0.56482 h 25.95346 c 0.35832,-3e-5 0.64849,-0.25297 0.64853,-0.56482 v -14.11283 h 1.21285 c 0.5759,0.0777 1.06186,-0.61971 0.48524,-1.01338 l -14.92312,-10.16372 c -0.12038,-0.0823 -0.27027,-0.12503 -0.42323,-0.12041 z" /><path
           style="fill:#ffffff;fill-opacity:1;stroke-width:0.548682"
           d="m 152.13738,214.53417 11.17479,7.61099 v 13.74938 h -22.34959 v -13.74938 z"
           id="path7863" /><g
           id="g7869"
           transform="translate(-63.903489,15.121293)"><path
             style="fill:#666666;fill-opacity:1;stroke-width:0.921278"
             d="m 212.17148,205.59993 h -0.0296 c -0.74885,-1e-5 -1.35286,-1e-5 -1.84197,0.0399 -0.5036,0.0412 -0.94595,0.12807 -1.35519,0.3366 -0.65007,0.33121 -1.17859,0.85973 -1.5098,1.5098 -0.20853,0.40924 -0.29546,0.85159 -0.3366,1.35519 -0.0399,0.48912 -0.0399,1.09312 -0.0399,1.84195 v 2e-5 0.0296 4.05363 0.0296 c -1e-5,0.7489 -1e-5,1.35289 0.0399,1.842 0.0411,0.50357 0.12807,0.94587 0.3366,1.35519 0.33121,0.65006 0.85973,1.1785 1.5098,1.50979 0.40924,0.20849 0.85159,0.29546 1.35519,0.33655 0.48911,0.04 1.09312,0.04 1.84195,0.04 h 0.0296 7.73872 0.0296 c 0.7489,0 1.35289,0 1.842,-0.04 0.50356,-0.0411 0.94587,-0.12806 1.3552,-0.33655 0.65005,-0.33129 1.1785,-0.85973 1.50978,-1.50979 0.20849,-0.40932 0.29545,-0.85162 0.33655,-1.35519 0.04,-0.48911 0.04,-1.0931 0.04,-1.842 v -0.0296 -4.05363 -0.0296 c 0,-0.74884 0,-1.35283 -0.04,-1.84195 -0.0411,-0.50361 -0.12806,-0.94595 -0.33655,-1.35519 -0.33128,-0.65007 -0.85973,-1.17859 -1.50978,-1.5098 -0.40933,-0.20853 -0.85164,-0.29546 -1.3552,-0.33661 -0.48911,-0.0399 -1.09319,-0.0399 -1.842,-0.0399 h -0.0296 z"
             id="path7865" /><path
             id="path7867"
             style="fill:#ffffff;fill-opacity:1;stroke-width:0.921278"
             d="m 212.17155,206.98168 c -0.78534,0 -1.33285,7.6e-4 -1.75907,0.0357 -0.41814,0.0342 -0.65829,0.098 -0.84026,0.19068 -0.18618,0.0949 -0.35584,0.21633 -0.50384,0.36019 0.0319,0.0225 0.0624,0.048 0.091,0.0765 l 4.24315,4.24367 c 0.55532,0.55524 0.94313,0.94178 1.26917,1.21853 0.31977,0.2715 0.53444,0.3963 0.72864,0.4594 0.41633,0.13534 0.86474,0.13534 1.28106,0 0.19421,-0.0631 0.40937,-0.1879 0.72915,-0.4594 0.32604,-0.27675 0.71332,-0.66329 1.26866,-1.21853 l 4.24315,-4.24367 c 0.0284,-0.0286 0.059,-0.054 0.0909,-0.0765 -0.14796,-0.14386 -0.31766,-0.26539 -0.50384,-0.36019 -0.18195,-0.0927 -0.4221,-0.15648 -0.84026,-0.19068 -0.42619,-0.0348 -0.97367,-0.0357 -1.75907,-0.0357 z m -3.6928,1.93683 c -9.5e-4,0.0117 -0.002,0.0239 -0.003,0.0357 -0.0349,0.42622 -0.0351,0.9732 -0.0351,1.75855 v 4.05402 c 0,0.78538 3.8e-4,1.33288 0.0351,1.75906 0.0342,0.41817 0.0979,0.6583 0.19068,0.84026 0.19872,0.38997 0.51585,0.70708 0.90589,0.90589 0.18196,0.0927 0.42212,0.15599 0.84026,0.19017 0.42622,0.0349 0.97372,0.0357 1.75907,0.0357 h 7.73854 c 0.78539,0 1.33289,-8e-4 1.75907,-0.0357 0.41817,-0.0342 0.65831,-0.0975 0.84026,-0.19017 0.38997,-0.19881 0.70707,-0.51592 0.90588,-0.90589 0.0927,-0.18196 0.15651,-0.42209 0.19069,-0.84026 0.0349,-0.42618 0.0351,-0.97368 0.0351,-1.75906 v -4.05402 c 0,-0.78535 -3.9e-4,-1.33233 -0.0351,-1.75855 -9.2e-4,-0.0119 -0.002,-0.0241 -0.003,-0.0357 l -3.94653,3.94653 -0.0212,0.0212 c -0.52945,0.52946 -0.95654,0.95678 -1.33067,1.27434 -0.38518,0.32706 -0.75944,0.57797 -1.19631,0.71985 -0.6938,0.22543 -1.44093,0.22543 -2.13475,0 -0.43686,-0.14188 -0.81111,-0.39279 -1.19631,-0.71985 -0.37411,-0.31756 -0.80118,-0.74479 -1.33067,-1.27434 l -0.0212,-0.0212 z" /></g></g><g
         id="g7692"><path
           id="path7677"
           style="fill:#333333;fill-opacity:1;stroke-width:0.60529"
           d="m 152.11435,212.15078 c -0.13733,0.004 -0.26916,0.0466 -0.37724,0.12041 l -14.92312,10.16372 c -0.57685,0.39345 -0.0908,1.09092 0.48525,1.01338 h 1.21284 v 14.11283 c 3e-5,0.31185 0.29021,0.56479 0.64854,0.56482 h 25.95346 c 0.35832,-3e-5 0.64849,-0.25297 0.64853,-0.56482 v -14.11283 h 1.21285 c 0.5759,0.0777 1.06186,-0.61971 0.48524,-1.01338 l -14.92312,-10.16372 c -0.12038,-0.0823 -0.27027,-0.12503 -0.42323,-0.12041 z" /><path
           style="fill:#ffffff;fill-opacity:1;stroke-width:0.548682"
           d="m 152.13738,214.53417 11.17479,7.61099 v 13.74938 h -22.34959 v -13.74938 z"
           id="path7679" /><g
           id="g7685"
           transform="translate(-63.903489,15.121293)"><path
             style="fill:#666666;fill-opacity:1;stroke-width:0.921278"
             d="m 212.17148,205.59993 h -0.0296 c -0.74885,-1e-5 -1.35286,-1e-5 -1.84197,0.0399 -0.5036,0.0412 -0.94595,0.12807 -1.35519,0.3366 -0.65007,0.33121 -1.17859,0.85973 -1.5098,1.5098 -0.20853,0.40924 -0.29546,0.85159 -0.3366,1.35519 -0.0399,0.48912 -0.0399,1.09312 -0.0399,1.84195 v 2e-5 0.0296 4.05363 0.0296 c -1e-5,0.7489 -1e-5,1.35289 0.0399,1.842 0.0411,0.50357 0.12807,0.94587 0.3366,1.35519 0.33121,0.65006 0.85973,1.1785 1.5098,1.50979 0.40924,0.20849 0.85159,0.29546 1.35519,0.33655 0.48911,0.04 1.09312,0.04 1.84195,0.04 h 0.0296 7.73872 0.0296 c 0.7489,0 1.35289,0 1.842,-0.04 0.50356,-0.0411 0.94587,-0.12806 1.3552,-0.33655 0.65005,-0.33129 1.1785,-0.85973 1.50978,-1.50979 0.20849,-0.40932 0.29545,-0.85162 0.33655,-1.35519 0.04,-0.48911 0.04,-1.0931 0.04,-1.842 v -0.0296 -4.05363 -0.0296 c 0,-0.74884 0,-1.35283 -0.04,-1.84195 -0.0411,-0.50361 -0.12806,-0.94595 -0.33655,-1.35519 -0.33128,-0.65007 -0.85973,-1.17859 -1.50978,-1.5098 -0.40933,-0.20853 -0.85164,-0.29546 -1.3552,-0.33661 -0.48911,-0.0399 -1.09319,-0.0399 -1.842,-0.0399 h -0.0296 z"
             id="path7681" /><path
             id="path7683"
             style="fill:#ffffff;fill-opacity:1;stroke-width:0.921278"
             d="m 212.17155,206.98168 c -0.78534,0 -1.33285,7.6e-4 -1.75907,0.0357 -0.41814,0.0342 -0.65829,0.098 -0.84026,0.19068 -0.18618,0.0949 -0.35584,0.21633 -0.50384,0.36019 0.0319,0.0225 0.0624,0.048 0.091,0.0765 l 4.24315,4.24367 c 0.55532,0.55524 0.94313,0.94178 1.26917,1.21853 0.31977,0.2715 0.53444,0.3963 0.72864,0.4594 0.41633,0.13534 0.86474,0.13534 1.28106,0 0.19421,-0.0631 0.40937,-0.1879 0.72915,-0.4594 0.32604,-0.27675 0.71332,-0.66329 1.26866,-1.21853 l 4.24315,-4.24367 c 0.0284,-0.0286 0.059,-0.054 0.0909,-0.0765 -0.14796,-0.14386 -0.31766,-0.26539 -0.50384,-0.36019 -0.18195,-0.0927 -0.4221,-0.15648 -0.84026,-0.19068 -0.42619,-0.0348 -0.97367,-0.0357 -1.75907,-0.0357 z m -3.6928,1.93683 c -9.5e-4,0.0117 -0.002,0.0239 -0.003,0.0357 -0.0349,0.42622 -0.0351,0.9732 -0.0351,1.75855 v 4.05402 c 0,0.78538 3.8e-4,1.33288 0.0351,1.75906 0.0342,0.41817 0.0979,0.6583 0.19068,0.84026 0.19872,0.38997 0.51585,0.70708 0.90589,0.90589 0.18196,0.0927 0.42212,0.15599 0.84026,0.19017 0.42622,0.0349 0.97372,0.0357 1.75907,0.0357 h 7.73854 c 0.78539,0 1.33289,-8e-4 1.75907,-0.0357 0.41817,-0.0342 0.65831,-0.0975 0.84026,-0.19017 0.38997,-0.19881 0.70707,-0.51592 0.90588,-0.90589 0.0927,-0.18196 0.15651,-0.42209 0.19069,-0.84026 0.0349,-0.42618 0.0351,-0.97368 0.0351,-1.75906 v -4.05402 c 0,-0.78535 -3.9e-4,-1.33233 -0.0351,-1.75855 -9.2e-4,-0.0119 -0.002,-0.0241 -0.003,-0.0357 l -3.94653,3.94653 -0.0212,0.0212 c -0.52945,0.52946 -0.95654,0.95678 -1.33067,1.27434 -0.38518,0.32706 -0.75944,0.57797 -1.19631,0.71985 -0.6938,0.22543 -1.44093,0.22543 -2.13475,0 -0.43686,-0.14188 -0.81111,-0.39279 -1.19631,-0.71985 -0.37411,-0.31756 -0.80118,-0.74479 -1.33067,-1.27434 l -0.0212,-0.0212 z" /></g></g></g><g
       id="g7704"
       transform="matrix(0.52684834,0,0,0.52684834,75.76288,50.206479)"><path
         id="path7694"
         style="fill:#333333;fill-opacity:1;stroke-width:0.60529"
         d="m 152.11435,212.15078 c -0.13733,0.004 -0.26916,0.0466 -0.37724,0.12041 l -14.92312,10.16372 c -0.57685,0.39345 -0.0908,1.09092 0.48525,1.01338 h 1.21284 v 14.11283 c 3e-5,0.31185 0.29021,0.56479 0.64854,0.56482 h 25.95346 c 0.35832,-3e-5 0.64849,-0.25297 0.64853,-0.56482 v -14.11283 h 1.21285 c 0.5759,0.0777 1.06186,-0.61971 0.48524,-1.01338 l -14.92312,-10.16372 c -0.12038,-0.0823 -0.27027,-0.12503 -0.42323,-0.12041 z" /><path
         style="fill:#ffffff;fill-opacity:1;stroke-width:0.548682"
         d="m 152.13738,214.53417 11.17479,7.61099 v 13.74938 h -22.34959 v -13.74938 z"
         id="path7696" /><g
         id="g7702"
         transform="translate(-63.903489,15.121293)"><path
           style="fill:#666666;fill-opacity:1;stroke-width:0.921278"
           d="m 212.17148,205.59993 h -0.0296 c -0.74885,-1e-5 -1.35286,-1e-5 -1.84197,0.0399 -0.5036,0.0412 -0.94595,0.12807 -1.35519,0.3366 -0.65007,0.33121 -1.17859,0.85973 -1.5098,1.5098 -0.20853,0.40924 -0.29546,0.85159 -0.3366,1.35519 -0.0399,0.48912 -0.0399,1.09312 -0.0399,1.84195 v 2e-5 0.0296 4.05363 0.0296 c -1e-5,0.7489 -1e-5,1.35289 0.0399,1.842 0.0411,0.50357 0.12807,0.94587 0.3366,1.35519 0.33121,0.65006 0.85973,1.1785 1.5098,1.50979 0.40924,0.20849 0.85159,0.29546 1.35519,0.33655 0.48911,0.04 1.09312,0.04 1.84195,0.04 h 0.0296 7.73872 0.0296 c 0.7489,0 1.35289,0 1.842,-0.04 0.50356,-0.0411 0.94587,-0.12806 1.3552,-0.33655 0.65005,-0.33129 1.1785,-0.85973 1.50978,-1.50979 0.20849,-0.40932 0.29545,-0.85162 0.33655,-1.35519 0.04,-0.48911 0.04,-1.0931 0.04,-1.842 v -0.0296 -4.05363 -0.0296 c 0,-0.74884 0,-1.35283 -0.04,-1.84195 -0.0411,-0.50361 -0.12806,-0.94595 -0.33655,-1.35519 -0.33128,-0.65007 -0.85973,-1.17859 -1.50978,-1.5098 -0.40933,-0.20853 -0.85164,-0.29546 -1.3552,-0.33661 -0.48911,-0.0399 -1.09319,-0.0399 -1.842,-0.0399 h -0.0296 z"
           id="path7698" /><path
           id="path7700"
           style="fill:#ffffff;fill-opacity:1;stroke-width:0.921278"
           d="m 212.17155,206.98168 c -0.78534,0 -1.33285,7.6e-4 -1.75907,0.0357 -0.41814,0.0342 -0.65829,0.098 -0.84026,0.19068 -0.18618,0.0949 -0.35584,0.21633 -0.50384,0.36019 0.0319,0.0225 0.0624,0.048 0.091,0.0765 l 4.24315,4.24367 c 0.55532,0.55524 0.94313,0.94178 1.26917,1.21853 0.31977,0.2715 0.53444,0.3963 0.72864,0.4594 0.41633,0.13534 0.86474,0.13534 1.28106,0 0.19421,-0.0631 0.40937,-0.1879 0.72915,-0.4594 0.32604,-0.27675 0.71332,-0.66329 1.26866,-1.21853 l 4.24315,-4.24367 c 0.0284,-0.0286 0.059,-0.054 0.0909,-0.0765 -0.14796,-0.14386 -0.31766,-0.26539 -0.50384,-0.36019 -0.18195,-0.0927 -0.4221,-0.15648 -0.84026,-0.19068 -0.42619,-0.0348 -0.97367,-0.0357 -1.75907,-0.0357 z m -3.6928,1.93683 c -9.5e-4,0.0117 -0.002,0.0239 -0.003,0.0357 -0.0349,0.42622 -0.0351,0.9732 -0.0351,1.75855 v 4.05402 c 0,0.78538 3.8e-4,1.33288 0.0351,1.75906 0.0342,0.41817 0.0979,0.6583 0.19068,0.84026 0.19872,0.38997 0.51585,0.70708 0.90589,0.90589 0.18196,0.0927 0.42212,0.15599 0.84026,0.19017 0.42622,0.0349 0.97372,0.0357 1.75907,0.0357 h 7.73854 c 0.78539,0 1.33289,-8e-4 1.75907,-0.0357 0.41817,-0.0342 0.65831,-0.0975 0.84026,-0.19017 0.38997,-0.19881 0.70707,-0.51592 0.90588,-0.90589 0.0927,-0.18196 0.15651,-0.42209 0.19069,-0.84026 0.0349,-0.42618 0.0351,-0.97368 0.0351,-1.75906 v -4.05402 c 0,-0.78535 -3.9e-4,-1.33233 -0.0351,-1.75855 -9.2e-4,-0.0119 -0.002,-0.0241 -0.003,-0.0357 l -3.94653,3.94653 -0.0212,0.0212 c -0.52945,0.52946 -0.95654,0.95678 -1.33067,1.27434 -0.38518,0.32706 -0.75944,0.57797 -1.19631,0.71985 -0.6938,0.22543 -1.44093,0.22543 -2.13475,0 -0.43686,-0.14188 -0.81111,-0.39279 -1.19631,-0.71985 -0.37411,-0.31756 -0.80118,-0.74479 -1.33067,-1.27434 l -0.0212,-0.0212 z" /></g></g><g
       id="g12810"
       transform="translate(-313.55854,42.882593)"><path
         sodipodi:type="star"
         style="fill:#666666;fill-opacity:1;stroke-width:0.264583"
         id="path5901-0"
         sodipodi:sides="6"
         sodipodi:cx="1948.4672"
         sodipodi:cy="429.66962"
         sodipodi:r1="112.68826"
         sodipodi:r2="56.344131"
         sodipodi:arg1="0.78539816"
         sodipodi:arg2="1.3089969"
         inkscape:flatsided="true"
         inkscape:rounded="0"
         inkscape:randomized="0"
         d="m 2028.1498,509.35225 -108.8485,29.16587 -79.6826,-79.68263 29.1658,-108.84851 108.8485,-29.16587 79.6827,79.68264 z"
         inkscape:transform-center-x="-2.2851654e-05"
         inkscape:transform-center-y="2.965739e-05"
         transform="matrix(0.20037434,-0.05369013,0.05369013,0.20037434,184.63277,137.02448)" /><path
         sodipodi:type="star"
         style="fill:#ffffff;stroke-width:0.264583"
         id="path5903-6"
         sodipodi:sides="6"
         sodipodi:cx="1948.4672"
         sodipodi:cy="429.66962"
         sodipodi:r1="112.68826"
         sodipodi:r2="56.344131"
         sodipodi:arg1="0.78539816"
         sodipodi:arg2="1.3089969"
         inkscape:flatsided="true"
         inkscape:rounded="0"
         inkscape:randomized="0"
         d="m 2028.1498,509.35225 -108.8485,29.16587 -79.6826,-79.68263 29.1658,-108.84851 108.8485,-29.16587 79.6827,79.68264 z"
         inkscape:transform-center-x="6.4816261e-06"
         inkscape:transform-center-y="3.4039249e-05"
         transform="matrix(0.17373549,-0.04655227,0.04655227,0.17373549,239.60457,134.56249)" /><path
         id="circle9376"
         style="fill:#333333;fill-opacity:1;stroke-width:0.300499"
         class="cls-3"
         d="m 598.01466,101.38193 c -1.62404,0.001 -3.16426,0.66356 -4.20698,1.80919 -0.5069,-0.24514 -1.06267,-0.37252 -1.62574,-0.37259 -2.06287,1e-5 -3.73516,1.6723 -3.73517,3.73517 9.2e-4,0.409 0.069,0.81508 0.20154,1.202 -2.06045,0.003 -3.72896,1.67471 -3.72897,3.73517 7.3e-4,1.11078 0.4958,2.16362 1.35082,2.87269 -0.76743,0.56587 -1.22077,1.46238 -1.22163,2.41588 0.003,1.21398 0.73529,2.30721 1.85725,2.77089 -0.0159,0.10474 -0.0252,0.21036 -0.0279,0.31626 -3e-5,1.41083 1.14353,2.55463 2.55437,2.55488 0.0105,6e-5 0.021,6e-5 0.0315,0 0.32351,3.98891 3.2086,7.30145 7.11533,8.16953 v 0.59014 h -6.03322 c -0.86791,2e-5 -1.68295,0.30677 -2.32234,0.83406 l 9.9012,5.71644 10.37973,-5.99291 c -0.56279,-0.35236 -1.22244,-0.55422 -1.91771,-0.55759 h -6.26577 v -0.54519 c 4.00623,-0.7895 7.00017,-4.14458 7.3303,-8.21448 0.0103,6e-5 0.0207,6e-5 0.031,0 1.41104,3e-5 2.55491,-1.14385 2.55488,-2.55488 -0.001,-0.30453 -0.0565,-0.60642 -0.16381,-0.89142 0.61144,-0.56674 0.95995,-1.36204 0.96221,-2.19573 -1.3e-4,-0.95386 -0.45312,-1.85102 -1.2206,-2.41743 0.85421,-0.70893 1.34886,-1.76107 1.34979,-2.87114 -1e-5,-2.06065 -1.66884,-3.73201 -3.72949,-3.73517 0.13253,-0.38693 0.20062,-0.793 0.20154,-1.202 -10e-6,-2.06287 -1.6723,-3.73516 -3.73517,-3.73517 -0.57596,3.4e-4 -1.14405,0.13388 -1.65985,0.39016 -1.04357,-1.15717 -2.59292,-1.82672 -4.22713,-1.82676 z" /><path
         id="path10729"
         style="fill:#ffffff;stroke-width:0.334206"
         class="cls-9"
         d="m 589.76096,117.62685 c -1.36097,0.0545 -2.43255,1.01397 -2.43551,2.18074 -6e-5,1.20822 1.14352,2.18777 2.55437,2.18798 0.11079,-3.9e-4 0.22144,-0.007 0.33124,-0.0196 0.10809,3.90193 2.90349,7.20903 6.73293,7.96541 v 1.25264 c 0,0.82934 0.6677,1.49706 1.49706,1.49706 0.82936,0 1.49707,-0.66772 1.49707,-1.49706 v -1.20355 c 3.92853,-0.65838 6.84599,-3.99849 6.97012,-7.97987 0.0723,0.006 0.14492,0.008 0.21755,0.009 1.41082,3e-5 2.55461,-0.97927 2.55489,-2.18746 -2.5e-4,-1.09515 -0.94597,-2.02144 -2.21331,-2.16783 0.0383,-0.31649 0.0585,-0.63478 0.0605,-0.95343 -2.6e-4,-2.84697 -1.44686,-5.51112 -3.86747,-7.12256 -4.1893,8.21477 -14.71425,0.0318 -13.89944,8.03853 z"
         sodipodi:nodetypes="cccccssscccccccc" /><path
         class="cls-13"
         d="m 598.52887,128.37548 c 1.39931,0 1.95904,-0.83959 1.95904,-0.83959 h -3.91809 c 0,0 0.55973,0.83959 1.95905,0.83959 z"
         id="path10731"
         style="fill:#333333;fill-opacity:1;stroke-width:0.279864" /><path
         id="path10735"
         style="fill:#333333;fill-opacity:1;stroke-width:0.636275;stroke-linecap:round;stroke-linejoin:round;stroke-dasharray:0.636275, 0.636275;paint-order:markers fill stroke"
         d="m 594.11999,117.93101 c -1.56236,-1e-5 -2.8289,1.26654 -2.82889,2.8289 -10e-6,1.56236 1.26653,2.8289 2.82889,2.82889 1.43641,-7e-5 2.64474,-1.07662 2.80996,-2.5035 h 3.14801 c 0.16514,1.42619 1.37243,2.5025 2.80814,2.5035 1.56236,10e-6 2.8289,-1.26653 2.82889,-2.82889 1e-5,-1.56236 -1.26653,-2.82891 -2.82889,-2.8289 -1.44935,9.4e-4 -2.66354,1.09714 -2.81213,2.53886 h -3.13992 c -0.14866,-1.44245 -1.36397,-2.53891 -2.81406,-2.53886 z m 0,0.47641 c 1.29923,3e-5 2.35245,1.05326 2.35248,2.35249 4e-5,1.29927 -1.05321,2.35257 -2.35248,2.3526 -1.29932,4e-5 -2.35265,-1.05328 -2.35261,-2.3526 3e-5,-1.29928 1.05333,-2.35253 2.35261,-2.35249 z m 8.76611,0 c 1.29923,3e-5 2.35246,1.05326 2.35249,2.35249 4e-5,1.29928 -1.05321,2.35257 -2.35249,2.3526 -1.29932,4e-5 -2.35264,-1.05328 -2.3526,-2.3526 3e-5,-1.29928 1.05332,-2.35253 2.3526,-2.35249 z m -9.48443,2.14518 c -0.13679,0 -0.24692,0.11014 -0.24692,0.24693 0,0.13679 0.11013,0.24693 0.24692,0.24693 h 1.48419 c 0.1368,0 0.24693,-0.11014 0.24693,-0.24693 0,-0.13679 -0.11013,-0.24693 -0.24693,-0.24693 z m 8.75311,0 c -0.13679,0 -0.24693,0.11014 -0.24693,0.24693 0,0.13679 0.11014,0.24693 0.24693,0.24693 h 1.48431 c 0.13679,0 0.24681,-0.11014 0.24681,-0.24693 0,-0.13679 -0.11002,-0.24693 -0.24681,-0.24693 z"
         sodipodi:nodetypes="ssscccscccsssssssssssssssssssssssss" /><rect
         style="fill:#333333;fill-opacity:1;stroke-width:0.539833;stroke-linecap:round;stroke-linejoin:round;stroke-dasharray:0.539833, 0.539833;paint-order:markers fill stroke"
         id="rect10737"
         width="0.77447081"
         height="3.4673204"
         x="598.11578"
         y="121.90553"
         rx="2.3868539"
         ry="2.3868539" /><path
         id="path10739"
         style="fill:#333333;fill-opacity:1;stroke-width:0.293048;stroke-linecap:round;stroke-linejoin:round;stroke-dasharray:0.293048, 0.293048;paint-order:markers fill stroke"
         d="m 596.54026,124.99008 c -0.0467,1.2e-4 -0.0928,0.0229 -0.12154,0.065 l -1.37619,2.01475 c -0.046,0.0674 -0.0297,0.15802 0.0364,0.20324 0.0662,0.0452 0.15647,0.0274 0.20251,-0.0401 l 1.3762,-2.01475 c 0.046,-0.0674 0.0299,-0.15812 -0.0364,-0.20333 -0.0248,-0.0169 -0.0531,-0.025 -0.0811,-0.0249 z m 3.9238,0 c -0.028,-7e-5 -0.0561,0.008 -0.081,0.0249 -0.0662,0.0452 -0.0825,0.13593 -0.0365,0.20333 l 1.3762,2.01474 c 0.046,0.0674 0.1364,0.0852 0.20259,0.0401 0.0662,-0.0452 0.0824,-0.13583 0.0364,-0.20323 l -1.3762,-2.01485 c -0.0287,-0.0421 -0.0748,-0.0648 -0.12154,-0.065 z" /><rect
         style="fill:#333333;fill-opacity:1;stroke-width:0.662127;stroke-linecap:round;stroke-linejoin:round;stroke-dasharray:0.662127, 0.662127;paint-order:markers fill stroke"
         id="rect10741"
         width="3.8817766"
         height="0.60107046"
         x="600.92139"
         y="58.299992"
         rx="1.3616817"
         ry="1.3616817"
         transform="rotate(5.6545656)" /><rect
         style="fill:#333333;fill-opacity:1;stroke-width:0.662127;stroke-linecap:round;stroke-linejoin:round;stroke-dasharray:0.662127, 0.662127;paint-order:markers fill stroke"
         id="rect10743"
         width="3.8817766"
         height="0.60107046"
         x="588.05103"
         y="170.46172"
         rx="1.3616817"
         ry="1.3616817"
         transform="rotate(-5.0909511)" /><path
         style="color:#000000;fill:#ffffff;stroke-width:0.220709;stroke-linecap:round;stroke-miterlimit:10;-inkscape-stroke:none"
         d="m 600.15505,109.56821 a 0.10872455,0.10872455 0 0 1 0.0509,0.14527 c -0.46833,0.97008 -1.07019,1.54677 -1.70576,1.87516 -0.63556,0.3284 -1.30025,0.40909 -1.89586,0.40909 h -4.37969 a 0.10872455,0.10872455 0 0 1 -0.10906,-0.10906 0.10872455,0.10872455 0 0 1 0.10906,-0.10863 h 4.37969 c 0.57597,0 1.2028,-0.0779 1.79629,-0.38452 0.59348,-0.30665 1.15777,-0.84135 1.60919,-1.77644 a 0.10872455,0.10872455 0 0 1 0.14527,-0.0509 z"
         id="path3966-3" /></g></g></svg>
